AcariSans-LightItalic.ufo
<glyph name="exclam" format="2">
  <advance width="631"/>
  <unicode hex="0021"/>
  <outline>
    <contour>
      <point x="334" y="368" type="line"/>
      <point x="238" y="368" type="line"/>
      <point x="454" y="1418" type="line"/>
      <point x="606" y="1418" type="line"/>
    </contour>
    <contour>
      <point x="290" y="0" type="line"/>
      <point x="114" y="0" type="line"/>
      <point x="154" y="175" type="line"/>
      <point x="331" y="175" type="line"/>
    </contour>
  </outline>
</glyph>
<glyph name="quotedbl" format="2">
  <advance width="896"/>
  <unicode hex="0022"/>
  <outline>
    <contour>
      <point x="456" y="998" type="line"/>
      <point x="340" y="998" type="line"/>
      <point x="432" y="1396" type="line"/>
      <point x="548" y="1396" type="line"/>
    </contour>
    <contour>
      <point x="789" y="998" type="line"/>
      <point x="671" y="998" type="line"/>
      <point x="763" y="1396" type="line"/>
      <point x="881" y="1396" type="line"/>
    </contour>
  </outline>
</glyph>
<glyph name="numbersign" format="2">
  <advance width="1361"/>
  <unicode hex="0023"/>
  <outline>
    <contour>
      <point x="690" y="0" type="line"/>
      <point x="586" y="0" type="line"/>
      <point x="777" y="432" type="line"/>
      <point x="445" y="432" type="line"/>
      <point x="256" y="0" type="line"/>
      <point x="152" y="0" type="line"/>
      <point x="343" y="438" type="line"/>
      <point x="105" y="438" type="line"/>
      <point x="128" y="536" type="line"/>
      <point x="385" y="536" type="line"/>
      <point x="535" y="883" type="line"/>
      <point x="288" y="883" type="line"/>
      <point x="309" y="974" type="line"/>
      <point x="576" y="974" type="line"/>
      <point x="772" y="1417" type="line"/>
      <point x="876" y="1417" type="line"/>
      <point x="683" y="984" type="line"/>
      <point x="1015" y="984" type="line"/>
      <point x="1206" y="1417" type="line"/>
      <point x="1310" y="1417" type="line"/>
      <point x="1117" y="977" type="line"/>
      <point x="1355" y="977" type="line"/>
      <point x="1332" y="883" type="line"/>
      <point x="1077" y="883" type="line"/>
      <point x="925" y="536" type="line"/>
      <point x="1172" y="536" type="line"/>
      <point x="1150" y="445" type="line"/>
      <point x="884" y="445" type="line"/>
    </contour>
    <contour>
      <point x="821" y="536" type="line"/>
      <point x="971" y="883" type="line"/>
      <point x="641" y="883" type="line"/>
      <point x="489" y="536" type="line"/>
    </contour>
  </outline>
</glyph>
<glyph name="ampersand" format="2">
  <advance width="1353"/>
  <unicode hex="0026"/>
  <outline>
    <contour>
      <point x="1045" y="-49" type="line"/>
      <point x="902" y="183" type="line"/>
      <point x="690" y="-21"/>
      <point x="420" y="-21" type="qcurve" smooth="yes"/>
      <point x="344" y="-21"/>
      <point x="220" y="11"/>
      <point x="133" y="75"/>
      <point x="85" y="171"/>
      <point x="85" y="235" type="qcurve"/>
      <point x="90" y="320"/>
      <point x="171" y="481"/>
      <point x="248" y="553" type="qcurve"/>
      <point x="299" y="603"/>
      <point x="449" y="704"/>
      <point x="553" y="762" type="qcurve"/>
      <point x="501" y="847"/>
      <point x="439" y="996"/>
      <point x="439" y="1072" type="qcurve" smooth="yes"/>
      <point x="439" y="1150"/>
      <point x="510" y="1277"/>
      <point x="622" y="1365"/>
      <point x="760" y="1413"/>
      <point x="827" y="1413" type="qcurve" smooth="yes"/>
      <point x="880" y="1413"/>
      <point x="969" y="1381"/>
      <point x="1033" y="1324"/>
      <point x="1072" y="1245"/>
      <point x="1075" y="1198" type="qcurve" smooth="yes"/>
      <point x="1076" y="1190"/>
      <point x="1076" y="1174"/>
      <point x="1076" y="1166" type="qcurve"/>
      <point x="1071" y="1100"/>
      <point x="1022" y="987"/>
      <point x="930" y="882"/>
      <point x="792" y="781"/>
      <point x="698" y="728" type="qcurve"/>
      <point x="726" y="682"/>
      <point x="782" y="592"/>
      <point x="810" y="547" type="qcurve" smooth="yes"/>
      <point x="923" y="366" type="line"/>
      <point x="1017" y="497"/>
      <point x="1081" y="686" type="qcurve"/>
      <point x="1184" y="662" type="line"/>
      <point x="1111" y="437"/>
      <point x="981" y="272" type="qcurve"/>
      <point x="1138" y="21" type="line"/>
    </contour>
    <contour>
      <point x="639" y="811" type="qcurve"/>
      <point x="724" y="859"/>
      <point x="845" y="940"/>
      <point x="883" y="975" type="qcurve" smooth="yes"/>
      <point x="930" y="1018"/>
      <point x="981" y="1115"/>
      <point x="981" y="1166" type="qcurve" smooth="yes"/>
      <point x="981" y="1197"/>
      <point x="956" y="1249"/>
      <point x="914" y="1286"/>
      <point x="858" y="1307"/>
      <point x="826" y="1307" type="qcurve" smooth="yes"/>
      <point x="780" y="1307"/>
      <point x="679" y="1272"/>
      <point x="595" y="1209"/>
      <point x="540" y="1120"/>
      <point x="540" y="1065" type="qcurve" smooth="yes"/>
      <point x="540" y="966"/>
    </contour>
    <contour>
      <point x="428" y="93" type="qcurve" smooth="yes"/>
      <point x="671" y="93"/>
      <point x="847" y="273" type="qcurve"/>
      <point x="600" y="671" type="line"/>
      <point x="498" y="614"/>
      <point x="346" y="508"/>
      <point x="244" y="404"/>
      <point x="193" y="298"/>
      <point x="193" y="241" type="qcurve" smooth="yes"/>
      <point x="193" y="169"/>
      <point x="319" y="93"/>
    </contour>
  </outline>
</glyph>
<glyph name="parenleft" format="2">
  <advance width="560"/>
  <unicode hex="0028"/>
  <outline>
    <contour>
      <point x="354" y="-16" type="qcurve"/>
      <point x="260" y="-9" type="line"/>
      <point x="235" y="30"/>
      <point x="197" y="131"/>
      <point x="172" y="248"/>
      <point x="159" y="377"/>
      <point x="159" y="442" type="qcurve" smooth="yes"/>
      <point x="159" y="529"/>
      <point x="178" y="682"/>
      <point x="219" y="833"/>
      <point x="283" y="989"/>
      <point x="329" y="1079" type="qcurve"/>
      <point x="379" y="1173"/>
      <point x="503" y="1339"/>
      <point x="578" y="1411" type="qcurve"/>
      <point x="690" y="1403" type="line"/>
      <point x="587" y="1297"/>
      <point x="426" y="1055"/>
      <point x="314" y="800"/>
      <point x="255" y="541"/>
      <point x="255" y="418" type="qcurve" smooth="yes"/>
      <point x="255" y="164"/>
    </contour>
  </outline>
</glyph>
<glyph name="parenright" format="2">
  <advance width="562"/>
  <unicode hex="0029"/>
  <outline>
    <contour>
      <point x="75" y="-17" type="qcurve"/>
      <point x="-32" y="-9" type="line"/>
      <point x="113" y="141"/>
      <point x="222" y="336" type="qcurve" smooth="yes"/>
      <point x="268" y="418"/>
      <point x="334" y="574"/>
      <point x="377" y="727"/>
      <point x="398" y="880"/>
      <point x="398" y="960" type="qcurve" smooth="yes"/>
      <point x="398" y="1081"/>
      <point x="347" y="1316"/>
      <point x="301" y="1411" type="qcurve"/>
      <point x="395" y="1402" type="line"/>
      <point x="502" y="1229"/>
      <point x="502" y="970" type="qcurve" smooth="yes"/>
      <point x="502" y="782"/>
      <point x="381" y="390"/>
      <point x="245" y="185" type="qcurve"/>
      <point x="205" y="123"/>
      <point x="120" y="21"/>
    </contour>
  </outline>
</glyph>
<glyph name="asterisk" format="2">
  <advance width="864"/>
  <unicode hex="002A"/>
  <outline>
    <contour>
      <point x="392" y="845" type="line"/>
      <point x="325" y="904" type="line"/>
      <point x="545" y="1108" type="line"/>
      <point x="304" y="1150" type="line"/>
      <point x="355" y="1247" type="line"/>
      <point x="565" y="1144" type="line"/>
      <point x="594" y="1396" type="line"/>
      <point x="685" y="1396" type="line"/>
      <point x="596" y="1144" type="line"/>
      <point x="852" y="1247" type="line"/>
      <point x="860" y="1151" type="line"/>
      <point x="597" y="1108" type="line"/>
      <point x="726" y="904" type="line"/>
      <point x="641" y="846" type="line"/>
      <point x="569" y="1081" type="line"/>
    </contour>
  </outline>
</glyph>
<glyph name="period" format="2">
  <advance width="666"/>
  <unicode hex="002E"/>
  <outline>
    <contour>
      <point x="312" y="0" type="line"/>
      <point x="128" y="0" type="line"/>
      <point x="169" y="175" type="line"/>
      <point x="353" y="175" type="line"/>
    </contour>
  </outline>
</glyph>
<glyph name="slash" format="2">
  <advance width="928"/>
  <unicode hex="002F"/>
  <outline>
    <contour>
      <point x="-49" y="-426" type="line"/>
      <point x="-187" y="-426" type="line"/>
      <point x="999" y="1498" type="line"/>
      <point x="1133" y="1498" type="line"/>
    </contour>
  </outline>
</glyph>
<glyph name="zero" format="2">
  <advance width="1200"/>
  <unicode hex="0030"/>
  <outline>
    <contour>
      <point x="472" y="-20" type="qcurve" smooth="yes"/>
      <point x="469" y="-20"/>
      <point x="467" y="-20" type="qcurve" smooth="yes"/>
      <point x="368" y="-20"/>
      <point x="225" y="54"/>
      <point x="134" y="183"/>
      <point x="93" y="354"/>
      <point x="93" y="450" type="qcurve"/>
      <point x="94" y="542"/>
      <point x="128" y="747"/>
      <point x="199" y="952"/>
      <point x="308" y="1147"/>
      <point x="383" y="1229" type="qcurve" smooth="yes"/>
      <point x="422" y="1272"/>
      <point x="511" y="1342"/>
      <point x="609" y="1392"/>
      <point x="718" y="1419"/>
      <point x="778" y="1419" type="qcurve" smooth="yes"/>
      <point x="872" y="1419"/>
      <point x="1012" y="1349"/>
      <point x="1105" y="1223"/>
      <point x="1152" y="1051"/>
      <point x="1153" y="951" type="qcurve"/>
      <point x="1153" y="947"/>
      <point x="1153" y="943" type="qcurve" smooth="yes"/>
      <point x="1153" y="826"/>
      <point x="1097" y="571"/>
      <point x="986" y="329"/>
      <point x="827" y="125"/>
      <point x="728" y="59" type="qcurve" smooth="yes"/>
      <point x="610" y="-20"/>
    </contour>
    <contour>
      <point x="482" y="100" type="qcurve" smooth="yes"/>
      <point x="560" y="100"/>
      <point x="707" y="179"/>
      <point x="836" y="328"/>
      <point x="940" y="540"/>
      <point x="975" y="673" type="qcurve" smooth="yes"/>
      <point x="995" y="751"/>
      <point x="1011" y="895"/>
      <point x="1011" y="957" type="qcurve" smooth="yes"/>
      <point x="1011" y="970"/>
      <point x="1011" y="984" type="qcurve"/>
      <point x="1008" y="1050"/>
      <point x="977" y="1164"/>
      <point x="917" y="1247"/>
      <point x="826" y="1294"/>
      <point x="762" y="1294" type="qcurve" smooth="yes"/>
      <point x="643" y="1294"/>
      <point x="440" y="1136"/>
      <point x="362" y="989" type="qcurve" smooth="yes"/>
      <point x="330" y="928"/>
      <point x="279" y="796"/>
      <point x="243" y="661"/>
      <point x="223" y="528"/>
      <point x="222" y="466" type="qcurve"/>
      <point x="222" y="456"/>
      <point x="222" y="446" type="qcurve" smooth="yes"/>
      <point x="222" y="378"/>
      <point x="248" y="252"/>
      <point x="311" y="155"/>
      <point x="411" y="100"/>
    </contour>
  </outline>
</glyph>
<glyph name="six" format="2">
  <advance width="1200"/>
  <unicode hex="0036"/>
  <outline>
    <contour>
      <point x="803" y="1397" type="line"/>
      <point x="947" y="1397" type="line"/>
      <point x="513" y="864" type="line"/>
      <point x="583" y="880"/>
      <point x="657" y="880" type="qcurve" smooth="yes"/>
      <point x="746" y="880"/>
      <point x="883" y="831"/>
      <point x="976" y="742"/>
      <point x="1025" y="619"/>
      <point x="1026" y="545" type="qcurve"/>
      <point x="1026" y="542"/>
      <point x="1026" y="539" type="qcurve" smooth="yes"/>
      <point x="1026" y="479"/>
      <point x="989" y="350"/>
      <point x="918" y="225"/>
      <point x="817" y="113"/>
      <point x="691" y="29"/>
      <point x="543" y="-20"/>
      <point x="461" y="-20" type="qcurve" smooth="yes"/>
      <point x="381" y="-20"/>
      <point x="250" y="33"/>
      <point x="155" y="127"/>
      <point x="101" y="256"/>
      <point x="100" y="332" type="qcurve"/>
      <point x="100" y="335"/>
      <point x="100" y="337" type="qcurve" smooth="yes"/>
      <point x="100" y="427"/>
      <point x="166" y="603"/>
      <point x="231" y="684" type="qcurve" smooth="yes"/>
    </contour>
    <contour>
      <point x="645" y="771" type="qcurve" smooth="yes"/>
      <point x="576" y="771"/>
      <point x="445" y="721"/>
      <point x="335" y="631"/>
      <point x="255" y="507"/>
      <point x="238" y="433" type="qcurve" smooth="yes"/>
      <point x="229" y="392"/>
      <point x="229" y="352" type="qcurve"/>
      <point x="230" y="298"/>
      <point x="267" y="205"/>
      <point x="332" y="138"/>
      <point x="423" y="99"/>
      <point x="478" y="99" type="qcurve" smooth="yes"/>
      <point x="481" y="99"/>
      <point x="484" y="99" type="qcurve" smooth="yes"/>
      <point x="536" y="99"/>
      <point x="639" y="133"/>
      <point x="732" y="195"/>
      <point x="810" y="278"/>
      <point x="866" y="374"/>
      <point x="897" y="478"/>
      <point x="897" y="529" type="qcurve"/>
      <point x="896" y="584"/>
      <point x="859" y="674"/>
      <point x="794" y="737"/>
      <point x="702" y="771"/>
    </contour>
  </outline>
</glyph>
<glyph name="eight" format="2">
  <advance width="1200"/>
  <unicode hex="0038"/>
  <outline>
    <contour>
      <point x="464" y="-20" type="qcurve" smooth="yes"/>
      <point x="386" y="-20"/>
      <point x="246" y="17"/>
      <point x="140" y="93"/>
      <point x="79" y="207"/>
      <point x="79" y="284" type="qcurve" smooth="yes"/>
      <point x="79" y="287"/>
      <point x="79" y="289" type="qcurve"/>
      <point x="80" y="366"/>
      <point x="129" y="507"/>
      <point x="219" y="627"/>
      <point x="351" y="724"/>
      <point x="435" y="756" type="qcurve"/>
      <point x="377" y="791"/>
      <point x="312" y="903"/>
      <point x="311" y="976" type="qcurve"/>
      <point x="311" y="981"/>
      <point x="311" y="985" type="qcurve" smooth="yes"/>
      <point x="311" y="1074"/>
      <point x="386" y="1232"/>
      <point x="517" y="1350"/>
      <point x="690" y="1417"/>
      <point x="786" y="1417" type="qcurve" smooth="yes"/>
      <point x="857" y="1417"/>
      <point x="979" y="1377"/>
      <point x="1066" y="1297"/>
      <point x="1102" y="1198"/>
      <point x="1102" y="1147" type="qcurve" smooth="yes"/>
      <point x="1102" y="1125"/>
      <point x="1099" y="1102" type="qcurve"/>
      <point x="1087" y="986"/>
      <point x="953" y="804"/>
      <point x="841" y="750" type="qcurve"/>
      <point x="932" y="708"/>
      <point x="1019" y="569"/>
      <point x="1019" y="476" type="qcurve" smooth="yes"/>
      <point x="1019" y="472"/>
      <point x="1019" y="468" type="qcurve"/>
      <point x="1017" y="357"/>
      <point x="925" y="177"/>
      <point x="774" y="50"/>
      <point x="574" y="-20"/>
    </contour>
    <contour>
      <point x="645" y="791" type="qcurve" smooth="yes"/>
      <point x="696" y="791"/>
      <point x="797" y="824"/>
      <point x="886" y="890"/>
      <point x="953" y="987"/>
      <point x="969" y="1050" type="qcurve"/>
      <point x="974" y="1073"/>
      <point x="977" y="1105"/>
      <point x="977" y="1115" type="qcurve" smooth="yes"/>
      <point x="977" y="1126"/>
      <point x="976" y="1135" type="qcurve" smooth="yes"/>
      <point x="970" y="1216"/>
      <point x="859" y="1302"/>
      <point x="773" y="1302" type="qcurve" smooth="yes"/>
      <point x="719" y="1302"/>
      <point x="602" y="1260"/>
      <point x="503" y="1177"/>
      <point x="439" y="1057"/>
      <point x="439" y="979" type="qcurve" smooth="yes"/>
      <point x="439" y="892"/>
      <point x="545" y="791"/>
    </contour>
    <contour>
      <point x="477" y="89" type="qcurve" smooth="yes"/>
      <point x="547" y="89"/>
      <point x="695" y="142"/>
      <point x="815" y="243"/>
      <point x="889" y="384"/>
      <point x="889" y="472" type="qcurve" smooth="yes"/>
      <point x="889" y="476"/>
      <point x="889" y="481" type="qcurve"/>
      <point x="888" y="533"/>
      <point x="847" y="613"/>
      <point x="776" y="667"/>
      <point x="682" y="695"/>
      <point x="629" y="695" type="qcurve" smooth="yes"/>
      <point x="581" y="695"/>
      <point x="481" y="672"/>
      <point x="388" y="626"/>
      <point x="306" y="559"/>
      <point x="245" y="472"/>
      <point x="212" y="368"/>
      <point x="212" y="310" type="qcurve" smooth="yes"/>
      <point x="212" y="306"/>
      <point x="212" y="303" type="qcurve"/>
      <point x="213" y="249"/>
      <point x="257" y="169"/>
      <point x="330" y="116"/>
      <point x="425" y="89"/>
    </contour>
  </outline>
</glyph>
<glyph name="semicolon" format="2">
  <advance width="651"/>
  <unicode hex="003B"/>
  <outline>
    <contour>
      <point x="526" y="767" type="line"/>
      <point x="349" y="767" type="line"/>
      <point x="390" y="942" type="line"/>
      <point x="567" y="942" type="line"/>
    </contour>
    <contour>
      <point x="118" y="-223" type="line"/>
      <point x="41" y="-223" type="line"/>
      <point x="252" y="258" type="line"/>
      <point x="425" y="258" type="line"/>
    </contour>
  </outline>
</glyph>
<glyph name="less" format="2">
  <advance width="1208"/>
  <unicode hex="003C"/>
  <outline>
    <contour>
      <point x="992" y="172" type="line"/>
      <point x="124" y="666" type="line"/>
      <point x="992" y="1160" type="line"/>
      <point x="1051" y="1058" type="line"/>
      <point x="335" y="666" type="line"/>
      <point x="1051" y="273" type="line"/>
    </contour>
  </outline>
</glyph>
<glyph name="equal" format="2">
  <advance width="1257"/>
  <unicode hex="003D"/>
  <outline>
    <contour>
      <point x="996" y="771" type="line"/>
      <point x="261" y="771" type="line"/>
      <point x="261" y="890" type="line"/>
      <point x="996" y="890" type="line"/>
    </contour>
    <contour>
      <point x="996" y="437" type="line"/>
      <point x="261" y="437" type="line"/>
      <point x="261" y="555" type="line"/>
      <point x="996" y="555" type="line"/>
    </contour>
  </outline>
</glyph>
<glyph name="greater" format="2">
  <advance width="1206"/>
  <unicode hex="003E"/>
  <outline>
    <contour>
      <point x="215" y="172" type="line"/>
      <point x="156" y="273" type="line"/>
      <point x="872" y="666" type="line"/>
      <point x="156" y="1058" type="line"/>
      <point x="215" y="1160" type="line"/>
      <point x="1084" y="666" type="line"/>
    </contour>
  </outline>
</glyph>
<glyph name="question" format="2">
  <advance width="1026"/>
  <unicode hex="003F"/>
  <outline>
    <contour>
      <point x="536" y="364" type="line"/>
      <point x="418" y="364" type="line"/>
      <point x="444" y="478" type="line" smooth="yes"/>
      <point x="456" y="530"/>
      <point x="477" y="621"/>
      <point x="507" y="698"/>
      <point x="554" y="760"/>
      <point x="592" y="784" type="qcurve" smooth="yes"/>
      <point x="608" y="794"/>
      <point x="654" y="819"/>
      <point x="707" y="847"/>
      <point x="765" y="878"/>
      <point x="792" y="895" type="qcurve" smooth="yes"/>
      <point x="838" y="924"/>
      <point x="897" y="1014"/>
      <point x="913" y="1077" type="qcurve" smooth="yes"/>
      <point x="922" y="1111"/>
      <point x="922" y="1139" type="qcurve" smooth="yes"/>
      <point x="922" y="1181"/>
      <point x="890" y="1243"/>
      <point x="833" y="1283"/>
      <point x="753" y="1303"/>
      <point x="705" y="1303" type="qcurve" smooth="yes"/>
      <point x="648" y="1303"/>
      <point x="538" y="1267"/>
      <point x="446" y="1202"/>
      <point x="379" y="1113"/>
      <point x="366" y="1059" type="qcurve"/>
      <point x="242" y="1071" type="line"/>
      <point x="260" y="1148"/>
      <point x="348" y="1275"/>
      <point x="471" y="1367"/>
      <point x="621" y="1417"/>
      <point x="701" y="1417" type="qcurve" smooth="yes"/>
      <point x="773" y="1417"/>
      <point x="898" y="1381"/>
      <point x="990" y="1312"/>
      <point x="1042" y="1210"/>
      <point x="1042" y="1144" type="qcurve" smooth="yes"/>
      <point x="1042" y="1094"/>
      <point x="1020" y="1003"/>
      <point x="981" y="924"/>
      <point x="927" y="859"/>
      <point x="894" y="835" type="qcurve" smooth="yes"/>
      <point x="876" y="821"/>
      <point x="826" y="794"/>
      <point x="769" y="765"/>
      <point x="709" y="735"/>
      <point x="681" y="718" type="qcurve" smooth="yes"/>
      <point x="647" y="697"/>
      <point x="608" y="647"/>
      <point x="586" y="589"/>
      <point x="572" y="523"/>
      <point x="564" y="486" type="qcurve" smooth="yes"/>
      <point x="562" y="475"/>
      <point x="559" y="463" type="qcurve" smooth="yes"/>
    </contour>
    <contour>
      <point x="484" y="0" type="line"/>
      <point x="307" y="0" type="line"/>
      <point x="348" y="175" type="line"/>
      <point x="525" y="175" type="line"/>
    </contour>
  </outline>
</glyph>
<glyph name="A" format="2">
  <advance width="1285"/>
  <unicode hex="0041"/>
  <outline>
    <contour>
      <point x="1095" y="0" type="line"/>
      <point x="953" y="0" type="line"/>
      <point x="917" y="304" type="line"/>
      <point x="286" y="304" type="line"/>
      <point x="109" y="0" type="line"/>
      <point x="-41" y="0" type="line"/>
      <point x="799" y="1396" type="line"/>
      <point x="903" y="1396" type="line"/>
    </contour>
    <contour>
      <point x="900" y="430" type="line"/>
      <point x="811" y="1199" type="line"/>
      <point x="359" y="430" type="line"/>
    </contour>
  </outline>
</glyph>
<glyph name="B" format="2">
  <advance width="1232"/>
  <unicode hex="0042"/>
  <outline>
    <contour>
      <point x="552" y="0" type="qcurve" smooth="yes"/>
      <point x="108" y="0" type="line"/>
      <point x="188" y="351"/>
      <point x="348" y="1044"/>
      <point x="430" y="1396" type="qcurve"/>
      <point x="791" y="1396" type="line" smooth="yes"/>
      <point x="870" y="1396"/>
      <point x="1009" y="1363"/>
      <point x="1113" y="1297"/>
      <point x="1172" y="1197"/>
      <point x="1172" y="1130" type="qcurve" smooth="yes"/>
      <point x="1172" y="1002"/>
      <point x="1034" y="798"/>
      <point x="902" y="731" type="qcurve"/>
      <point x="997" y="684"/>
      <point x="1084" y="552"/>
      <point x="1084" y="461" type="qcurve" smooth="yes"/>
      <point x="1084" y="354"/>
      <point x="1008" y="184"/>
      <point x="869" y="64"/>
      <point x="672" y="0"/>
    </contour>
    <contour>
      <point x="641" y="770" type="line" smooth="yes"/>
      <point x="708" y="770"/>
      <point x="830" y="806"/>
      <point x="929" y="876"/>
      <point x="999" y="980"/>
      <point x="1015" y="1048" type="qcurve" smooth="yes"/>
      <point x="1024" y="1085"/>
      <point x="1024" y="1118" type="qcurve" smooth="yes"/>
      <point x="1024" y="1203"/>
      <point x="899" y="1275"/>
      <point x="775" y="1275" type="qcurve" smooth="yes"/>
      <point x="533" y="1275" type="line"/>
      <point x="416" y="770" type="line"/>
    </contour>
    <contour>
      <point x="576" y="124" type="line" smooth="yes"/>
      <point x="646" y="124"/>
      <point x="767" y="154"/>
      <point x="862" y="217"/>
      <point x="928" y="314"/>
      <point x="944" y="382" type="qcurve" smooth="yes"/>
      <point x="950" y="406"/>
      <point x="955" y="449"/>
      <point x="955" y="468" type="qcurve" smooth="yes"/>
      <point x="955" y="559"/>
      <point x="837" y="647"/>
      <point x="712" y="647" type="qcurve" smooth="yes"/>
      <point x="389" y="647" type="line"/>
      <point x="268" y="124" type="line"/>
    </contour>
  </outline>
</glyph>
<glyph name="C" format="2">
  <advance width="1409"/>
  <unicode hex="0043"/>
  <outline>
    <contour>
      <point x="624" y="-20" type="qcurve" smooth="yes"/>
      <point x="501" y="-20"/>
      <point x="316" y="52"/>
      <point x="193" y="185"/>
      <point x="134" y="367"/>
      <point x="134" y="475" type="qcurve" smooth="yes"/>
      <point x="134" y="482"/>
      <point x="134" y="489" type="qcurve"/>
      <point x="136" y="610"/>
      <point x="198" y="854"/>
      <point x="306" y="1072"/>
      <point x="456" y="1252"/>
      <point x="547" y="1310" type="qcurve" smooth="yes"/>
      <point x="715" y="1419"/>
      <point x="930" y="1419" type="qcurve" smooth="yes"/>
      <point x="1026" y="1419"/>
      <point x="1189" y="1372"/>
      <point x="1313" y="1280"/>
      <point x="1395" y="1142"/>
      <point x="1411" y="1051" type="qcurve"/>
      <point x="1285" y="1005" type="line"/>
      <point x="1262" y="1153"/>
      <point x="1071" y="1293"/>
      <point x="910" y="1293" type="qcurve" smooth="yes"/>
      <point x="785" y="1293"/>
      <point x="583" y="1198"/>
      <point x="428" y="1036"/>
      <point x="324" y="821"/>
      <point x="299" y="701" type="qcurve" smooth="yes"/>
      <point x="286" y="641"/>
      <point x="272" y="533"/>
      <point x="272" y="482" type="qcurve" smooth="yes"/>
      <point x="272" y="478"/>
      <point x="272" y="475" type="qcurve" smooth="yes"/>
      <point x="272" y="395"/>
      <point x="314" y="262"/>
      <point x="405" y="165"/>
      <point x="545" y="112"/>
      <point x="641" y="112" type="qcurve" smooth="yes"/>
      <point x="968" y="112"/>
      <point x="1145" y="405" type="qcurve"/>
      <point x="1257" y="342" type="line"/>
      <point x="1197" y="252"/>
      <point x="1053" y="117"/>
      <point x="891" y="26"/>
      <point x="716" y="-20"/>
    </contour>
  </outline>
</glyph>
<glyph name="E" format="2">
  <advance width="1234"/>
  <unicode hex="0045"/>
  <outline>
    <contour>
      <point x="1007" y="0" type="line"/>
      <point x="108" y="0" type="line"/>
      <point x="430" y="1396" type="line"/>
      <point x="1328" y="1396" type="line"/>
      <point x="1302" y="1283" type="line"/>
      <point x="539" y="1283" type="line"/>
      <point x="418" y="753" type="line"/>
      <point x="1072" y="753" type="line"/>
      <point x="1045" y="644" type="line"/>
      <point x="391" y="644" type="line"/>
      <point x="270" y="122" type="line"/>
      <point x="1034" y="122" type="line"/>
    </contour>
  </outline>
</glyph>
<glyph name="F" format="2">
  <advance width="1185"/>
  <unicode hex="0046"/>
  <outline>
    <contour>
      <point x="244" y="0" type="line"/>
      <point x="108" y="0" type="line"/>
      <point x="430" y="1396" type="line"/>
      <point x="1305" y="1396" type="line"/>
      <point x="1279" y="1283" type="line"/>
      <point x="539" y="1283" type="line"/>
      <point x="418" y="753" type="line"/>
      <point x="1071" y="753" type="line"/>
      <point x="1044" y="644" type="line"/>
      <point x="391" y="644" type="line"/>
    </contour>
  </outline>
</glyph>
<glyph name="G" format="2">
  <advance width="1490"/>
  <unicode hex="0047"/>
  <outline>
    <contour>
      <point x="643" y="-20" type="qcurve" smooth="yes"/>
      <point x="522" y="-20"/>
      <point x="339" y="49"/>
      <point x="216" y="177"/>
      <point x="154" y="360"/>
      <point x="154" y="475" type="qcurve" smooth="yes"/>
      <point x="154" y="547"/>
      <point x="181" y="707"/>
      <point x="230" y="868"/>
      <point x="301" y="1021"/>
      <point x="345" y="1086" type="qcurve" smooth="yes"/>
      <point x="397" y="1163"/>
      <point x="529" y="1286"/>
      <point x="683" y="1373"/>
      <point x="857" y="1419"/>
      <point x="952" y="1419" type="qcurve" smooth="yes"/>
      <point x="1053" y="1419"/>
      <point x="1214" y="1368"/>
      <point x="1335" y="1273"/>
      <point x="1415" y="1136"/>
      <point x="1434" y="1049" type="qcurve"/>
      <point x="1303" y="1006" type="line"/>
      <point x="1268" y="1149"/>
      <point x="1084" y="1289"/>
      <point x="941" y="1289" type="qcurve" smooth="yes"/>
      <point x="820" y="1289"/>
      <point x="617" y="1200"/>
      <point x="457" y="1043"/>
      <point x="343" y="825"/>
      <point x="313" y="696" type="qcurve" smooth="yes"/>
      <point x="300" y="640"/>
      <point x="287" y="538"/>
      <point x="287" y="489" type="qcurve" smooth="yes"/>
      <point x="287" y="399"/>
      <point x="332" y="258"/>
      <point x="422" y="160"/>
      <point x="558" y="108"/>
      <point x="650" y="108" type="qcurve" smooth="yes"/>
      <point x="741" y="108"/>
      <point x="924" y="170"/>
      <point x="1081" y="293"/>
      <point x="1200" y="476"/>
      <point x="1228" y="597" type="qcurve"/>
      <point x="1145" y="594"/>
      <point x="985" y="593"/>
      <point x="906" y="591" type="qcurve"/>
      <point x="911" y="614"/>
      <point x="924" y="669"/>
      <point x="931" y="695" type="qcurve"/>
      <point x="1377" y="695" type="line"/>
      <point x="1216" y="0" type="line"/>
      <point x="1102" y="0" type="line"/>
      <point x="1170" y="270" type="line"/>
      <point x="1132" y="207"/>
      <point x="1022" y="100"/>
      <point x="887" y="23"/>
      <point x="729" y="-20"/>
    </contour>
  </outline>
</glyph>
<glyph name="H" format="2">
  <advance width="1441"/>
  <unicode hex="0048"/>
  <outline>
    <contour>
      <point x="1107" y="0" type="line"/>
      <point x="972" y="0" type="line"/>
      <point x="1119" y="644" type="line"/>
      <point x="391" y="644" type="line"/>
      <point x="243" y="0" type="line"/>
      <point x="108" y="0" type="line"/>
      <point x="430" y="1396" type="line"/>
      <point x="565" y="1396" type="line"/>
      <point x="418" y="753" type="line"/>
      <point x="1146" y="753" type="line"/>
      <point x="1294" y="1396" type="line"/>
      <point x="1429" y="1396" type="line"/>
    </contour>
  </outline>
</glyph>
<glyph name="I" format="2">
  <advance width="577"/>
  <unicode hex="0049"/>
  <outline>
    <contour>
      <point x="243" y="0" type="line"/>
      <point x="108" y="0" type="line"/>
      <point x="430" y="1396" type="line"/>
      <point x="565" y="1396" type="line"/>
    </contour>
  </outline>
</glyph>
<glyph name="L" format="2">
  <advance width="1029"/>
  <unicode hex="004C"/>
  <outline>
    <contour>
      <point x="841" y="0" type="line"/>
      <point x="108" y="0" type="line"/>
      <point x="430" y="1396" type="line"/>
      <point x="565" y="1396" type="line"/>
      <point x="270" y="122" type="line"/>
      <point x="868" y="122" type="line"/>
    </contour>
  </outline>
</glyph>
<glyph name="N" format="2">
  <advance width="1400"/>
  <unicode hex="004E"/>
  <outline>
    <contour>
      <point x="1045" y="0" type="line"/>
      <point x="835" y="0" type="line"/>
      <point x="510" y="1258" type="line"/>
      <point x="218" y="0" type="line"/>
      <point x="81" y="0" type="line"/>
      <point x="404" y="1396" type="line"/>
      <point x="609" y="1396" type="line"/>
      <point x="940" y="140" type="line"/>
      <point x="1232" y="1396" type="line"/>
      <point x="1366" y="1396" type="line"/>
    </contour>
  </outline>
</glyph>
<glyph name="Q" format="2">
  <advance width="1536"/>
  <unicode hex="0051"/>
  <outline>
    <contour>
      <point x="966" y="211" type="line"/>
      <point x="825" y="399" type="line"/>
      <point x="923" y="489" type="line"/>
      <point x="1065" y="303" type="line"/>
      <point x="1115" y="362"/>
      <point x="1197" y="514"/>
      <point x="1253" y="679"/>
      <point x="1282" y="849"/>
      <point x="1279" y="926" type="qcurve" smooth="yes"/>
      <point x="1276" y="1011"/>
      <point x="1229" y="1146"/>
      <point x="1138" y="1241"/>
      <point x="1003" y="1291"/>
      <point x="912" y="1291" type="qcurve" smooth="yes"/>
      <point x="789" y="1291"/>
      <point x="587" y="1198"/>
      <point x="432" y="1036"/>
      <point x="326" y="819"/>
      <point x="298" y="696" type="qcurve"/>
      <point x="273" y="579"/>
      <point x="274" y="481" type="qcurve" smooth="yes"/>
      <point x="275" y="396"/>
      <point x="319" y="257"/>
      <point x="409" y="159"/>
      <point x="545" y="106"/>
      <point x="638" y="106" type="qcurve" smooth="yes"/>
      <point x="811" y="106"/>
      <point x="946" y="199" type="qcurve"/>
    </contour>
    <contour>
      <point x="1140" y="201" type="qcurve"/>
      <point x="1296" y="-4" type="line"/>
      <point x="1195" y="-92" type="line"/>
      <point x="1041" y="113" type="line"/>
      <point x="865" y="-20"/>
      <point x="621" y="-20" type="qcurve" smooth="yes"/>
      <point x="499" y="-20"/>
      <point x="314" y="53"/>
      <point x="192" y="186"/>
      <point x="132" y="375"/>
      <point x="134" y="492" type="qcurve" smooth="yes"/>
      <point x="136" y="617"/>
      <point x="201" y="865"/>
      <point x="315" y="1086"/>
      <point x="472" y="1265"/>
      <point x="567" y="1321" type="qcurve" smooth="yes"/>
      <point x="729" y="1418"/>
      <point x="930" y="1418" type="qcurve" smooth="yes"/>
      <point x="1053" y="1418"/>
      <point x="1237" y="1345"/>
      <point x="1360" y="1211"/>
      <point x="1420" y="1019"/>
      <point x="1418" y="901" type="qcurve" smooth="yes"/>
      <point x="1416" y="809"/>
      <point x="1377" y="616"/>
      <point x="1305" y="432"/>
      <point x="1204" y="266"/>
    </contour>
  </outline>
</glyph>
<glyph name="R" format="2">
  <advance width="1207"/>
  <unicode hex="0052"/>
  <outline>
    <contour>
      <point x="994" y="-2" type="line"/>
      <point x="848" y="-2" type="line"/>
      <point x="646" y="631" type="line"/>
      <point x="388" y="631" type="line"/>
      <point x="241" y="-2" type="line"/>
      <point x="105" y="-2" type="line"/>
      <point x="429" y="1394" type="line"/>
      <point x="812" y="1394" type="line" smooth="yes"/>
      <point x="887" y="1394"/>
      <point x="1016" y="1354"/>
      <point x="1111" y="1277"/>
      <point x="1166" y="1166"/>
      <point x="1166" y="1094" type="qcurve" smooth="yes"/>
      <point x="1166" y="1013"/>
      <point x="1109" y="865"/>
      <point x="1005" y="746"/>
      <point x="861" y="664"/>
      <point x="774" y="649" type="qcurve"/>
    </contour>
    <contour>
      <point x="1037" y="1089" type="qcurve" smooth="yes"/>
      <point x="1037" y="1135"/>
      <point x="1002" y="1204"/>
      <point x="939" y="1251"/>
      <point x="851" y="1275"/>
      <point x="797" y="1275" type="qcurve" smooth="yes"/>
      <point x="538" y="1275" type="line"/>
      <point x="418" y="758" type="line"/>
      <point x="707" y="758" type="line"/>
      <point x="728" y="759"/>
      <point x="781" y="771"/>
      <point x="838" y="794"/>
      <point x="893" y="824"/>
      <point x="917" y="843" type="qcurve" smooth="yes"/>
      <point x="970" y="885"/>
      <point x="1037" y="1013"/>
    </contour>
  </outline>
</glyph>
<glyph name="S" format="2">
  <advance width="1102"/>
  <unicode hex="0053"/>
  <outline>
    <contour>
      <point x="476" y="-16" type="qcurve" smooth="yes"/>
      <point x="395" y="-16"/>
      <point x="245" y="30"/>
      <point x="131" y="123"/>
      <point x="62" y="261"/>
      <point x="62" y="354" type="qcurve"/>
      <point x="193" y="380" type="line"/>
      <point x="193" y="318"/>
      <point x="228" y="218"/>
      <point x="300" y="148"/>
      <point x="408" y="109"/>
      <point x="481" y="109" type="qcurve" smooth="yes"/>
      <point x="561" y="109"/>
      <point x="692" y="154"/>
      <point x="785" y="233"/>
      <point x="835" y="340"/>
      <point x="835" y="403" type="qcurve" smooth="yes"/>
      <point x="835" y="453"/>
      <point x="804" y="527"/>
      <point x="738" y="590"/>
      <point x="638" y="651"/>
      <point x="569" y="687" type="qcurve" smooth="yes"/>
      <point x="523" y="710"/>
      <point x="454" y="749"/>
      <point x="402" y="789"/>
      <point x="363" y="833"/>
      <point x="347" y="861" type="qcurve" smooth="yes"/>
      <point x="313" y="920"/>
      <point x="313" y="1003" type="qcurve" smooth="yes"/>
      <point x="313" y="1005"/>
      <point x="313" y="1008" type="qcurve" smooth="yes"/>
      <point x="313" y="1092"/>
      <point x="385" y="1241"/>
      <point x="509" y="1353"/>
      <point x="673" y="1417"/>
      <point x="763" y="1417" type="qcurve" smooth="yes"/>
      <point x="821" y="1417"/>
      <point x="925" y="1389"/>
      <point x="1011" y="1333"/>
      <point x="1076" y="1252"/>
      <point x="1095" y="1200" type="qcurve"/>
      <point x="985" y="1145" type="line"/>
      <point x="958" y="1220"/>
      <point x="838" y="1297"/>
      <point x="759" y="1297" type="qcurve" smooth="yes"/>
      <point x="715" y="1297"/>
      <point x="629" y="1274"/>
      <point x="554" y="1233"/>
      <point x="494" y="1175"/>
      <point x="475" y="1140" type="qcurve" smooth="yes"/>
      <point x="461" y="1114"/>
      <point x="448" y="1061"/>
      <point x="448" y="1033" type="qcurve" smooth="yes"/>
      <point x="448" y="1029"/>
      <point x="448" y="1025" type="qcurve" smooth="yes"/>
      <point x="448" y="960"/>
      <point x="507" y="871"/>
      <point x="563" y="836" type="qcurve" smooth="yes"/>
      <point x="580" y="826"/>
      <point x="654" y="786"/>
      <point x="713" y="757" type="qcurve" smooth="yes"/>
      <point x="771" y="728"/>
      <point x="865" y="666"/>
      <point x="932" y="590"/>
      <point x="969" y="493"/>
      <point x="969" y="428" type="qcurve" smooth="yes"/>
      <point x="969" y="426"/>
      <point x="969" y="423" type="qcurve" smooth="yes"/>
      <point x="969" y="332"/>
      <point x="891" y="172"/>
      <point x="756" y="52"/>
      <point x="576" y="-16"/>
    </contour>
  </outline>
</glyph>
<glyph name="T" format="2">
  <advance width="1248"/>
  <unicode hex="0054"/>
  <outline>
    <contour>
      <point x="579" y="0" type="line"/>
      <point x="442" y="0" type="line"/>
      <point x="739" y="1289" type="line"/>
      <point x="260" y="1289" type="line"/>
      <point x="284" y="1396" type="line"/>
      <point x="1380" y="1396" type="line"/>
      <point x="1355" y="1289" type="line"/>
      <point x="876" y="1289" type="line"/>
    </contour>
  </outline>
</glyph>
<glyph name="X" format="2">
  <advance width="1243"/>
  <unicode hex="0058"/>
  <outline>
    <contour>
      <point x="1038" y="0" type="line"/>
      <point x="886" y="0" type="line"/>
      <point x="645" y="579" type="line"/>
      <point x="138" y="0" type="line"/>
      <point x="-26" y="0" type="line"/>
      <point x="597" y="698" type="line"/>
      <point x="302" y="1396" type="line"/>
      <point x="458" y="1396" type="line"/>
      <point x="691" y="807" type="line"/>
      <point x="1201" y="1396" type="line"/>
      <point x="1361" y="1396" type="line"/>
      <point x="742" y="699" type="line"/>
    </contour>
  </outline>
</glyph>
<glyph name="Y" format="2">
  <advance width="1316"/>
  <unicode hex="0059"/>
  <outline>
    <contour>
      <point x="611" y="0" type="line"/>
      <point x="481" y="0" type="line"/>
      <point x="608" y="546" type="line"/>
      <point x="281" y="1396" type="line"/>
      <point x="433" y="1396" type="line"/>
      <point x="699" y="686" type="line"/>
      <point x="1298" y="1396" type="line"/>
      <point x="1456" y="1396" type="line"/>
      <point x="738" y="547" type="line"/>
    </contour>
  </outline>
</glyph>
<glyph name="Z" format="2">
  <advance width="1273"/>
  <unicode hex="005A"/>
  <outline>
    <contour>
      <point x="1050" y="0" type="line"/>
      <point x="-14" y="0" type="line"/>
      <point x="8" y="110" type="line"/>
      <point x="1178" y="1283" type="line"/>
      <point x="325" y="1283" type="line"/>
      <point x="352" y="1396" type="line"/>
      <point x="1372" y="1396" type="line"/>
      <point x="1347" y="1280" type="line"/>
      <point x="183" y="123" type="line"/>
      <point x="1079" y="123" type="line"/>
    </contour>
  </outline>
</glyph>
<glyph name="bracketleft" format="2">
  <advance width="635"/>
  <unicode hex="005B"/>
  <outline>
    <contour>
      <point x="422" y="-78" type="line"/>
      <point x="80" y="-78" type="line"/>
      <point x="438" y="1472" type="line"/>
      <point x="779" y="1472" type="line"/>
      <point x="763" y="1399" type="line"/>
      <point x="530" y="1399" type="line"/>
      <point x="207" y="-3" type="line"/>
      <point x="440" y="-3" type="line"/>
    </contour>
  </outline>
</glyph>
<glyph name="underscore" format="2">
  <advance width="1229"/>
  <unicode hex="005F"/>
  <outline>
    <contour>
      <point x="856" y="-99" type="line"/>
      <point x="100" y="-99" type="line"/>
      <point x="123" y="-3" type="line"/>
      <point x="878" y="-3" type="line"/>
    </contour>
  </outline>
</glyph>
<glyph name="grave" format="2">
  <advance width="534"/>
  <unicode hex="0060"/>
  <outline>
    <contour>
      <point x="382" y="1112" type="line"/>
      <point x="192" y="1396" type="line"/>
      <point x="356" y="1396" type="line"/>
      <point x="502" y="1112" type="line"/>
    </contour>
  </outline>
</glyph>
<glyph name="b" format="2">
  <advance width="1113"/>
  <unicode hex="0062"/>
  <outline>
    <contour>
      <point x="507" y="-20" type="qcurve" smooth="yes"/>
      <point x="398" y="-20"/>
      <point x="259" y="69"/>
      <point x="224" y="151" type="qcurve"/>
      <point x="212" y="104"/>
      <point x="194" y="29"/>
      <point x="187" y="0" type="qcurve"/>
      <point x="63" y="0" type="line"/>
      <point x="385" y="1396" type="line"/>
      <point x="509" y="1396" type="line"/>
      <point x="475" y="1259"/>
      <point x="412" y="989"/>
      <point x="378" y="845" type="qcurve"/>
      <point x="530" y="1009"/>
      <point x="722" y="1009" type="qcurve" smooth="yes"/>
      <point x="795" y="1009"/>
      <point x="908" y="959"/>
      <point x="985" y="866"/>
      <point x="1025" y="735"/>
      <point x="1025" y="655" type="qcurve" smooth="yes"/>
      <point x="1025" y="579"/>
      <point x="992" y="420"/>
      <point x="930" y="270"/>
      <point x="839" y="137"/>
      <point x="724" y="38"/>
      <point x="586" y="-20"/>
    </contour>
    <contour>
      <point x="477" y="88" type="qcurve" smooth="yes"/>
      <point x="563" y="88"/>
      <point x="716" y="179"/>
      <point x="832" y="333"/>
      <point x="899" y="535"/>
      <point x="899" y="645" type="qcurve" smooth="yes"/>
      <point x="899" y="702"/>
      <point x="873" y="795"/>
      <point x="821" y="862"/>
      <point x="741" y="899"/>
      <point x="686" y="899" type="qcurve" smooth="yes"/>
      <point x="610" y="899"/>
      <point x="480" y="832"/>
      <point x="376" y="715"/>
      <point x="303" y="558"/>
      <point x="284" y="468" type="qcurve" smooth="yes"/>
      <point x="276" y="433"/>
      <point x="268" y="364"/>
      <point x="268" y="331" type="qcurve" smooth="yes"/>
      <point x="268" y="275"/>
      <point x="293" y="185"/>
      <point x="345" y="122"/>
      <point x="424" y="88"/>
    </contour>
  </outline>
</glyph>
<glyph name="f" format="2">
  <advance width="673"/>
  <unicode hex="0066"/>
  <outline>
    <contour>
      <point x="205" y="0" type="line"/>
      <point x="79" y="0" type="line"/>
      <point x="283" y="885" type="line"/>
      <point x="102" y="885" type="line"/>
      <point x="126" y="984" type="line"/>
      <point x="306" y="984" type="line"/>
      <point x="349" y="1172" type="line"/>
      <point x="364" y="1232"/>
      <point x="422" y="1323"/>
      <point x="503" y="1385"/>
      <point x="602" y="1417"/>
      <point x="657" y="1417" type="qcurve" smooth="yes"/>
      <point x="738" y="1417"/>
      <point x="809" y="1379" type="qcurve"/>
      <point x="761" y="1280" type="line"/>
      <point x="704" y="1310"/>
      <point x="647" y="1310" type="qcurve" smooth="yes"/>
      <point x="572" y="1310"/>
      <point x="487" y="1226"/>
      <point x="467" y="1133" type="qcurve"/>
      <point x="433" y="986" type="line"/>
      <point x="726" y="986" type="line"/>
      <point x="702" y="885" type="line"/>
      <point x="411" y="885" type="line"/>
    </contour>
  </outline>
</glyph>
<glyph name="i" format="2">
  <advance width="479"/>
  <unicode hex="0069"/>
  <outline>
    <contour>
      <point x="482" y="1215" type="line"/>
      <point x="331" y="1215" type="line"/>
      <point x="373" y="1396" type="line"/>
      <point x="524" y="1396" type="line"/>
    </contour>
    <contour>
      <point x="190" y="0" type="line"/>
      <point x="61" y="0" type="line"/>
      <point x="288" y="986" type="line"/>
      <point x="417" y="986" type="line"/>
    </contour>
  </outline>
</glyph>
<glyph name="l" format="2">
  <advance width="504"/>
  <unicode hex="006C"/>
  <outline>
    <contour>
      <point x="187" y="-20" type="qcurve" smooth="yes"/>
      <point x="127" y="-20"/>
      <point x="69" y="24"/>
      <point x="67" y="69" type="qcurve"/>
      <point x="65" y="80"/>
      <point x="65" y="94" type="qcurve" smooth="yes"/>
      <point x="65" y="98"/>
      <point x="65" y="103" type="qcurve"/>
      <point x="68" y="137"/>
      <point x="83" y="204" type="qcurve" smooth="yes"/>
      <point x="133" y="421"/>
      <point x="271" y="1017"/>
      <point x="358" y="1396" type="qcurve"/>
      <point x="485" y="1396" type="line"/>
      <point x="195" y="136" type="line"/>
      <point x="195" y="130"/>
      <point x="195" y="120"/>
      <point x="196" y="116" type="qcurve"/>
      <point x="199" y="87"/>
      <point x="235" y="87" type="qcurve" smooth="yes"/>
      <point x="246" y="87"/>
      <point x="295" y="91"/>
      <point x="328" y="102" type="qcurve"/>
      <point x="310" y="-2" type="line"/>
      <point x="284" y="-10"/>
      <point x="218" y="-20"/>
    </contour>
  </outline>
</glyph>
<glyph name="n" format="2">
  <advance width="1105"/>
  <unicode hex="006E"/>
  <outline>
    <contour>
      <point x="837" y="0" type="line"/>
      <point x="712" y="0" type="line"/>
      <point x="850" y="595" type="line"/>
      <point x="865" y="664"/>
      <point x="865" y="715" type="qcurve" smooth="yes"/>
      <point x="865" y="882"/>
      <point x="704" y="882" type="qcurve" smooth="yes"/>
      <point x="636" y="882"/>
      <point x="508" y="825"/>
      <point x="402" y="734"/>
      <point x="328" y="618"/>
      <point x="315" y="559" type="qcurve" smooth="yes"/>
      <point x="282" y="417"/>
      <point x="218" y="140"/>
      <point x="186" y="0" type="qcurve"/>
      <point x="61" y="0" type="line"/>
      <point x="288" y="986" type="line"/>
      <point x="413" y="986" type="line"/>
      <point x="403" y="948"/>
      <point x="385" y="870"/>
      <point x="374" y="823" type="qcurve"/>
      <point x="406" y="864"/>
      <point x="488" y="931"/>
      <point x="580" y="978"/>
      <point x="677" y="1003"/>
      <point x="724" y="1003" type="qcurve" smooth="yes"/>
      <point x="858" y="1003"/>
      <point x="992" y="861"/>
      <point x="992" y="733" type="qcurve" smooth="yes"/>
      <point x="992" y="674"/>
      <point x="975" y="594" type="qcurve"/>
      <point x="909" y="310" type="line" smooth="yes"/>
      <point x="892" y="238"/>
      <point x="860" y="98"/>
      <point x="844" y="27" type="qcurve"/>
    </contour>
  </outline>
</glyph>
<glyph name="q" format="2">
  <advance width="1114"/>
  <unicode hex="0071"/>
  <outline>
    <contour>
      <point x="723" y="-434" type="line"/>
      <point x="596" y="-434" type="line"/>
      <point x="732" y="141" type="line"/>
      <point x="655" y="58"/>
      <point x="490" y="-20"/>
      <point x="387" y="-20" type="qcurve" smooth="yes"/>
      <point x="312" y="-20"/>
      <point x="200" y="32"/>
      <point x="124" y="125"/>
      <point x="86" y="255"/>
      <point x="86" y="333" type="qcurve" smooth="yes"/>
      <point x="86" y="406"/>
      <point x="118" y="563"/>
      <point x="180" y="713"/>
      <point x="269" y="847"/>
      <point x="384" y="948"/>
      <point x="523" y="1007"/>
      <point x="603" y="1007" type="qcurve" smooth="yes"/>
      <point x="812" y="1007"/>
      <point x="887" y="837" type="qcurve"/>
      <point x="892" y="857"/>
      <point x="901" y="895"/>
      <point x="906" y="914" type="qcurve" smooth="yes"/>
      <point x="925" y="986" type="line"/>
      <point x="1051" y="986" type="line"/>
      <point x="1012" y="816"/>
      <point x="934" y="482"/>
      <point x="896" y="312" type="qcurve"/>
      <point x="739" y="-362" type="line"/>
    </contour>
    <contour>
      <point x="423" y="88" type="qcurve" smooth="yes"/>
      <point x="498" y="88"/>
      <point x="625" y="150"/>
      <point x="726" y="261"/>
      <point x="801" y="414"/>
      <point x="823" y="506" type="qcurve"/>
      <point x="841" y="590"/>
      <point x="841" y="654" type="qcurve" smooth="yes"/>
      <point x="841" y="765"/>
      <point x="739" y="896"/>
      <point x="632" y="896" type="qcurve" smooth="yes"/>
      <point x="573" y="896"/>
      <point x="466" y="853"/>
      <point x="373" y="777"/>
      <point x="297" y="671"/>
      <point x="243" y="546"/>
      <point x="214" y="406"/>
      <point x="214" y="334" type="qcurve" smooth="yes"/>
      <point x="214" y="278"/>
      <point x="239" y="188"/>
      <point x="290" y="123"/>
      <point x="369" y="88"/>
    </contour>
  </outline>
</glyph>
<glyph name="s" format="2">
  <advance width="861"/>
  <unicode hex="0073"/>
  <outline>
    <contour>
      <point x="357" y="-20" type="qcurve" smooth="yes"/>
      <point x="289" y="-20"/>
      <point x="173" y="20"/>
      <point x="86" y="87"/>
      <point x="32" y="175"/>
      <point x="26" y="222" type="qcurve"/>
      <point x="144" y="268" type="line"/>
      <point x="150" y="231"/>
      <point x="186" y="168"/>
      <point x="243" y="123"/>
      <point x="322" y="98"/>
      <point x="371" y="98" type="qcurve" smooth="yes"/>
      <point x="422" y="98"/>
      <point x="508" y="130"/>
      <point x="570" y="185"/>
      <point x="604" y="258"/>
      <point x="604" y="299" type="qcurve" smooth="yes"/>
      <point x="604" y="388"/>
      <point x="509" y="424" type="qcurve" smooth="yes"/>
      <point x="476" y="436"/>
      <point x="393" y="467"/>
      <point x="358" y="480" type="qcurve"/>
      <point x="309" y="495"/>
      <point x="235" y="536"/>
      <point x="186" y="591"/>
      <point x="161" y="665"/>
      <point x="161" y="713" type="qcurve" smooth="yes"/>
      <point x="161" y="781"/>
      <point x="212" y="888"/>
      <point x="301" y="962"/>
      <point x="421" y="1001"/>
      <point x="491" y="1001" type="qcurve" smooth="yes"/>
      <point x="548" y="1001"/>
      <point x="648" y="971"/>
      <point x="728" y="919"/>
      <point x="785" y="849"/>
      <point x="799" y="809" type="qcurve"/>
      <point x="692" y="763" type="line"/>
      <point x="672" y="821"/>
      <point x="569" y="889"/>
      <point x="484" y="889" type="qcurve" smooth="yes"/>
      <point x="387" y="889"/>
      <point x="278" y="800"/>
      <point x="278" y="722" type="qcurve" smooth="yes"/>
      <point x="278" y="682"/>
      <point x="307" y="633"/>
      <point x="368" y="596"/>
      <point x="460" y="564"/>
      <point x="523" y="542" type="qcurve" smooth="yes"/>
      <point x="571" y="525"/>
      <point x="649" y="485"/>
      <point x="704" y="429"/>
      <point x="733" y="354"/>
      <point x="733" y="302" type="qcurve" smooth="yes"/>
      <point x="733" y="300"/>
      <point x="733" y="298" type="qcurve" smooth="yes"/>
      <point x="733" y="234"/>
      <point x="670" y="119"/>
      <point x="565" y="31"/>
      <point x="429" y="-20"/>
    </contour>
  </outline>
</glyph>
<glyph name="t" format="2">
  <advance width="652"/>
  <unicode hex="0074"/>
  <outline>
    <contour>
      <point x="330" y="-21" type="qcurve"/>
      <point x="230" y="-21"/>
      <point x="137" y="68"/>
      <point x="137" y="156" type="qcurve" smooth="yes"/>
      <point x="137" y="196"/>
      <point x="156" y="302"/>
      <point x="183" y="416"/>
      <point x="214" y="532"/>
      <point x="226" y="584" type="qcurve" smooth="yes"/>
      <point x="295" y="885" type="line"/>
      <point x="140" y="885" type="line"/>
      <point x="163" y="986" type="line"/>
      <point x="317" y="986" type="line"/>
      <point x="366" y="1205" type="line"/>
      <point x="525" y="1334" type="line"/>
      <point x="446" y="986" type="line"/>
      <point x="697" y="986" type="line"/>
      <point x="675" y="885" type="line"/>
      <point x="423" y="885" type="line"/>
      <point x="385" y="720"/>
      <point x="312" y="404"/>
      <point x="274" y="243" type="qcurve" smooth="yes"/>
      <point x="266" y="208"/>
      <point x="266" y="180" type="qcurve" smooth="yes"/>
      <point x="266" y="129"/>
      <point x="314" y="81"/>
      <point x="357" y="81" type="qcurve" smooth="yes"/>
      <point x="403" y="81"/>
      <point x="459" y="104" type="qcurve"/>
      <point x="444" y="-4" type="line"/>
      <point x="429" y="-9"/>
      <point x="363" y="-20"/>
    </contour>
  </outline>
</glyph>
<glyph name="y" format="2">
  <advance width="965"/>
  <unicode hex="0079"/>
  <outline>
    <contour>
      <point x="182" y="-426" type="line"/>
      <point x="48" y="-426" type="line"/>
      <point x="315" y="-1" type="line"/>
      <point x="165" y="986" type="line"/>
      <point x="303" y="986" type="line"/>
      <point x="407" y="150" type="line"/>
      <point x="890" y="986" type="line"/>
      <point x="1029" y="986" type="line"/>
    </contour>
  </outline>
</glyph>
<glyph name="braceleft" format="2">
  <advance width="595"/>
  <unicode hex="007B"/>
  <outline>
    <contour>
      <point x="352" y="-112" type="qcurve" smooth="yes"/>
      <point x="269" y="-112" type="line" smooth="yes"/>
      <point x="177" y="-112"/>
      <point x="143" y="-25" type="qcurve"/>
      <point x="127" y="-8"/>
      <point x="127" y="33" type="qcurve" smooth="yes"/>
      <point x="127" y="63"/>
      <point x="136" y="105" type="qcurve" smooth="yes"/>
      <point x="179" y="294"/>
      <point x="222" y="486"/>
      <point x="222" y="491" type="qcurve" smooth="yes"/>
      <point x="222" y="526"/>
      <point x="168" y="570"/>
      <point x="123" y="590" type="qcurve"/>
      <point x="136" y="693" type="line"/>
      <point x="202" y="708"/>
      <point x="294" y="789"/>
      <point x="308" y="851" type="qcurve" smooth="yes"/>
      <point x="320" y="903"/>
      <point x="344" y="1005"/>
      <point x="355" y="1057" type="qcurve"/>
      <point x="406" y="1276" type="line" smooth="yes"/>
      <point x="417" y="1325"/>
      <point x="453" y="1399"/>
      <point x="510" y="1447"/>
      <point x="590" y="1471"/>
      <point x="644" y="1471" type="qcurve" smooth="yes"/>
      <point x="735" y="1471" type="line"/>
      <point x="730" y="1402" type="line"/>
      <point x="722" y="1403"/>
      <point x="700" y="1404"/>
      <point x="687" y="1404" type="qcurve"/>
      <point x="621" y="1403"/>
      <point x="544" y="1363"/>
      <point x="536" y="1328" type="qcurve" smooth="yes"/>
      <point x="504" y="1188"/>
      <point x="446" y="940"/>
      <point x="420" y="828" type="qcurve" smooth="yes"/>
      <point x="412" y="792"/>
      <point x="379" y="735"/>
      <point x="323" y="688"/>
      <point x="241" y="647"/>
      <point x="186" y="628" type="qcurve"/>
      <point x="255" y="602"/>
      <point x="329" y="548"/>
      <point x="336" y="510" type="qcurve" smooth="yes"/>
      <point x="339" y="496"/>
      <point x="339" y="481" type="qcurve"/>
      <point x="338" y="477"/>
      <point x="337" y="467"/>
      <point x="335" y="460" type="qcurve" smooth="yes"/>
      <point x="315" y="379"/>
      <point x="274" y="201"/>
      <point x="252" y="101" type="qcurve"/>
      <point x="247" y="86"/>
      <point x="244" y="57"/>
      <point x="244" y="43" type="qcurve" smooth="yes"/>
      <point x="244" y="-46"/>
      <point x="345" y="-46" type="qcurve" smooth="yes"/>
      <point x="367" y="-46"/>
      <point x="387" y="-39" type="qcurve"/>
      <point x="386" y="-47"/>
      <point x="386" y="-55" type="qcurve" smooth="yes"/>
      <point x="386" y="-60"/>
      <point x="387" y="-66"/>
      <point x="387" y="-68" type="qcurve" smooth="yes"/>
      <point x="387" y="-79"/>
      <point x="382" y="-98"/>
      <point x="368" y="-112"/>
    </contour>
  </outline>
</glyph>
<glyph name="braceright" format="2">
  <advance width="595"/>
  <unicode hex="007D"/>
  <outline>
    <contour>
      <point x="-55" y="-112" type="line"/>
      <point x="-50" y="-43" type="line"/>
      <point x="-37" y="-46"/>
      <point x="-24" y="-46" type="qcurve" smooth="yes"/>
      <point x="49" y="-46"/>
      <point x="145" y="32"/>
      <point x="165" y="113" type="qcurve"/>
      <point x="248" y="473" type="line"/>
      <point x="253" y="500"/>
      <point x="283" y="545"/>
      <point x="336" y="584"/>
      <point x="416" y="619"/>
      <point x="472" y="636" type="qcurve"/>
      <point x="395" y="668"/>
      <point x="325" y="741"/>
      <point x="325" y="795" type="qcurve" smooth="yes"/>
      <point x="325" y="817"/>
      <point x="337" y="880"/>
      <point x="356" y="957"/>
      <point x="379" y="1046"/>
      <point x="391" y="1093" type="qcurve"/>
      <point x="417" y="1207"/>
      <point x="446" y="1335"/>
      <point x="448" y="1350" type="qcurve"/>
      <point x="448" y="1353"/>
      <point x="448" y="1356" type="qcurve" smooth="yes"/>
      <point x="448" y="1361"/>
      <point x="447" y="1366" type="qcurve" smooth="yes"/>
      <point x="439" y="1404"/>
      <point x="363" y="1404" type="qcurve" smooth="yes"/>
      <point x="322" y="1404"/>
      <point x="294" y="1399" type="qcurve"/>
      <point x="299" y="1471" type="line"/>
      <point x="391" y="1471" type="line" smooth="yes"/>
      <point x="557" y="1471"/>
      <point x="557" y="1335" type="qcurve" smooth="yes"/>
      <point x="557" y="1304"/>
      <point x="548" y="1264" type="qcurve" smooth="yes"/>
      <point x="453" y="852" type="line"/>
      <point x="449" y="837"/>
      <point x="444" y="808"/>
      <point x="444" y="795" type="qcurve" smooth="yes"/>
      <point x="444" y="711"/>
      <point x="539" y="689" type="qcurve"/>
      <point x="526" y="585" type="line"/>
      <point x="463" y="564"/>
      <point x="372" y="500"/>
      <point x="362" y="458" type="qcurve" smooth="yes"/>
      <point x="320" y="275" type="line" smooth="yes"/>
      <point x="309" y="230"/>
      <point x="287" y="134"/>
      <point x="264" y="46"/>
      <point x="239" y="-25"/>
      <point x="224" y="-46" type="qcurve"/>
      <point x="201" y="-64"/>
      <point x="163" y="-89"/>
      <point x="124" y="-105"/>
      <point x="83" y="-112"/>
      <point x="59" y="-112" type="qcurve" smooth="yes"/>
    </contour>
  </outline>
</glyph>
<glyph name="asciitilde" format="2">
  <advance width="1157"/>
  <unicode hex="007E"/>
  <outline>
    <contour>
      <point x="735" y="375" type="qcurve" smooth="yes"/>
      <point x="685" y="375"/>
      <point x="645" y="399" type="qcurve"/>
      <point x="630" y="406"/>
      <point x="581" y="448"/>
      <point x="527" y="496"/>
      <point x="477" y="538"/>
      <point x="461" y="546" type="qcurve"/>
      <point x="448" y="554"/>
      <point x="419" y="560"/>
      <point x="405" y="560" type="qcurve" smooth="yes"/>
      <point x="352" y="560"/>
      <point x="302" y="480"/>
      <point x="302" y="402" type="qcurve"/>
      <point x="220" y="402" type="line"/>
      <point x="220" y="452"/>
      <point x="243" y="540"/>
      <point x="289" y="605"/>
      <point x="358" y="642"/>
      <point x="403" y="642" type="qcurve" smooth="yes"/>
      <point x="438" y="642"/>
      <point x="488" y="631"/>
      <point x="533" y="606"/>
      <point x="579" y="566"/>
      <point x="609" y="537" type="qcurve"/>
      <point x="647" y="498"/>
      <point x="703" y="461"/>
      <point x="742" y="461" type="qcurve" smooth="yes"/>
      <point x="799" y="461"/>
      <point x="849" y="548"/>
      <point x="849" y="636" type="qcurve"/>
      <point x="939" y="636" type="line"/>
      <point x="939" y="511"/>
      <point x="833" y="375"/>
    </contour>
  </outline>
</glyph>
<glyph name="exclamdown" format="2">
  <advance width="629"/>
  <unicode hex="00A1"/>
  <outline>
    <contour>
      <point x="474" y="812" type="line"/>
      <point x="298" y="812" type="line"/>
      <point x="338" y="986" type="line"/>
      <point x="514" y="986" type="line"/>
    </contour>
    <contour>
      <point x="175" y="-432" type="line"/>
      <point x="22" y="-432" type="line"/>
      <point x="295" y="619" type="line"/>
      <point x="390" y="619" type="line"/>
    </contour>
  </outline>
</glyph>
<glyph name="section" format="2">
  <advance width="1124"/>
  <unicode hex="00A7"/>
  <outline>
    <contour>
      <point x="460" y="-18" type="qcurve" smooth="yes"/>
      <point x="386" y="-18"/>
      <point x="265" y="17"/>
      <point x="176" y="87"/>
      <point x="123" y="193"/>
      <point x="118" y="264" type="qcurve"/>
      <point x="239" y="292" type="line"/>
      <point x="240" y="191"/>
      <point x="351" y="95"/>
      <point x="465" y="95" type="qcurve" smooth="yes"/>
      <point x="524" y="95"/>
      <point x="625" y="119"/>
      <point x="703" y="168"/>
      <point x="755" y="243"/>
      <point x="764" y="293" type="qcurve" smooth="yes"/>
      <point x="765" y="298"/>
      <point x="766" y="308"/>
      <point x="766" y="313" type="qcurve" smooth="yes"/>
      <point x="766" y="346"/>
      <point x="730" y="389"/>
      <point x="670" y="417"/>
      <point x="590" y="436"/>
      <point x="545" y="445" type="qcurve" smooth="yes"/>
      <point x="507" y="452"/>
      <point x="437" y="472"/>
      <point x="376" y="495"/>
      <point x="329" y="522"/>
      <point x="314" y="538" type="qcurve"/>
      <point x="316" y="537"/>
      <point x="316" y="537" type="qcurve"/>
      <point x="264" y="588"/>
      <point x="264" y="661" type="qcurve" smooth="yes"/>
      <point x="264" y="697"/>
      <point x="285" y="773"/>
      <point x="327" y="846"/>
      <point x="388" y="914"/>
      <point x="428" y="943" type="qcurve"/>
      <point x="396" y="966"/>
      <point x="364" y="1039"/>
      <point x="364" y="1086" type="qcurve" smooth="yes"/>
      <point x="364" y="1163"/>
      <point x="438" y="1286"/>
      <point x="553" y="1371"/>
      <point x="693" y="1417"/>
      <point x="759" y="1417" type="qcurve" smooth="yes"/>
      <point x="891" y="1417"/>
      <point x="1048" y="1285"/>
      <point x="1068" y="1156" type="qcurve"/>
      <point x="946" y="1137" type="line"/>
      <point x="937" y="1303"/>
      <point x="752" y="1303" type="qcurve" smooth="yes"/>
      <point x="704" y="1303"/>
      <point x="605" y="1272"/>
      <point x="525" y="1215"/>
      <point x="475" y="1135"/>
      <point x="475" y="1086" type="qcurve" smooth="yes"/>
      <point x="475" y="1060"/>
      <point x="496" y="1024"/>
      <point x="544" y="997"/>
      <point x="623" y="975"/>
      <point x="682" y="962" type="qcurve" smooth="yes"/>
      <point x="761" y="946"/>
      <point x="873" y="910"/>
      <point x="944" y="859"/>
      <point x="977" y="789"/>
      <point x="977" y="739" type="qcurve" smooth="yes"/>
      <point x="977" y="700"/>
      <point x="955" y="621"/>
      <point x="914" y="547"/>
      <point x="855" y="483"/>
      <point x="819" y="459" type="qcurve"/>
      <point x="880" y="407"/>
      <point x="880" y="320" type="qcurve" smooth="yes"/>
      <point x="880" y="239"/>
      <point x="809" y="113"/>
      <point x="692" y="27"/>
      <point x="540" y="-18"/>
    </contour>
    <contour>
      <point x="691" y="516" type="qcurve"/>
      <point x="826" y="568"/>
      <point x="857" y="692" type="qcurve"/>
      <point x="859" y="703" type="line" smooth="yes"/>
      <point x="860" y="708"/>
      <point x="862" y="719"/>
      <point x="862" y="725" type="qcurve" smooth="yes"/>
      <point x="862" y="728"/>
      <point x="863" y="732"/>
      <point x="863" y="733" type="qcurve"/>
      <point x="863" y="735"/>
      <point x="862" y="737" type="qcurve"/>
      <point x="860" y="775"/>
      <point x="813" y="825"/>
      <point x="742" y="857"/>
      <point x="659" y="875"/>
      <point x="620" y="882" type="qcurve" smooth="yes"/>
      <point x="588" y="888" type="line" smooth="yes"/>
      <point x="573" y="891"/>
      <point x="561" y="894" type="qcurve"/>
      <point x="525" y="880"/>
      <point x="460" y="837"/>
      <point x="410" y="782"/>
      <point x="380" y="717"/>
      <point x="380" y="682" type="qcurve" smooth="yes"/>
      <point x="380" y="650"/>
      <point x="412" y="603"/>
      <point x="474" y="568"/>
      <point x="565" y="542"/>
      <point x="624" y="531" type="qcurve" smooth="yes"/>
      <point x="644" y="527"/>
      <point x="677" y="521"/>
    </contour>
  </outline>
</glyph>
<glyph name="dieresis" format="2">
  <advance width="824"/>
  <unicode hex="00A8"/>
  <outline>
    <contour>
      <point x="484" y="1215" type="line"/>
      <point x="328" y="1215" type="line"/>
      <point x="370" y="1396" type="line"/>
      <point x="527" y="1396" type="line"/>
    </contour>
    <contour>
      <point x="814" y="1215" type="line"/>
      <point x="657" y="1215" type="line"/>
      <point x="699" y="1396" type="line"/>
      <point x="855" y="1396" type="line"/>
    </contour>
  </outline>
</glyph>
<glyph name="copyright" format="2">
  <advance width="1788"/>
  <unicode hex="00A9"/>
  <outline>
    <contour>
      <point x="940" y="-51" type="qcurve" smooth="yes"/>
      <point x="837" y="-51"/>
      <point x="647" y="4"/>
      <point x="484" y="103"/>
      <point x="350" y="241"/>
      <point x="256" y="407"/>
      <point x="204" y="597"/>
      <point x="204" y="698" type="qcurve" smooth="yes"/>
      <point x="204" y="800"/>
      <point x="257" y="991"/>
      <point x="353" y="1157"/>
      <point x="487" y="1295"/>
      <point x="651" y="1393"/>
      <point x="839" y="1447"/>
      <point x="940" y="1447" type="qcurve" smooth="yes"/>
      <point x="1042" y="1447"/>
      <point x="1231" y="1392"/>
      <point x="1394" y="1292"/>
      <point x="1529" y="1154"/>
      <point x="1624" y="987"/>
      <point x="1677" y="798"/>
      <point x="1677" y="698" type="qcurve" smooth="yes"/>
      <point x="1677" y="593"/>
      <point x="1622" y="400"/>
      <point x="1524" y="234"/>
      <point x="1388" y="98"/>
      <point x="1224" y="2"/>
      <point x="1038" y="-51"/>
    </contour>
    <contour>
      <point x="940" y="51" type="qcurve" smooth="yes"/>
      <point x="1026" y="51"/>
      <point x="1187" y="99"/>
      <point x="1329" y="185"/>
      <point x="1445" y="305"/>
      <point x="1529" y="449"/>
      <point x="1575" y="612"/>
      <point x="1575" y="698" type="qcurve" smooth="yes"/>
      <point x="1575" y="783"/>
      <point x="1529" y="945"/>
      <point x="1446" y="1089"/>
      <point x="1329" y="1209"/>
      <point x="1188" y="1296"/>
      <point x="1027" y="1345"/>
      <point x="940" y="1345" type="qcurve" smooth="yes"/>
      <point x="851" y="1345"/>
      <point x="688" y="1296"/>
      <point x="547" y="1209"/>
      <point x="431" y="1088"/>
      <point x="349" y="944"/>
      <point x="304" y="782"/>
      <point x="304" y="698" type="qcurve" smooth="yes"/>
      <point x="304" y="611"/>
      <point x="351" y="447"/>
      <point x="435" y="304"/>
      <point x="552" y="184"/>
      <point x="693" y="99"/>
      <point x="854" y="51"/>
    </contour>
    <contour>
      <point x="957" y="304" type="qcurve" smooth="yes"/>
      <point x="875" y="304"/>
      <point x="748" y="362"/>
      <point x="661" y="466"/>
      <point x="616" y="610"/>
      <point x="616" y="696" type="qcurve" smooth="yes"/>
      <point x="616" y="778"/>
      <point x="660" y="922"/>
      <point x="746" y="1027"/>
      <point x="873" y="1088"/>
      <point x="957" y="1088" type="qcurve" smooth="yes"/>
      <point x="1051" y="1088"/>
      <point x="1208" y="996"/>
      <point x="1250" y="913" type="qcurve"/>
      <point x="1157" y="874" type="line"/>
      <point x="1129" y="926"/>
      <point x="1022" y="987"/>
      <point x="957" y="987" type="qcurve" smooth="yes"/>
      <point x="898" y="987"/>
      <point x="807" y="943"/>
      <point x="745" y="865"/>
      <point x="713" y="758"/>
      <point x="713" y="696" type="qcurve" smooth="yes"/>
      <point x="713" y="634"/>
      <point x="744" y="529"/>
      <point x="805" y="451"/>
      <point x="895" y="407"/>
      <point x="955" y="407" type="qcurve" smooth="yes"/>
      <point x="1021" y="407"/>
      <point x="1129" y="467"/>
      <point x="1155" y="521" type="qcurve"/>
      <point x="1250" y="481" type="line"/>
      <point x="1210" y="397"/>
      <point x="1054" y="304"/>
    </contour>
  </outline>
</glyph>
<glyph name="macron" format="2">
  <advance width="866"/>
  <unicode hex="00AF"/>
  <outline>
    <contour>
      <point x="965" y="1179" type="line"/>
      <point x="436" y="1179" type="line"/>
      <point x="463" y="1296" type="line"/>
      <point x="992" y="1296" type="line"/>
    </contour>
  </outline>
</glyph>
<glyph name="plusminus" format="2">
  <advance width="1312"/>
  <unicode hex="00B1"/>
  <outline>
    <contour>
      <point x="704" y="105" type="line"/>
      <point x="608" y="105" type="line"/>
      <point x="608" y="571" type="line"/>
      <point x="156" y="571" type="line"/>
      <point x="156" y="666" type="line"/>
      <point x="608" y="666" type="line"/>
      <point x="608" y="1129" type="line"/>
      <point x="704" y="1129" type="line"/>
      <point x="704" y="666" type="line"/>
      <point x="1156" y="666" type="line"/>
      <point x="1156" y="571" type="line"/>
      <point x="704" y="571" type="line"/>
    </contour>
    <contour>
      <point x="1156" y="-99" type="line"/>
      <point x="156" y="-99" type="line"/>
      <point x="156" y="-3" type="line"/>
      <point x="1156" y="-3" type="line"/>
    </contour>
  </outline>
</glyph>
<glyph name="twosuperior" format="2">
  <advance width="806"/>
  <unicode hex="00B2"/>
  <outline>
    <contour>
      <point x="609" y="482" type="line"/>
      <point x="-25" y="482" type="line"/>
      <point x="-6" y="575" type="line"/>
      <point x="58" y="610"/>
      <point x="161" y="673"/>
      <point x="248" y="732"/>
      <point x="322" y="791"/>
      <point x="357" y="823" type="qcurve"/>
      <point x="416" y="871"/>
      <point x="511" y="961"/>
      <point x="581" y="1049"/>
      <point x="623" y="1139"/>
      <point x="629" y="1187" type="qcurve"/>
      <point x="633" y="1205"/>
      <point x="633" y="1220" type="qcurve" smooth="yes"/>
      <point x="633" y="1233"/>
      <point x="630" y="1244" type="qcurve"/>
      <point x="624" y="1294"/>
      <point x="553" y="1343"/>
      <point x="501" y="1343" type="qcurve" smooth="yes"/>
      <point x="457" y="1343"/>
      <point x="379" y="1310"/>
      <point x="315" y="1250"/>
      <point x="266" y="1165"/>
      <point x="252" y="1113" type="qcurve"/>
      <point x="168" y="1127" type="line"/>
      <point x="183" y="1191"/>
      <point x="245" y="1301"/>
      <point x="333" y="1383"/>
      <point x="446" y="1430"/>
      <point x="512" y="1430" type="qcurve" smooth="yes"/>
      <point x="618" y="1430"/>
      <point x="735" y="1327"/>
      <point x="735" y="1236" type="qcurve" smooth="yes"/>
      <point x="735" y="1165"/>
      <point x="675" y="1025"/>
      <point x="558" y="884"/>
      <point x="385" y="738"/>
      <point x="273" y="660" type="qcurve"/>
      <point x="231" y="632" type="line" smooth="yes"/>
      <point x="206" y="616"/>
      <point x="155" y="586"/>
      <point x="128" y="572" type="qcurve" smooth="yes"/>
      <point x="123" y="570"/>
      <point x="115" y="565"/>
      <point x="111" y="562" type="qcurve"/>
      <point x="627" y="564" type="line"/>
    </contour>
  </outline>
</glyph>
<glyph name="periodcentered" format="2">
  <advance width="651"/>
  <unicode hex="00B7"/>
  <outline>
    <contour>
      <point x="384" y="701" type="qcurve" smooth="yes"/>
      <point x="339" y="701"/>
      <point x="283" y="757"/>
      <point x="283" y="800" type="qcurve" smooth="yes"/>
      <point x="283" y="830"/>
      <point x="306" y="880"/>
      <point x="343" y="916"/>
      <point x="391" y="936"/>
      <point x="417" y="936" type="qcurve" smooth="yes"/>
      <point x="462" y="936"/>
      <point x="519" y="882"/>
      <point x="519" y="837" type="qcurve" smooth="yes"/>
      <point x="519" y="813"/>
      <point x="498" y="764"/>
      <point x="462" y="725"/>
      <point x="412" y="701"/>
    </contour>
  </outline>
</glyph>
<glyph name="guillemotright" format="2">
  <advance width="966"/>
  <unicode hex="00BB"/>
  <outline>
    <contour>
      <point x="101" y="191" type="line"/>
      <point x="132" y="337" type="line"/>
      <point x="367" y="505" type="line"/>
      <point x="213" y="671" type="line"/>
      <point x="243" y="818" type="line"/>
      <point x="522" y="506" type="line"/>
      <point x="432" y="438"/>
      <point x="255" y="305"/>
      <point x="165" y="238" type="qcurve" smooth="yes"/>
    </contour>
    <contour>
      <point x="461" y="191" type="line"/>
      <point x="491" y="337" type="line"/>
      <point x="726" y="505" type="line"/>
      <point x="572" y="671" type="line"/>
      <point x="602" y="818" type="line"/>
      <point x="883" y="506" type="line"/>
      <point x="835" y="470"/>
      <point x="786" y="434" type="qcurve" smooth="yes"/>
    </contour>
  </outline>
</glyph>
<glyph name="questiondown" format="2">
  <advance width="1026"/>
  <unicode hex="00BF"/>
  <outline>
    <contour>
      <point x="678" y="812" type="line"/>
      <point x="502" y="812" type="line"/>
      <point x="542" y="986" type="line"/>
      <point x="719" y="986" type="line"/>
    </contour>
    <contour>
      <point x="324" y="-430" type="qcurve" smooth="yes"/>
      <point x="251" y="-430"/>
      <point x="127" y="-395"/>
      <point x="36" y="-326"/>
      <point x="-15" y="-225"/>
      <point x="-15" y="-158" type="qcurve" smooth="yes"/>
      <point x="-15" y="-113"/>
      <point x="5" y="-25"/>
      <point x="41" y="54"/>
      <point x="93" y="120"/>
      <point x="125" y="144" type="qcurve" smooth="yes"/>
      <point x="152" y="163"/>
      <point x="218" y="201"/>
      <point x="283" y="235"/>
      <point x="339" y="265"/>
      <point x="356" y="277" type="qcurve" smooth="yes"/>
      <point x="421" y="322"/>
      <point x="437" y="391" type="qcurve" smooth="yes"/>
      <point x="491" y="623" type="line"/>
      <point x="609" y="623" type="line"/>
      <point x="582" y="503" type="line" smooth="yes"/>
      <point x="567" y="440"/>
      <point x="543" y="341"/>
      <point x="498" y="258"/>
      <point x="420" y="188"/>
      <point x="352" y="154" type="qcurve" smooth="yes"/>
      <point x="304" y="131"/>
      <point x="235" y="91"/>
      <point x="213" y="74" type="qcurve" smooth="yes"/>
      <point x="189" y="56"/>
      <point x="150" y="5"/>
      <point x="121" y="-55"/>
      <point x="106" y="-121"/>
      <point x="106" y="-154" type="qcurve" smooth="yes"/>
      <point x="106" y="-196"/>
      <point x="138" y="-257"/>
      <point x="195" y="-297"/>
      <point x="275" y="-316"/>
      <point x="322" y="-316" type="qcurve" smooth="yes"/>
      <point x="380" y="-316"/>
      <point x="490" y="-280"/>
      <point x="581" y="-214"/>
      <point x="649" y="-120"/>
      <point x="665" y="-62" type="qcurve"/>
      <point x="787" y="-75" type="line"/>
      <point x="766" y="-157"/>
      <point x="677" y="-289"/>
      <point x="554" y="-381"/>
      <point x="405" y="-430"/>
    </contour>
  </outline>
</glyph>
<glyph name="Aring" format="2">
  <advance width="1297"/>
  <unicode hex="00C5"/>
  <outline>
    <contour>
      <point x="1101" y="0" type="line"/>
      <point x="971" y="0" type="line"/>
      <point x="935" y="304" type="line"/>
      <point x="291" y="304" type="line"/>
      <point x="115" y="0" type="line"/>
      <point x="-35" y="0" type="line"/>
      <point x="767" y="1326" type="line"/>
      <point x="729" y="1346"/>
      <point x="686" y="1419"/>
      <point x="686" y="1468" type="qcurve" smooth="yes"/>
      <point x="686" y="1513"/>
      <point x="723" y="1597"/>
      <point x="786" y="1662"/>
      <point x="869" y="1700"/>
      <point x="915" y="1700" type="qcurve" smooth="yes"/>
      <point x="949" y="1700"/>
      <point x="1009" y="1676"/>
      <point x="1054" y="1634"/>
      <point x="1081" y="1575"/>
      <point x="1081" y="1540" type="qcurve" smooth="yes"/>
      <point x="1081" y="1506"/>
      <point x="1058" y="1441"/>
      <point x="1017" y="1384"/>
      <point x="959" y="1340"/>
      <point x="925" y="1327" type="qcurve"/>
    </contour>
    <contour>
      <point x="856" y="1404" type="qcurve"/>
      <point x="880" y="1404"/>
      <point x="926" y="1424"/>
      <point x="963" y="1459"/>
      <point x="985" y="1505"/>
      <point x="985" y="1531" type="qcurve" smooth="yes"/>
      <point x="985" y="1563"/>
      <point x="941" y="1604"/>
      <point x="905" y="1604" type="qcurve" smooth="yes"/>
      <point x="876" y="1604"/>
      <point x="830" y="1582"/>
      <point x="796" y="1546"/>
      <point x="778" y="1502"/>
      <point x="778" y="1480" type="qcurve" smooth="yes"/>
      <point x="778" y="1409"/>
    </contour>
    <contour>
      <point x="918" y="430" type="line"/>
      <point x="827" y="1217" type="line"/>
      <point x="608" y="843" type="line" smooth="yes"/>
      <point x="547" y="740"/>
      <point x="426" y="535"/>
      <point x="365" y="430" type="qcurve"/>
    </contour>
  </outline>
</glyph>
<glyph name="Eth" format="2">
  <advance width="1416"/>
  <unicode hex="00D0"/>
  <outline>
    <contour>
      <point x="479" y="0" type="qcurve" smooth="yes"/>
      <point x="124" y="0" type="line"/>
      <point x="274" y="655" type="line"/>
      <point x="162" y="655" type="line"/>
      <point x="168" y="679"/>
      <point x="181" y="728"/>
      <point x="186" y="753" type="qcurve"/>
      <point x="298" y="753" type="line"/>
      <point x="446" y="1396" type="line"/>
      <point x="793" y="1396" type="line" smooth="yes"/>
      <point x="1068" y="1396"/>
      <point x="1354" y="1147"/>
      <point x="1354" y="908" type="qcurve" smooth="yes"/>
      <point x="1354" y="831"/>
      <point x="1325" y="666"/>
      <point x="1272" y="507"/>
      <point x="1200" y="361"/>
      <point x="1157" y="304" type="qcurve" smooth="yes"/>
      <point x="1039" y="150"/>
      <point x="698" y="0"/>
    </contour>
    <contour>
      <point x="474" y="128" type="line" smooth="yes"/>
      <point x="602" y="128"/>
      <point x="833" y="202"/>
      <point x="1020" y="348"/>
      <point x="1156" y="566"/>
      <point x="1189" y="711" type="qcurve" smooth="yes"/>
      <point x="1213" y="817"/>
      <point x="1213" y="899" type="qcurve" smooth="yes"/>
      <point x="1213" y="1083"/>
      <point x="990" y="1270"/>
      <point x="770" y="1270" type="qcurve" smooth="yes"/>
      <point x="560" y="1270" type="line"/>
      <point x="441" y="753" type="line"/>
      <point x="818" y="753" type="line"/>
      <point x="806" y="704" type="line"/>
      <point x="798" y="679"/>
      <point x="794" y="655" type="qcurve"/>
      <point x="416" y="655" type="line"/>
      <point x="295" y="128" type="line"/>
    </contour>
  </outline>
</glyph>
<glyph name="ae" format="2">
  <advance width="1651"/>
  <unicode hex="00E6"/>
  <outline>
    <contour>
      <point x="737" y="269" type="qcurve"/>
      <point x="702" y="202"/>
      <point x="609" y="95"/>
      <point x="495" y="20"/>
      <point x="360" y="-20"/>
      <point x="284" y="-20" type="qcurve" smooth="yes"/>
      <point x="224" y="-20"/>
      <point x="125" y="17"/>
      <point x="57" y="85"/>
      <point x="29" y="167"/>
      <point x="29" y="207" type="qcurve" smooth="yes"/>
      <point x="29" y="221"/>
      <point x="31" y="237" type="qcurve" smooth="yes"/>
      <point x="38" y="317"/>
      <point x="104" y="437"/>
      <point x="212" y="517"/>
      <point x="360" y="557"/>
      <point x="449" y="557" type="qcurve" smooth="yes"/>
      <point x="769" y="557" type="line"/>
      <point x="777" y="597"/>
      <point x="786" y="663"/>
      <point x="786" y="691" type="qcurve" smooth="yes"/>
      <point x="786" y="694"/>
      <point x="786" y="697" type="qcurve" smooth="yes"/>
      <point x="786" y="899"/>
      <point x="587" y="899" type="qcurve" smooth="yes"/>
      <point x="542" y="899"/>
      <point x="454" y="875"/>
      <point x="376" y="834"/>
      <point x="308" y="781"/>
      <point x="283" y="752" type="qcurve"/>
      <point x="195" y="821" type="line"/>
      <point x="286" y="915"/>
      <point x="485" y="1003"/>
      <point x="606" y="1003" type="qcurve" smooth="yes"/>
      <point x="733" y="1003"/>
      <point x="871" y="901"/>
      <point x="888" y="807" type="qcurve"/>
      <point x="888" y="805" type="line"/>
      <point x="963" y="902"/>
      <point x="1144" y="999"/>
      <point x="1256" y="999" type="qcurve" smooth="yes"/>
      <point x="1341" y="999"/>
      <point x="1466" y="955"/>
      <point x="1548" y="872"/>
      <point x="1587" y="753"/>
      <point x="1587" y="678" type="qcurve"/>
      <point x="1586" y="643"/>
      <point x="1577" y="578"/>
      <point x="1565" y="522"/>
      <point x="1555" y="479"/>
      <point x="1553" y="466" type="qcurve"/>
      <point x="1551" y="461"/>
      <point x="1548" y="454"/>
      <point x="1546" y="451" type="qcurve"/>
      <point x="858" y="451" type="line"/>
      <point x="843" y="392"/>
      <point x="843" y="339" type="qcurve" smooth="yes"/>
      <point x="843" y="335"/>
      <point x="843" y="332" type="qcurve" smooth="yes"/>
      <point x="843" y="281"/>
      <point x="871" y="196"/>
      <point x="929" y="133"/>
      <point x="1015" y="99"/>
      <point x="1071" y="99" type="qcurve" smooth="yes"/>
      <point x="1123" y="99"/>
      <point x="1210" y="111"/>
      <point x="1285" y="136"/>
      <point x="1353" y="176"/>
      <point x="1386" y="204" type="qcurve"/>
      <point x="1459" y="132" type="line"/>
      <point x="1410" y="93"/>
      <point x="1318" y="38"/>
      <point x="1222" y="3"/>
      <point x="1119" y="-12"/>
      <point x="1061" y="-12" type="qcurve" smooth="yes"/>
      <point x="927" y="-12"/>
      <point x="758" y="115"/>
      <point x="742" y="230" type="qcurve"/>
      <point x="740" y="240"/>
      <point x="738" y="259"/>
    </contour>
    <contour>
      <point x="1454" y="560" type="line"/>
      <point x="1461" y="594"/>
      <point x="1463" y="623" type="qcurve"/>
      <point x="1466" y="649"/>
      <point x="1466" y="673" type="qcurve" smooth="yes"/>
      <point x="1466" y="759"/>
      <point x="1369" y="885"/>
      <point x="1242" y="885" type="qcurve" smooth="yes"/>
      <point x="1176" y="885"/>
      <point x="1059" y="835"/>
      <point x="965" y="748"/>
      <point x="898" y="629"/>
      <point x="882" y="560" type="qcurve"/>
    </contour>
    <contour>
      <point x="336" y="89" type="qcurve" smooth="yes"/>
      <point x="401" y="89"/>
      <point x="528" y="142"/>
      <point x="636" y="231"/>
      <point x="717" y="347"/>
      <point x="735" y="410" type="qcurve" smooth="yes"/>
      <point x="737" y="418"/>
      <point x="743" y="438"/>
      <point x="748" y="451" type="qcurve"/>
      <point x="431" y="451" type="line" smooth="yes"/>
      <point x="386" y="451"/>
      <point x="296" y="424"/>
      <point x="221" y="373"/>
      <point x="170" y="296"/>
      <point x="165" y="245" type="qcurve" smooth="yes"/>
      <point x="164" y="237"/>
      <point x="164" y="229" type="qcurve" smooth="yes"/>
      <point x="164" y="205"/>
      <point x="185" y="155"/>
      <point x="233" y="113"/>
      <point x="298" y="89"/>
    </contour>
  </outline>
</glyph>
<glyph name="oslash" format="2">
  <advance width="1113"/>
  <unicode hex="00F8"/>
  <outline>
    <contour>
      <point x="236" y="38" type="qcurve"/>
      <point x="207" y="1" type="line"/>
      <point x="126" y="1" type="line"/>
      <point x="187" y="78" type="line"/>
      <point x="132" y="133"/>
      <point x="80" y="283"/>
      <point x="80" y="363" type="qcurve" smooth="yes"/>
      <point x="80" y="372"/>
      <point x="80" y="381" type="qcurve"/>
      <point x="83" y="459"/>
      <point x="127" y="612"/>
      <point x="204" y="749"/>
      <point x="309" y="866"/>
      <point x="436" y="951"/>
      <point x="581" y="999"/>
      <point x="659" y="999" type="qcurve" smooth="yes"/>
      <point x="780" y="999"/>
      <point x="869" y="940" type="qcurve"/>
      <point x="905" y="986" type="line"/>
      <point x="986" y="986" type="line"/>
      <point x="918" y="900" type="line"/>
      <point x="972" y="845"/>
      <point x="1025" y="700"/>
      <point x="1025" y="619" type="qcurve" smooth="yes"/>
      <point x="1025" y="608"/>
      <point x="1025" y="596" type="qcurve"/>
      <point x="1022" y="518"/>
      <point x="978" y="367"/>
      <point x="901" y="230"/>
      <point x="795" y="113"/>
      <point x="668" y="28"/>
      <point x="523" y="-20"/>
      <point x="445" y="-20" type="qcurve" smooth="yes"/>
      <point x="324" y="-20"/>
    </contour>
    <contour>
      <point x="266" y="178" type="qcurve"/>
      <point x="794" y="847" type="line"/>
      <point x="737" y="883"/>
      <point x="652" y="883" type="qcurve" smooth="yes"/>
      <point x="577" y="883"/>
      <point x="442" y="823"/>
      <point x="332" y="716"/>
      <point x="251" y="569"/>
      <point x="230" y="482" type="qcurve" smooth="yes"/>
      <point x="215" y="421"/>
      <point x="215" y="370" type="qcurve" smooth="yes"/>
      <point x="215" y="316"/>
      <point x="232" y="273" type="qcurve"/>
      <point x="238" y="215"/>
    </contour>
    <contour>
      <point x="312" y="133" type="line"/>
      <point x="368" y="96"/>
      <point x="453" y="96" type="qcurve" smooth="yes"/>
      <point x="542" y="96"/>
      <point x="699" y="179"/>
      <point x="818" y="322"/>
      <point x="890" y="512"/>
      <point x="893" y="619" type="qcurve"/>
      <point x="893" y="625"/>
      <point x="893" y="631" type="qcurve" smooth="yes"/>
      <point x="893" y="735"/>
      <point x="842" y="803" type="qcurve"/>
    </contour>
  </outline>
</glyph>
<glyph name="dcaron" format="2">
  <advance width="1224"/>
  <unicode hex="010F"/>
  <outline>
    <contour>
      <point x="388" y="-20" type="qcurve" smooth="yes"/>
      <point x="314" y="-20"/>
      <point x="201" y="31"/>
      <point x="126" y="124"/>
      <point x="88" y="253"/>
      <point x="88" y="332" type="qcurve" smooth="yes"/>
      <point x="88" y="404"/>
      <point x="120" y="560"/>
      <point x="181" y="710"/>
      <point x="270" y="845"/>
      <point x="384" y="947"/>
      <point x="523" y="1007"/>
      <point x="603" y="1007" type="qcurve" smooth="yes"/>
      <point x="812" y="1007"/>
      <point x="889" y="837" type="qcurve"/>
      <point x="1021" y="1396" type="line"/>
      <point x="1147" y="1396" type="line"/>
      <point x="825" y="0" type="line"/>
      <point x="700" y="0" type="line"/>
      <point x="734" y="141" type="line"/>
      <point x="696" y="100"/>
      <point x="618" y="40"/>
      <point x="534" y="0"/>
      <point x="441" y="-20"/>
    </contour>
    <contour>
      <point x="1270" y="1019" type="line"/>
      <point x="1170" y="1019" type="line"/>
      <point x="1217" y="1113"/>
      <point x="1309" y="1300"/>
      <point x="1356" y="1396" type="qcurve"/>
      <point x="1558" y="1396" type="line"/>
    </contour>
    <contour>
      <point x="427" y="94" type="qcurve" smooth="yes"/>
      <point x="502" y="94"/>
      <point x="630" y="156"/>
      <point x="732" y="265"/>
      <point x="805" y="416"/>
      <point x="825" y="506" type="qcurve" smooth="yes"/>
      <point x="843" y="584"/>
      <point x="843" y="651" type="qcurve" smooth="yes"/>
      <point x="843" y="761"/>
      <point x="739" y="890"/>
      <point x="632" y="890" type="qcurve" smooth="yes"/>
      <point x="556" y="890"/>
      <point x="428" y="827"/>
      <point x="327" y="717"/>
      <point x="254" y="567"/>
      <point x="235" y="481" type="qcurve"/>
      <point x="225" y="443"/>
      <point x="215" y="371"/>
      <point x="215" y="336" type="qcurve" smooth="yes"/>
      <point x="215" y="223"/>
      <point x="320" y="94"/>
    </contour>
  </outline>
</glyph>
<glyph name="Dcroat" format="2">
  <advance width="1413"/>
  <unicode hex="0110"/>
  <outline>
    <contour>
      <point x="479" y="0" type="qcurve" smooth="yes"/>
      <point x="124" y="0" type="line"/>
      <point x="274" y="655" type="line"/>
      <point x="162" y="655" type="line"/>
      <point x="168" y="679"/>
      <point x="181" y="728"/>
      <point x="186" y="753" type="qcurve"/>
      <point x="298" y="753" type="line"/>
      <point x="446" y="1396" type="line"/>
      <point x="793" y="1396" type="line" smooth="yes"/>
      <point x="929" y="1396"/>
      <point x="1139" y="1333"/>
      <point x="1281" y="1210"/>
      <point x="1354" y="1027"/>
      <point x="1354" y="908" type="qcurve" smooth="yes"/>
      <point x="1354" y="832"/>
      <point x="1325" y="667"/>
      <point x="1272" y="507"/>
      <point x="1200" y="361"/>
      <point x="1157" y="304" type="qcurve" smooth="yes"/>
      <point x="1039" y="151"/>
      <point x="698" y="0"/>
    </contour>
    <contour>
      <point x="474" y="128" type="line" smooth="yes"/>
      <point x="602" y="128"/>
      <point x="833" y="202"/>
      <point x="1020" y="348"/>
      <point x="1156" y="567"/>
      <point x="1189" y="711" type="qcurve" smooth="yes"/>
      <point x="1213" y="817"/>
      <point x="1213" y="899" type="qcurve" smooth="yes"/>
      <point x="1213" y="1083"/>
      <point x="990" y="1270"/>
      <point x="770" y="1270" type="qcurve" smooth="yes"/>
      <point x="560" y="1270" type="line"/>
      <point x="441" y="753" type="line"/>
      <point x="818" y="753" type="line"/>
      <point x="806" y="704" type="line"/>
      <point x="798" y="679"/>
      <point x="794" y="655" type="qcurve"/>
      <point x="416" y="655" type="line"/>
      <point x="295" y="128" type="line"/>
    </contour>
  </outline>
</glyph>
<glyph name="Iogonek" format="2">
  <advance width="577"/>
  <unicode hex="012E"/>
  <outline>
    <contour>
      <point x="21" y="-447" type="qcurve" smooth="yes"/>
      <point x="-53" y="-447"/>
      <point x="-144" y="-362"/>
      <point x="-144" y="-287" type="qcurve" smooth="yes"/>
      <point x="-144" y="-238"/>
      <point x="-104" y="-149"/>
      <point x="-31" y="-75"/>
      <point x="71" y="-18"/>
      <point x="133" y="0" type="qcurve"/>
      <point x="107" y="0" type="line"/>
      <point x="187" y="350"/>
      <point x="348" y="1044"/>
      <point x="429" y="1396" type="qcurve"/>
      <point x="564" y="1396" type="line"/>
      <point x="483" y="1045"/>
      <point x="323" y="351"/>
      <point x="243" y="0" type="qcurve"/>
      <point x="229" y="0" type="line" smooth="yes"/>
      <point x="215" y="0"/>
      <point x="189" y="-10" type="qcurve"/>
      <point x="192" y="-10"/>
      <point x="194" y="-10" type="qcurve"/>
      <point x="205" y="-11" type="line"/>
      <point x="208" y="-11"/>
      <point x="210" y="-11" type="qcurve"/>
      <point x="176" y="-26"/>
      <point x="92" y="-74"/>
      <point x="17" y="-138"/>
      <point x="-39" y="-216"/>
      <point x="-45" y="-261" type="qcurve"/>
      <point x="-45" y="-266"/>
      <point x="-45" y="-270" type="qcurve" smooth="yes"/>
      <point x="-45" y="-289"/>
      <point x="-38" y="-303" type="qcurve"/>
      <point x="-34" y="-323"/>
      <point x="-7" y="-344"/>
      <point x="13" y="-344" type="qcurve" smooth="yes"/>
      <point x="98" y="-344"/>
      <point x="160" y="-275" type="qcurve"/>
      <point x="237" y="-343" type="line"/>
      <point x="189" y="-394"/>
      <point x="87" y="-447"/>
    </contour>
  </outline>
</glyph>
<glyph name="Idotaccent" format="2">
  <advance width="576"/>
  <unicode hex="0130"/>
  <outline>
    <contour>
      <point x="621" y="1624" type="line"/>
      <point x="469" y="1624" type="line"/>
      <point x="512" y="1805" type="line"/>
      <point x="663" y="1805" type="line"/>
    </contour>
    <contour>
      <point x="243" y="0" type="line"/>
      <point x="108" y="0" type="line"/>
      <point x="430" y="1396" type="line"/>
      <point x="565" y="1396" type="line"/>
    </contour>
  </outline>
</glyph>
<glyph name="lcaron" format="2">
  <advance width="598"/>
  <unicode hex="013E"/>
  <outline>
    <contour>
      <point x="220" y="-20" type="qcurve" smooth="yes"/>
      <point x="147" y="-20"/>
      <point x="82" y="41"/>
      <point x="82" y="99" type="qcurve" smooth="yes"/>
      <point x="82" y="142"/>
      <point x="98" y="209" type="qcurve" smooth="yes"/>
      <point x="376" y="1413" type="line"/>
      <point x="527" y="1413" type="line"/>
      <point x="235" y="155"/>
      <point x="235" y="144" type="qcurve" smooth="yes"/>
      <point x="235" y="110"/>
      <point x="264" y="110" type="qcurve" smooth="yes"/>
      <point x="302" y="110"/>
      <point x="368" y="122" type="qcurve"/>
      <point x="351" y="-2" type="line"/>
      <point x="291" y="-20"/>
    </contour>
    <contour>
      <point x="672" y="1017" type="line"/>
      <point x="561" y="1017" type="line"/>
      <point x="755" y="1413" type="line"/>
      <point x="971" y="1413" type="line"/>
    </contour>
  </outline>
</glyph>
<glyph name="Ldot" format="2">
  <advance width="1027"/>
  <unicode hex="013F"/>
  <outline>
    <contour>
      <point x="841" y="0" type="line"/>
      <point x="108" y="0" type="line"/>
      <point x="430" y="1396" type="line"/>
      <point x="565" y="1396" type="line"/>
      <point x="270" y="122" type="line"/>
      <point x="868" y="122" type="line"/>
    </contour>
    <contour>
      <point x="661" y="581" type="qcurve" smooth="yes"/>
      <point x="616" y="581"/>
      <point x="560" y="637"/>
      <point x="560" y="680" type="qcurve" smooth="yes"/>
      <point x="560" y="710"/>
      <point x="582" y="760"/>
      <point x="620" y="796"/>
      <point x="668" y="816"/>
      <point x="694" y="816" type="qcurve" smooth="yes"/>
      <point x="738" y="816"/>
      <point x="796" y="762"/>
      <point x="796" y="717" type="qcurve" smooth="yes"/>
      <point x="796" y="693"/>
      <point x="775" y="644"/>
      <point x="739" y="605"/>
      <point x="689" y="581"/>
    </contour>
  </outline>
</glyph>
<glyph name="eng" format="2">
  <advance width="1107"/>
  <unicode hex="014B"/>
  <outline>
    <contour>
      <point x="505" y="-365" type="qcurve" smooth="yes"/>
      <point x="424" y="-365" type="line"/>
      <point x="451" y="-255" type="line"/>
      <point x="495" y="-255" type="line" smooth="yes"/>
      <point x="539" y="-255"/>
      <point x="606" y="-225"/>
      <point x="654" y="-174"/>
      <point x="686" y="-104"/>
      <point x="694" y="-64" type="qcurve"/>
      <point x="848" y="596" type="line"/>
      <point x="863" y="669"/>
      <point x="863" y="718" type="qcurve" smooth="yes"/>
      <point x="863" y="877"/>
      <point x="710" y="877" type="qcurve" smooth="yes"/>
      <point x="640" y="877"/>
      <point x="510" y="821"/>
      <point x="405" y="731"/>
      <point x="332" y="617"/>
      <point x="319" y="559" type="qcurve" smooth="yes"/>
      <point x="190" y="0" type="line"/>
      <point x="61" y="0" type="line"/>
      <point x="288" y="986" type="line"/>
      <point x="416" y="986" type="line"/>
      <point x="377" y="826" type="line"/>
      <point x="410" y="867"/>
      <point x="493" y="933"/>
      <point x="585" y="979"/>
      <point x="680" y="1003"/>
      <point x="726" y="1003" type="qcurve" smooth="yes"/>
      <point x="860" y="1003"/>
      <point x="994" y="861"/>
      <point x="994" y="732" type="qcurve"/>
      <point x="993" y="700"/>
      <point x="985" y="632"/>
      <point x="977" y="594" type="qcurve"/>
      <point x="817" y="-94" type="line"/>
      <point x="802" y="-155"/>
      <point x="755" y="-255"/>
      <point x="682" y="-326"/>
      <point x="577" y="-365"/>
    </contour>
  </outline>
</glyph>
<glyph name="OE" format="2">
  <advance width="2270"/>
  <unicode hex="0152"/>
  <outline>
    <contour>
      <point x="1212" y="250" type="line"/>
      <point x="1009" y="-20"/>
      <point x="672" y="-20" type="qcurve" smooth="yes"/>
      <point x="546" y="-20"/>
      <point x="357" y="56"/>
      <point x="234" y="196"/>
      <point x="182" y="376"/>
      <point x="182" y="473" type="qcurve" smooth="yes"/>
      <point x="182" y="494"/>
      <point x="183" y="515" type="qcurve" smooth="yes"/>
      <point x="188" y="634"/>
      <point x="250" y="869"/>
      <point x="358" y="1079"/>
      <point x="506" y="1252"/>
      <point x="596" y="1309" type="qcurve" smooth="yes"/>
      <point x="766" y="1418"/>
      <point x="980" y="1418" type="qcurve" smooth="yes"/>
      <point x="1160" y="1418"/>
      <point x="1369" y="1269"/>
      <point x="1411" y="1126" type="qcurve"/>
      <point x="1475" y="1396" type="line"/>
      <point x="2365" y="1396" type="line"/>
      <point x="2339" y="1283" type="line"/>
      <point x="1584" y="1283" type="line"/>
      <point x="1463" y="753" type="line"/>
      <point x="2117" y="753" type="line"/>
      <point x="2091" y="644" type="line"/>
      <point x="1436" y="644" type="line"/>
      <point x="1315" y="122" type="line"/>
      <point x="2071" y="122" type="line"/>
      <point x="2043" y="0" type="line"/>
      <point x="1153" y="0" type="line"/>
    </contour>
    <contour>
      <point x="959" y="1291" type="qcurve" smooth="yes"/>
      <point x="841" y="1291"/>
      <point x="642" y="1205"/>
      <point x="485" y="1048"/>
      <point x="375" y="829"/>
      <point x="345" y="696" type="qcurve"/>
      <point x="333" y="637"/>
      <point x="322" y="540"/>
      <point x="322" y="496" type="qcurve" smooth="yes"/>
      <point x="322" y="488"/>
      <point x="322" y="481" type="qcurve"/>
      <point x="323" y="396"/>
      <point x="367" y="258"/>
      <point x="457" y="160"/>
      <point x="594" y="106"/>
      <point x="687" y="106" type="qcurve" smooth="yes"/>
      <point x="801" y="106"/>
      <point x="999" y="189"/>
      <point x="1158" y="345"/>
      <point x="1273" y="569"/>
      <point x="1304" y="710" type="qcurve" smooth="yes"/>
      <point x="1318" y="770"/>
      <point x="1327" y="868"/>
      <point x="1327" y="910" type="qcurve" smooth="yes"/>
      <point x="1327" y="918"/>
      <point x="1327" y="926" type="qcurve"/>
      <point x="1324" y="1010"/>
      <point x="1277" y="1145"/>
      <point x="1187" y="1240"/>
      <point x="1051" y="1291"/>
    </contour>
  </outline>
</glyph>
<glyph name="oe" format="2">
  <advance width="1802"/>
  <unicode hex="0153"/>
  <outline>
    <contour>
      <point x="455" y="-20" type="qcurve" smooth="yes"/>
      <point x="452" y="-20"/>
      <point x="449" y="-20" type="qcurve" smooth="yes"/>
      <point x="370" y="-20"/>
      <point x="236" y="35"/>
      <point x="140" y="137"/>
      <point x="89" y="276"/>
      <point x="89" y="358" type="qcurve" smooth="yes"/>
      <point x="89" y="361"/>
      <point x="89" y="364" type="qcurve" smooth="yes"/>
      <point x="89" y="444"/>
      <point x="131" y="600"/>
      <point x="208" y="741"/>
      <point x="314" y="861"/>
      <point x="443" y="949"/>
      <point x="590" y="999"/>
      <point x="669" y="999" type="qcurve" smooth="yes"/>
      <point x="732" y="999"/>
      <point x="839" y="967"/>
      <point x="923" y="907"/>
      <point x="984" y="823"/>
      <point x="1001" y="771" type="qcurve"/>
      <point x="1161" y="999"/>
      <point x="1400" y="999" type="qcurve" smooth="yes"/>
      <point x="1478" y="999"/>
      <point x="1596" y="960"/>
      <point x="1678" y="888"/>
      <point x="1722" y="785"/>
      <point x="1727" y="721" type="qcurve"/>
      <point x="1729" y="704"/>
      <point x="1730" y="682"/>
      <point x="1730" y="676" type="qcurve" smooth="yes"/>
      <point x="1730" y="665"/>
      <point x="1729" y="654" type="qcurve" smooth="yes"/>
      <point x="1724" y="591"/>
      <point x="1701" y="492"/>
      <point x="1696" y="469" type="qcurve" smooth="yes"/>
      <point x="1695" y="467"/>
      <point x="1691" y="456"/>
      <point x="1689" y="447" type="qcurve"/>
      <point x="1001" y="447" type="line"/>
      <point x="986" y="382"/>
      <point x="986" y="333" type="qcurve" smooth="yes"/>
      <point x="986" y="223"/>
      <point x="1106" y="97"/>
      <point x="1215" y="97" type="qcurve" smooth="yes"/>
      <point x="1265" y="97"/>
      <point x="1350" y="109"/>
      <point x="1424" y="134"/>
      <point x="1492" y="174"/>
      <point x="1526" y="203" type="qcurve"/>
      <point x="1600" y="132" type="line"/>
      <point x="1551" y="92"/>
      <point x="1459" y="37"/>
      <point x="1365" y="3"/>
      <point x="1263" y="-12"/>
      <point x="1205" y="-12" type="qcurve" smooth="yes"/>
      <point x="1075" y="-12"/>
      <point x="912" y="103"/>
      <point x="883" y="210" type="qcurve"/>
      <point x="801" y="103"/>
      <point x="583" y="-20"/>
    </contour>
    <contour>
      <point x="1598" y="556" type="line"/>
      <point x="1608" y="590"/>
      <point x="1619" y="653"/>
      <point x="1619" y="682" type="qcurve" smooth="yes"/>
      <point x="1619" y="779"/>
      <point x="1504" y="886"/>
      <point x="1387" y="886" type="qcurve" smooth="yes"/>
      <point x="1320" y="886"/>
      <point x="1203" y="836"/>
      <point x="1109" y="748"/>
      <point x="1042" y="627"/>
      <point x="1024" y="556" type="qcurve"/>
    </contour>
    <contour>
      <point x="463" y="99" type="qcurve" smooth="yes"/>
      <point x="541" y="99"/>
      <point x="676" y="158"/>
      <point x="785" y="263"/>
      <point x="864" y="409"/>
      <point x="885" y="496" type="qcurve" smooth="yes"/>
      <point x="903" y="569"/>
      <point x="903" y="630" type="qcurve" smooth="yes"/>
      <point x="903" y="748"/>
      <point x="778" y="881"/>
      <point x="662" y="881" type="qcurve" smooth="yes"/>
      <point x="587" y="881"/>
      <point x="452" y="821"/>
      <point x="341" y="714"/>
      <point x="260" y="568"/>
      <point x="239" y="482" type="qcurve" smooth="yes"/>
      <point x="223" y="412"/>
      <point x="223" y="352" type="qcurve" smooth="yes"/>
      <point x="223" y="293"/>
      <point x="256" y="199"/>
      <point x="318" y="134"/>
      <point x="407" y="99"/>
    </contour>
  </outline>
</glyph>
<glyph name="tcaron" format="2">
  <advance width="652"/>
  <unicode hex="0165"/>
  <outline>
    <contour>
      <point x="665" y="1062" type="line"/>
      <point x="572" y="1062" type="line"/>
      <point x="764" y="1428" type="line"/>
      <point x="958" y="1428" type="line"/>
    </contour>
    <contour>
      <point x="331" y="-21" type="qcurve"/>
      <point x="137" y="-21"/>
      <point x="137" y="156" type="qcurve" smooth="yes"/>
      <point x="137" y="195"/>
      <point x="155" y="299"/>
      <point x="182" y="414"/>
      <point x="213" y="532"/>
      <point x="225" y="583" type="qcurve" smooth="yes"/>
      <point x="243" y="658"/>
      <point x="277" y="807"/>
      <point x="294" y="883" type="qcurve"/>
      <point x="139" y="883" type="line"/>
      <point x="163" y="986" type="line"/>
      <point x="317" y="986" type="line"/>
      <point x="366" y="1205" type="line"/>
      <point x="525" y="1334" type="line"/>
      <point x="446" y="986" type="line"/>
      <point x="697" y="986" type="line"/>
      <point x="674" y="883" type="line"/>
      <point x="423" y="883" type="line"/>
      <point x="384" y="718"/>
      <point x="311" y="401"/>
      <point x="273" y="239" type="qcurve"/>
      <point x="268" y="222"/>
      <point x="265" y="191"/>
      <point x="265" y="174" type="qcurve" smooth="yes"/>
      <point x="265" y="84"/>
      <point x="345" y="84" type="qcurve" smooth="yes"/>
      <point x="387" y="84"/>
      <point x="443" y="97"/>
      <point x="459" y="104" type="qcurve"/>
      <point x="442" y="0" type="line"/>
      <point x="434" y="-2"/>
      <point x="373" y="-20"/>
    </contour>
  </outline>
</glyph>
<glyph name="Tbar" format="2">
  <advance width="1248"/>
  <unicode hex="0166"/>
  <outline>
    <contour>
      <point x="579" y="0" type="line"/>
      <point x="442" y="0" type="line"/>
      <point x="591" y="646" type="line"/>
      <point x="351" y="646" type="line"/>
      <point x="375" y="748" type="line"/>
      <point x="615" y="748" type="line"/>
      <point x="739" y="1289" type="line"/>
      <point x="260" y="1289" type="line"/>
      <point x="284" y="1396" type="line"/>
      <point x="1380" y="1396" type="line"/>
      <point x="1355" y="1289" type="line"/>
      <point x="876" y="1289" type="line"/>
      <point x="752" y="748" type="line"/>
      <point x="1000" y="748" type="line"/>
      <point x="977" y="646" type="line"/>
      <point x="728" y="646" type="line"/>
    </contour>
  </outline>
</glyph>
<glyph name="tbar" format="2">
  <advance width="651"/>
  <unicode hex="0167"/>
  <outline>
    <contour>
      <point x="324" y="-20" type="qcurve" smooth="yes"/>
      <point x="225" y="-20"/>
      <point x="137" y="71"/>
      <point x="137" y="156" type="qcurve" smooth="yes"/>
      <point x="137" y="210"/>
      <point x="171" y="350"/>
      <point x="192" y="440" type="qcurve"/>
      <point x="-17" y="440" type="line"/>
      <point x="7" y="543" type="line"/>
      <point x="215" y="543" type="line"/>
      <point x="235" y="630"/>
      <point x="274" y="797"/>
      <point x="294" y="885" type="qcurve"/>
      <point x="140" y="885" type="line"/>
      <point x="162" y="986" type="line"/>
      <point x="316" y="986" type="line"/>
      <point x="366" y="1205" type="line"/>
      <point x="524" y="1334" type="line"/>
      <point x="446" y="986" type="line"/>
      <point x="697" y="986" type="line"/>
      <point x="675" y="885" type="line"/>
      <point x="423" y="885" type="line"/>
      <point x="344" y="543" type="line"/>
      <point x="633" y="543" type="line"/>
      <point x="608" y="440" type="line"/>
      <point x="320" y="440" type="line"/>
      <point x="306" y="389"/>
      <point x="285" y="291"/>
      <point x="274" y="243" type="qcurve" smooth="yes"/>
      <point x="269" y="224"/>
      <point x="266" y="193"/>
      <point x="266" y="180" type="qcurve" smooth="yes"/>
      <point x="266" y="129"/>
      <point x="313" y="81"/>
      <point x="357" y="81" type="qcurve" smooth="yes"/>
      <point x="403" y="81"/>
      <point x="459" y="104" type="qcurve"/>
      <point x="443" y="-4" type="line"/>
      <point x="426" y="-11"/>
      <point x="362" y="-20"/>
    </contour>
  </outline>
</glyph>
<glyph name="Uogonek" format="2">
  <advance width="1338"/>
  <unicode hex="0172"/>
  <outline>
    <contour>
      <point x="537" y="-435" type="qcurve"/>
      <point x="459" y="-435"/>
      <point x="364" y="-350"/>
      <point x="364" y="-273" type="qcurve" smooth="yes"/>
      <point x="364" y="-193"/>
      <point x="459" y="-65"/>
      <point x="552" y="-20" type="qcurve"/>
      <point x="456" y="-17"/>
      <point x="315" y="37"/>
      <point x="223" y="134"/>
      <point x="178" y="269"/>
      <point x="178" y="352" type="qcurve" smooth="yes"/>
      <point x="178" y="428"/>
      <point x="197" y="511" type="qcurve" smooth="yes"/>
      <point x="401" y="1396" type="line"/>
      <point x="537" y="1396" type="line"/>
      <point x="480" y="1150"/>
      <point x="382" y="729"/>
      <point x="340" y="547" type="qcurve" smooth="yes"/>
      <point x="327" y="493"/>
      <point x="316" y="400"/>
      <point x="316" y="361" type="qcurve" smooth="yes"/>
      <point x="316" y="234"/>
      <point x="438" y="106"/>
      <point x="568" y="106" type="qcurve" smooth="yes"/>
      <point x="658" y="106"/>
      <point x="805" y="168"/>
      <point x="920" y="284"/>
      <point x="1002" y="452"/>
      <point x="1026" y="559" type="qcurve"/>
      <point x="1121" y="966" type="line" smooth="yes"/>
      <point x="1146" y="1075"/>
      <point x="1195" y="1288"/>
      <point x="1221" y="1396" type="qcurve"/>
      <point x="1356" y="1396" type="line"/>
      <point x="1306" y="1182"/>
      <point x="1205" y="741"/>
      <point x="1152" y="509" type="qcurve"/>
      <point x="1129" y="413"/>
      <point x="1048" y="245"/>
      <point x="936" y="112"/>
      <point x="796" y="21"/>
      <point x="715" y="1" type="qcurve"/>
      <point x="662" y="-22"/>
      <point x="570" y="-80"/>
      <point x="502" y="-147"/>
      <point x="462" y="-223"/>
      <point x="462" y="-263" type="qcurve" smooth="yes"/>
      <point x="462" y="-297"/>
      <point x="492" y="-331"/>
      <point x="519" y="-331" type="qcurve" smooth="yes"/>
      <point x="607" y="-331"/>
      <point x="670" y="-262" type="qcurve"/>
      <point x="687" y="-278"/>
      <point x="725" y="-312"/>
      <point x="745" y="-329" type="qcurve"/>
      <point x="725" y="-350"/>
      <point x="683" y="-388"/>
      <point x="632" y="-417"/>
      <point x="573" y="-434"/>
    </contour>
  </outline>
</glyph>
<glyph name="florin" format="2">
  <advance width="1049"/>
  <unicode hex="0192"/>
  <outline>
    <contour>
      <point x="-82" y="-453" type="qcurve"/>
      <point x="-66" y="-336" type="line"/>
      <point x="105" y="-336"/>
      <point x="314" y="-174"/>
      <point x="349" y="-8" type="qcurve"/>
      <point x="551" y="873" type="line"/>
      <point x="376" y="873" type="line"/>
      <point x="402" y="986" type="line"/>
      <point x="579" y="986" type="line"/>
      <point x="594" y="1049"/>
      <point x="621" y="1178"/>
      <point x="646" y="1234" type="qcurve" smooth="yes"/>
      <point x="666" y="1279"/>
      <point x="727" y="1352"/>
      <point x="801" y="1405"/>
      <point x="885" y="1433"/>
      <point x="928" y="1433" type="qcurve" smooth="yes"/>
      <point x="977" y="1433"/>
      <point x="1066" y="1395"/>
      <point x="1102" y="1362" type="qcurve"/>
      <point x="1014" y="1280" type="line"/>
      <point x="997" y="1296"/>
      <point x="945" y="1316"/>
      <point x="921" y="1316" type="qcurve" smooth="yes"/>
      <point x="891" y="1316"/>
      <point x="832" y="1293"/>
      <point x="781" y="1250"/>
      <point x="742" y="1188"/>
      <point x="733" y="1149" type="qcurve" smooth="yes"/>
      <point x="694" y="986" type="line"/>
      <point x="997" y="986" type="line"/>
      <point x="970" y="873" type="line"/>
      <point x="668" y="873" type="line"/>
      <point x="462" y="-19" type="line" smooth="yes"/>
      <point x="437" y="-126"/>
      <point x="337" y="-288"/>
      <point x="197" y="-397"/>
      <point x="20" y="-453"/>
    </contour>
  </outline>
</glyph>
<glyph name="clickretroflex" format="2">
  <advance width="670"/>
  <unicode hex="01C3"/>
  <outline>
    <contour>
      <point x="353" y="366" type="line"/>
      <point x="259" y="366" type="line"/>
      <point x="475" y="1418" type="line"/>
      <point x="625" y="1418" type="line"/>
    </contour>
    <contour>
      <point x="309" y="0" type="line"/>
      <point x="135" y="0" type="line"/>
      <point x="173" y="173" type="line"/>
      <point x="348" y="173" type="line"/>
    </contour>
  </outline>
</glyph>
<glyph name="eturned" format="2">
  <advance width="1020"/>
  <unicode hex="01DD"/>
  <outline>
    <contour>
      <point x="600" y="999" type="qcurve" smooth="yes"/>
      <point x="687" y="999"/>
      <point x="819" y="946"/>
      <point x="906" y="847"/>
      <point x="943" y="720"/>
      <point x="943" y="650" type="qcurve" smooth="yes"/>
      <point x="943" y="636"/>
      <point x="942" y="622" type="qcurve" smooth="yes"/>
      <point x="938" y="544"/>
      <point x="897" y="389"/>
      <point x="828" y="248"/>
      <point x="732" y="127"/>
      <point x="613" y="38"/>
      <point x="474" y="-12"/>
      <point x="396" y="-12" type="qcurve" smooth="yes"/>
      <point x="226" y="-12"/>
      <point x="70" y="153"/>
      <point x="70" y="292" type="qcurve" smooth="yes"/>
      <point x="70" y="299"/>
      <point x="70" y="306" type="qcurve"/>
      <point x="71" y="340"/>
      <point x="81" y="407"/>
      <point x="93" y="464"/>
      <point x="104" y="510"/>
      <point x="106" y="523" type="qcurve" smooth="yes"/>
      <point x="107" y="527"/>
      <point x="110" y="534"/>
      <point x="112" y="539" type="qcurve"/>
      <point x="801" y="539" type="line"/>
      <point x="808" y="568"/>
      <point x="816" y="622"/>
      <point x="817" y="648" type="qcurve"/>
      <point x="817" y="652"/>
      <point x="817" y="655" type="qcurve" smooth="yes"/>
      <point x="817" y="761"/>
      <point x="701" y="888"/>
      <point x="589" y="888" type="qcurve" smooth="yes"/>
      <point x="537" y="888"/>
      <point x="450" y="875"/>
      <point x="374" y="849"/>
      <point x="307" y="809"/>
      <point x="276" y="782" type="qcurve"/>
      <point x="202" y="854" type="line"/>
      <point x="251" y="893"/>
      <point x="343" y="948"/>
      <point x="439" y="983"/>
      <point x="541" y="999"/>
    </contour>
    <contour>
      <point x="198" y="422" type="line"/>
      <point x="182" y="359"/>
      <point x="182" y="307" type="qcurve" smooth="yes"/>
      <point x="182" y="304"/>
      <point x="182" y="301" type="qcurve"/>
      <point x="184" y="208"/>
      <point x="297" y="102"/>
      <point x="411" y="102" type="qcurve" smooth="yes"/>
      <point x="477" y="102"/>
      <point x="593" y="151"/>
      <point x="688" y="238"/>
      <point x="757" y="358"/>
      <point x="775" y="429" type="qcurve"/>
    </contour>
  </outline>
</glyph>
<glyph name="aturned" format="2">
  <advance width="1027"/>
  <unicode hex="0250"/>
  <outline>
    <contour>
      <point x="715" y="1003" type="qcurve" smooth="yes"/>
      <point x="775" y="1003"/>
      <point x="874" y="968"/>
      <point x="942" y="902"/>
      <point x="968" y="821"/>
      <point x="968" y="782" type="qcurve" smooth="yes"/>
      <point x="968" y="765"/>
      <point x="966" y="746" type="qcurve" smooth="yes"/>
      <point x="957" y="659"/>
      <point x="878" y="536"/>
      <point x="748" y="459"/>
      <point x="573" y="424"/>
      <point x="468" y="424" type="qcurve"/>
      <point x="227" y="421" type="line"/>
      <point x="209" y="338"/>
      <point x="209" y="276" type="qcurve" smooth="yes"/>
      <point x="209" y="267"/>
      <point x="209" y="259" type="qcurve"/>
      <point x="213" y="172"/>
      <point x="310" y="90"/>
      <point x="406" y="90" type="qcurve" smooth="yes"/>
      <point x="499" y="90"/>
      <point x="662" y="173"/>
      <point x="722" y="238" type="qcurve"/>
      <point x="798" y="162" type="line"/>
      <point x="631" y="-20"/>
      <point x="394" y="-20" type="qcurve" smooth="yes"/>
      <point x="317" y="-20"/>
      <point x="203" y="19"/>
      <point x="127" y="93"/>
      <point x="92" y="195"/>
      <point x="92" y="256" type="qcurve" smooth="yes"/>
      <point x="92" y="260"/>
      <point x="92" y="263" type="qcurve" smooth="yes"/>
      <point x="92" y="292"/>
      <point x="100" y="349"/>
      <point x="107" y="379" type="qcurve" smooth="yes"/>
      <point x="246" y="983" type="line"/>
      <point x="352" y="983" type="line"/>
      <point x="341" y="935"/>
      <point x="320" y="838"/>
      <point x="308" y="787" type="qcurve"/>
      <point x="395" y="900"/>
      <point x="597" y="1003"/>
    </contour>
    <contour>
      <point x="676" y="893" type="qcurve" smooth="yes"/>
      <point x="602" y="893"/>
      <point x="463" y="829"/>
      <point x="348" y="725"/>
      <point x="267" y="592"/>
      <point x="251" y="523" type="qcurve"/>
      <point x="431" y="524" type="line" smooth="yes"/>
      <point x="502" y="525"/>
      <point x="632" y="537"/>
      <point x="738" y="578"/>
      <point x="815" y="656"/>
      <point x="833" y="724" type="qcurve"/>
      <point x="837" y="742"/>
      <point x="840" y="765"/>
      <point x="840" y="772" type="qcurve" smooth="yes"/>
      <point x="840" y="780"/>
      <point x="839" y="786" type="qcurve" smooth="yes"/>
      <point x="834" y="841"/>
      <point x="749" y="893"/>
    </contour>
  </outline>
</glyph>
<glyph name="ereversed" format="2">
  <advance width="1020"/>
  <unicode hex="0258"/>
  <outline>
    <contour>
      <point x="378" y="-12" type="qcurve" smooth="yes"/>
      <point x="319" y="-12"/>
      <point x="222" y="5"/>
      <point x="140" y="41"/>
      <point x="71" y="98"/>
      <point x="40" y="138" type="qcurve"/>
      <point x="137" y="201" type="line"/>
      <point x="157" y="173"/>
      <point x="205" y="134"/>
      <point x="267" y="109"/>
      <point x="345" y="98"/>
      <point x="395" y="98" type="qcurve" smooth="yes"/>
      <point x="458" y="98"/>
      <point x="573" y="141"/>
      <point x="668" y="219"/>
      <point x="741" y="329"/>
      <point x="762" y="396" type="qcurve"/>
      <point x="768" y="410"/>
      <point x="777" y="439"/>
      <point x="781" y="454" type="qcurve"/>
      <point x="93" y="454" type="line"/>
      <point x="94" y="461"/>
      <point x="94" y="473"/>
      <point x="95" y="478" type="qcurve" smooth="yes"/>
      <point x="99" y="504"/>
      <point x="122" y="590" type="qcurve"/>
      <point x="148" y="682"/>
      <point x="236" y="833"/>
      <point x="360" y="940"/>
      <point x="519" y="999"/>
      <point x="617" y="999" type="qcurve" smooth="yes"/>
      <point x="701" y="999"/>
      <point x="826" y="942"/>
      <point x="908" y="839"/>
      <point x="942" y="710"/>
      <point x="942" y="642" type="qcurve" smooth="yes"/>
      <point x="942" y="627"/>
      <point x="941" y="612" type="qcurve" smooth="yes"/>
      <point x="938" y="544"/>
      <point x="906" y="409"/>
      <point x="853" y="285"/>
      <point x="780" y="175"/>
      <point x="735" y="132" type="qcurve" smooth="yes"/>
      <point x="663" y="63"/>
      <point x="485" y="-12"/>
    </contour>
    <contour>
      <point x="230" y="557" type="qcurve"/>
      <point x="807" y="564" type="line"/>
      <point x="812" y="588"/>
      <point x="817" y="634"/>
      <point x="817" y="655" type="qcurve" smooth="yes"/>
      <point x="817" y="659"/>
      <point x="817" y="662" type="qcurve" smooth="yes"/>
      <point x="817" y="763"/>
      <point x="710" y="885"/>
      <point x="602" y="885" type="qcurve" smooth="yes"/>
      <point x="536" y="885"/>
      <point x="414" y="840"/>
      <point x="315" y="756"/>
      <point x="245" y="634"/>
    </contour>
  </outline>
</glyph>
<glyph name="gscript" format="2">
  <advance width="1115"/>
  <unicode hex="0261"/>
  <outline>
    <contour>
      <point x="329" y="-428" type="qcurve" smooth="yes"/>
      <point x="201" y="-428"/>
      <point x="26" y="-326"/>
      <point x="-12" y="-232" type="qcurve"/>
      <point x="96" y="-171" type="line"/>
      <point x="153" y="-320"/>
      <point x="332" y="-320" type="qcurve" smooth="yes"/>
      <point x="401" y="-320"/>
      <point x="520" y="-272"/>
      <point x="615" y="-186"/>
      <point x="683" y="-67"/>
      <point x="700" y="4" type="qcurve"/>
      <point x="735" y="142" type="line"/>
      <point x="588" y="-19"/>
      <point x="397" y="-19" type="qcurve" smooth="yes"/>
      <point x="320" y="-19"/>
      <point x="204" y="31"/>
      <point x="127" y="122"/>
      <point x="88" y="251"/>
      <point x="88" y="330" type="qcurve" smooth="yes"/>
      <point x="88" y="407"/>
      <point x="121" y="568"/>
      <point x="185" y="719"/>
      <point x="276" y="851"/>
      <point x="392" y="950"/>
      <point x="532" y="1007"/>
      <point x="611" y="1007" type="qcurve" smooth="yes"/>
      <point x="715" y="1007"/>
      <point x="854" y="917"/>
      <point x="889" y="835" type="qcurve"/>
      <point x="926" y="986" type="line"/>
      <point x="1053" y="986" type="line"/>
      <point x="834" y="44" type="line" smooth="yes"/>
      <point x="810" y="-60"/>
      <point x="731" y="-233"/>
      <point x="609" y="-358"/>
      <point x="441" y="-428"/>
    </contour>
    <contour>
      <point x="428" y="89" type="qcurve" smooth="yes"/>
      <point x="502" y="89"/>
      <point x="629" y="152"/>
      <point x="730" y="264"/>
      <point x="804" y="417"/>
      <point x="825" y="506" type="qcurve" smooth="yes"/>
      <point x="836" y="549"/>
      <point x="845" y="621"/>
      <point x="845" y="654" type="qcurve" smooth="yes"/>
      <point x="845" y="765"/>
      <point x="742" y="896"/>
      <point x="636" y="896" type="qcurve" smooth="yes"/>
      <point x="558" y="896"/>
      <point x="428" y="830"/>
      <point x="326" y="716"/>
      <point x="254" y="565"/>
      <point x="235" y="481" type="qcurve"/>
      <point x="216" y="406"/>
      <point x="216" y="334" type="qcurve" smooth="yes"/>
      <point x="216" y="220"/>
      <point x="321" y="89"/>
    </contour>
  </outline>
</glyph>
<glyph name="colontriangularhalfmod" format="2">
  <advance width="505"/>
  <unicode hex="02D1"/>
  <outline>
    <contour>
      <point x="275" y="275" type="line"/>
      <point x="54" y="606" type="line"/>
      <point x="427" y="651" type="line"/>
    </contour>
  </outline>
</glyph>
<glyph name="ogonek" format="2">
  <advance width="594"/>
  <unicode hex="02DB"/>
  <outline>
    <contour>
      <point x="163" y="-447" type="qcurve" smooth="yes"/>
      <point x="88" y="-447"/>
      <point x="-3" y="-362"/>
      <point x="-3" y="-287" type="qcurve" smooth="yes"/>
      <point x="-3" y="-235"/>
      <point x="36" y="-147"/>
      <point x="107" y="-75"/>
      <point x="206" y="-20"/>
      <point x="266" y="-1" type="qcurve"/>
      <point x="359" y="-3" type="line"/>
      <point x="364" y="-3"/>
      <point x="376" y="-3"/>
      <point x="381" y="-2" type="qcurve"/>
      <point x="380" y="-3"/>
      <point x="379" y="-3" type="qcurve"/>
      <point x="375" y="-4" type="line"/>
      <point x="374" y="-5"/>
      <point x="373" y="-5" type="qcurve"/>
      <point x="360" y="-8"/>
      <point x="309" y="-30"/>
      <point x="247" y="-65"/>
      <point x="182" y="-112"/>
      <point x="128" y="-171"/>
      <point x="94" y="-238"/>
      <point x="94" y="-276" type="qcurve" smooth="yes"/>
      <point x="94" y="-307"/>
      <point x="126" y="-344"/>
      <point x="155" y="-344" type="qcurve" smooth="yes"/>
      <point x="239" y="-344"/>
      <point x="302" y="-275" type="qcurve"/>
      <point x="378" y="-342" type="line"/>
      <point x="329" y="-396"/>
      <point x="230" y="-447"/>
    </contour>
  </outline>
</glyph>
<glyph name="tilde" format="2">
  <advance width="997"/>
  <unicode hex="02DC"/>
  <outline>
    <contour>
      <point x="792" y="1143" type="qcurve" smooth="yes"/>
      <point x="754" y="1143"/>
      <point x="711" y="1169"/>
      <point x="678" y="1210"/>
      <point x="644" y="1261"/>
      <point x="616" y="1287" type="qcurve"/>
      <point x="599" y="1301"/>
      <point x="578" y="1301" type="qcurve" smooth="yes"/>
      <point x="558" y="1301"/>
      <point x="522" y="1279"/>
      <point x="493" y="1241"/>
      <point x="471" y="1192"/>
      <point x="464" y="1165" type="qcurve"/>
      <point x="378" y="1165" type="line"/>
      <point x="390" y="1219"/>
      <point x="428" y="1307"/>
      <point x="479" y="1369"/>
      <point x="542" y="1403"/>
      <point x="579" y="1403" type="qcurve" smooth="yes"/>
      <point x="610" y="1403"/>
      <point x="654" y="1384"/>
      <point x="687" y="1354"/>
      <point x="712" y="1318"/>
      <point x="735" y="1284"/>
      <point x="759" y="1256"/>
      <point x="775" y="1249" type="qcurve" smooth="yes"/>
      <point x="781" y="1247"/>
      <point x="787" y="1247" type="qcurve" smooth="yes"/>
      <point x="800" y="1247"/>
      <point x="831" y="1267"/>
      <point x="847" y="1289" type="qcurve"/>
      <point x="893" y="1303"/>
      <point x="918" y="1396" type="qcurve"/>
      <point x="1009" y="1396" type="line"/>
      <point x="951" y="1143"/>
    </contour>
  </outline>
</glyph>
<glyph name="hungarumlaut" format="2">
  <advance width="852"/>
  <unicode hex="02DD"/>
  <outline>
    <contour>
      <point x="252" y="1115" type="line"/>
      <point x="130" y="1115" type="line"/>
      <point x="406" y="1396" type="line"/>
      <point x="583" y="1396" type="line"/>
    </contour>
    <contour>
      <point x="575" y="1115" type="line"/>
      <point x="453" y="1115" type="line"/>
      <point x="729" y="1396" type="line"/>
      <point x="904" y="1396" type="line"/>
    </contour>
  </outline>
</glyph>
<glyph name="gravecmb" format="2">
  <unicode hex="0300"/>
  <anchor x="-34" y="999" name="_t.ringcmb_1"/>
  <outline>
    <contour>
      <point x="-151" y="1112" type="line"/>
      <point x="-340" y="1396" type="line"/>
      <point x="-176" y="1396" type="line"/>
      <point x="-31" y="1112" type="line"/>
    </contour>
  </outline>
</glyph>
<glyph name="macroncmb" format="2">
  <unicode hex="0304"/>
  <anchor x="-321" y="999" name="_t.ringcmb_1"/>
  <outline>
    <contour>
      <point x="-11" y="1179" type="line"/>
      <point x="-540" y="1179" type="line"/>
      <point x="-513" y="1296" type="line"/>
      <point x="17" y="1296" type="line"/>
    </contour>
  </outline>
</glyph>
<glyph name="brevecmb" format="2">
  <unicode hex="0306"/>
  <anchor x="-303" y="999" name="_t.ringcmb_1"/>
  <outline>
    <contour>
      <point x="-257" y="1132" type="qcurve" smooth="yes"/>
      <point x="-311" y="1132"/>
      <point x="-405" y="1158"/>
      <point x="-474" y="1209"/>
      <point x="-514" y="1284"/>
      <point x="-514" y="1333" type="qcurve" smooth="yes"/>
      <point x="-514" y="1362"/>
      <point x="-506" y="1396" type="qcurve"/>
      <point x="-386" y="1396" type="line"/>
      <point x="-388" y="1384"/>
      <point x="-390" y="1365"/>
      <point x="-390" y="1358" type="qcurve" smooth="yes"/>
      <point x="-390" y="1298"/>
      <point x="-312" y="1235"/>
      <point x="-255" y="1235" type="qcurve" smooth="yes"/>
      <point x="-218" y="1235"/>
      <point x="-144" y="1260"/>
      <point x="-83" y="1303"/>
      <point x="-39" y="1362"/>
      <point x="-30" y="1396" type="qcurve"/>
      <point x="90" y="1396" type="line"/>
      <point x="75" y="1332"/>
      <point x="12" y="1234"/>
      <point x="-79" y="1167"/>
      <point x="-193" y="1132"/>
    </contour>
  </outline>
</glyph>
<glyph name="dieresiscmb" format="2">
  <advance width="824"/>
  <unicode hex="0308"/>
  <anchor x="-301" y="999" name="_t.ringcmb_1"/>
  <outline>
    <contour>
      <point x="-332" y="1215" type="line"/>
      <point x="-489" y="1215" type="line"/>
      <point x="-447" y="1396" type="line"/>
      <point x="-290" y="1396" type="line"/>
    </contour>
    <contour>
      <point x="-3" y="1215" type="line"/>
      <point x="-159" y="1215" type="line"/>
      <point x="-117" y="1396" type="line"/>
      <point x="39" y="1396" type="line"/>
    </contour>
  </outline>
</glyph>
<glyph name="ringcmb" format="2">
  <advance width="990"/>
  <unicode hex="030A"/>
  <anchor x="-205" y="999" name="_t.ringcmb_1"/>
  <outline>
    <contour>
      <point x="-174" y="1070" type="qcurve" smooth="yes"/>
      <point x="-212" y="1070"/>
      <point x="-273" y="1094"/>
      <point x="-315" y="1137"/>
      <point x="-338" y="1195"/>
      <point x="-338" y="1229" type="qcurve" smooth="yes"/>
      <point x="-338" y="1273"/>
      <point x="-299" y="1356"/>
      <point x="-235" y="1421"/>
      <point x="-151" y="1460"/>
      <point x="-107" y="1460" type="qcurve" smooth="yes"/>
      <point x="-73" y="1460"/>
      <point x="-13" y="1436"/>
      <point x="32" y="1394"/>
      <point x="57" y="1336"/>
      <point x="57" y="1301" type="qcurve" smooth="yes"/>
      <point x="57" y="1262"/>
      <point x="24" y="1180"/>
      <point x="-37" y="1113"/>
      <point x="-122" y="1070"/>
    </contour>
    <contour>
      <point x="-166" y="1164" type="qcurve" smooth="yes"/>
      <point x="-141" y="1164"/>
      <point x="-96" y="1183"/>
      <point x="-60" y="1218"/>
      <point x="-37" y="1264"/>
      <point x="-35" y="1291" type="qcurve"/>
      <point x="-35" y="1321"/>
      <point x="-78" y="1364"/>
      <point x="-116" y="1364" type="qcurve" smooth="yes"/>
      <point x="-142" y="1364"/>
      <point x="-187" y="1345"/>
      <point x="-221" y="1312"/>
      <point x="-241" y="1267"/>
      <point x="-241" y="1242" type="qcurve" smooth="yes"/>
      <point x="-241" y="1204"/>
      <point x="-201" y="1164"/>
    </contour>
  </outline>
</glyph>
<glyph name="caroncmb" format="2">
  <unicode hex="030C"/>
  <anchor x="-263" y="999" name="_t.ringcmb_1"/>
  <outline>
    <contour>
      <point x="-249" y="1071" type="line"/>
      <point x="-499" y="1396" type="line"/>
      <point x="-351" y="1396" type="line"/>
      <point x="-224" y="1208" type="line"/>
      <point x="-3" y="1396" type="line"/>
      <point x="150" y="1396" type="line"/>
    </contour>
  </outline>
</glyph>
<glyph name="dblgravecmb" format="2">
  <unicode hex="030F"/>
  <anchor x="-206" y="999" name="_t.ringcmb_1"/>
  <outline>
    <contour>
      <point x="-322" y="1115" type="line"/>
      <point x="-517" y="1396" type="line"/>
      <point x="-331" y="1396" type="line"/>
      <point x="-185" y="1115" type="line"/>
    </contour>
  </outline>
</glyph>
<glyph name="commaturnedabovecmb" format="2">
  <unicode hex="0312"/>
  <anchor x="-224" y="999" name="_t.ringcmb_1"/>
  <outline>
    <contour>
      <point x="-68" y="1113" type="line"/>
      <point x="-269" y="1113" type="line"/>
      <point x="25" y="1403" type="line"/>
      <point x="125" y="1403" type="line"/>
    </contour>
  </outline>
</glyph>
<glyph name="horncmb" format="2">
  <unicode hex="031B"/>
  <anchor x="-122" y="999" name="_m.horncmb_3"/>
  <outline>
    <contour>
      <point x="-182" y="989" type="line"/>
      <point x="-280" y="989" type="line"/>
      <point x="-69" y="1396" type="line"/>
      <point x="132" y="1396" type="line"/>
    </contour>
  </outline>
</glyph>
<glyph name="ogonekcmb" format="2">
  <unicode hex="0328"/>
  <anchor x="-298" y="0" name="_b.ogonekcmb_2"/>
  <outline>
    <contour>
      <point x="-487" y="-447" type="qcurve" smooth="yes"/>
      <point x="-524" y="-447"/>
      <point x="-586" y="-425"/>
      <point x="-630" y="-384"/>
      <point x="-654" y="-325"/>
      <point x="-654" y="-287" type="qcurve" smooth="yes"/>
      <point x="-654" y="-235"/>
      <point x="-614" y="-146"/>
      <point x="-542" y="-75"/>
      <point x="-443" y="-20"/>
      <point x="-384" y="-1" type="qcurve"/>
      <point x="-291" y="-3" type="line"/>
      <point x="-286" y="-3"/>
      <point x="-275" y="-3"/>
      <point x="-270" y="-2" type="qcurve"/>
      <point x="-273" y="-4"/>
      <point x="-281" y="-6"/>
      <point x="-285" y="-8" type="qcurve" smooth="yes"/>
      <point x="-298" y="-13"/>
      <point x="-348" y="-35"/>
      <point x="-408" y="-69"/>
      <point x="-471" y="-115"/>
      <point x="-523" y="-171"/>
      <point x="-556" y="-238"/>
      <point x="-556" y="-276" type="qcurve" smooth="yes"/>
      <point x="-556" y="-308"/>
      <point x="-522" y="-344"/>
      <point x="-495" y="-344" type="qcurve" smooth="yes"/>
      <point x="-411" y="-344"/>
      <point x="-349" y="-275" type="qcurve"/>
      <point x="-272" y="-342" type="line"/>
      <point x="-320" y="-396"/>
      <point x="-420" y="-447"/>
    </contour>
  </outline>
</glyph>
<glyph name="pi" format="2">
  <advance width="982"/>
  <unicode hex="03C0"/>
  <outline>
    <contour>
      <point x="712" y="-20" type="qcurve" smooth="yes"/>
      <point x="673" y="-20"/>
      <point x="612" y="8"/>
      <point x="571" y="56"/>
      <point x="549" y="120"/>
      <point x="549" y="156" type="qcurve" smooth="yes"/>
      <point x="549" y="184"/>
      <point x="554" y="206" type="qcurve" smooth="yes"/>
      <point x="592" y="369"/>
      <point x="666" y="686"/>
      <point x="704" y="851" type="qcurve"/>
      <point x="411" y="851" type="line"/>
      <point x="215" y="0" type="line"/>
      <point x="80" y="0" type="line"/>
      <point x="276" y="851" type="line"/>
      <point x="194" y="851" type="line"/>
      <point x="198" y="868"/>
      <point x="206" y="901"/>
      <point x="210" y="919" type="qcurve" smooth="yes"/>
      <point x="225" y="986" type="line"/>
      <point x="951" y="986" type="line"/>
      <point x="920" y="851" type="line"/>
      <point x="839" y="851" type="line"/>
      <point x="766" y="536" type="line" smooth="yes"/>
      <point x="751" y="470"/>
      <point x="721" y="351"/>
      <point x="697" y="252"/>
      <point x="682" y="175"/>
      <point x="682" y="150" type="qcurve" smooth="yes"/>
      <point x="682" y="90"/>
      <point x="733" y="90" type="qcurve" smooth="yes"/>
      <point x="762" y="90"/>
      <point x="796" y="112" type="qcurve"/>
      <point x="808" y="49" type="line" smooth="yes"/>
      <point x="810" y="38"/>
      <point x="813" y="16"/>
      <point x="816" y="6" type="qcurve"/>
      <point x="766" y="-20"/>
    </contour>
  </outline>
</glyph>
<glyph name="afii10051" format="2">
  <advance width="1619"/>
  <unicode hex="0402"/>
  <outline>
    <contour>
      <point x="1030" y="-17" type="qcurve" smooth="yes"/>
      <point x="921" y="-17"/>
      <point x="777" y="47"/>
      <point x="736" y="111" type="qcurve"/>
      <point x="845" y="193" type="line"/>
      <point x="871" y="146"/>
      <point x="964" y="104"/>
      <point x="1040" y="104" type="qcurve" smooth="yes"/>
      <point x="1087" y="104"/>
      <point x="1174" y="148"/>
      <point x="1251" y="226"/>
      <point x="1315" y="330"/>
      <point x="1361" y="451"/>
      <point x="1386" y="581"/>
      <point x="1386" y="645" type="qcurve" smooth="yes"/>
      <point x="1386" y="757"/>
      <point x="1260" y="861"/>
      <point x="1121" y="861" type="qcurve" smooth="yes"/>
      <point x="1068" y="861"/>
      <point x="960" y="837"/>
      <point x="860" y="796"/>
      <point x="771" y="739"/>
      <point x="737" y="706" type="qcurve"/>
      <point x="572" y="0" type="line"/>
      <point x="436" y="0" type="line"/>
      <point x="733" y="1292" type="line"/>
      <point x="252" y="1292" type="line"/>
      <point x="277" y="1396" type="line"/>
      <point x="1372" y="1396" type="line"/>
      <point x="1348" y="1292" type="line"/>
      <point x="869" y="1292" type="line"/>
      <point x="763" y="855" type="line"/>
      <point x="938" y="988"/>
      <point x="1128" y="988" type="qcurve" smooth="yes"/>
      <point x="1519" y="988"/>
      <point x="1519" y="646" type="qcurve" smooth="yes"/>
      <point x="1519" y="574"/>
      <point x="1488" y="421"/>
      <point x="1429" y="273"/>
      <point x="1343" y="141"/>
      <point x="1234" y="42"/>
      <point x="1104" y="-17"/>
    </contour>
  </outline>
</glyph>
<glyph name="afii10052" format="2">
  <advance width="1070"/>
  <unicode hex="0403"/>
  <outline>
    <contour>
      <point x="802" y="1523" type="line"/>
      <point x="697" y="1523" type="line"/>
      <point x="971" y="1806" type="line"/>
      <point x="1123" y="1806" type="line"/>
    </contour>
    <contour>
      <point x="242" y="0" type="line"/>
      <point x="108" y="0" type="line"/>
      <point x="430" y="1396" type="line"/>
      <point x="1203" y="1396" type="line"/>
      <point x="1178" y="1286" type="line"/>
      <point x="539" y="1286" type="line"/>
    </contour>
  </outline>
</glyph>
<glyph name="afii10053" format="2">
  <advance width="1408"/>
  <unicode hex="0404"/>
  <outline>
    <contour>
      <point x="643" y="-20" type="qcurve" smooth="yes"/>
      <point x="523" y="-20"/>
      <point x="340" y="49"/>
      <point x="217" y="178"/>
      <point x="155" y="362"/>
      <point x="155" y="477" type="qcurve" smooth="yes"/>
      <point x="155" y="546"/>
      <point x="179" y="701"/>
      <point x="225" y="857"/>
      <point x="291" y="1006"/>
      <point x="333" y="1071" type="qcurve" smooth="yes"/>
      <point x="385" y="1151"/>
      <point x="517" y="1280"/>
      <point x="673" y="1370"/>
      <point x="853" y="1419"/>
      <point x="952" y="1419" type="qcurve" smooth="yes"/>
      <point x="1148" y="1419"/>
      <point x="1396" y="1230"/>
      <point x="1434" y="1049" type="qcurve"/>
      <point x="1383" y="1033" type="line" smooth="yes"/>
      <point x="1363" y="1027"/>
      <point x="1324" y="1015"/>
      <point x="1305" y="1010" type="qcurve"/>
      <point x="1300" y="1082"/>
      <point x="1246" y="1190"/>
      <point x="1152" y="1261"/>
      <point x="1022" y="1296"/>
      <point x="943" y="1296" type="qcurve" smooth="yes"/>
      <point x="828" y="1296"/>
      <point x="631" y="1213"/>
      <point x="474" y="1067"/>
      <point x="360" y="869"/>
      <point x="328" y="755" type="qcurve"/>
      <point x="965" y="762" type="line"/>
      <point x="943" y="660" type="line"/>
      <point x="303" y="654" type="line"/>
      <point x="295" y="610"/>
      <point x="287" y="528"/>
      <point x="287" y="486" type="qcurve" smooth="yes"/>
      <point x="287" y="395"/>
      <point x="332" y="253"/>
      <point x="423" y="154"/>
      <point x="559" y="102"/>
      <point x="650" y="102" type="qcurve" smooth="yes"/>
      <point x="811" y="102"/>
      <point x="1067" y="251"/>
      <point x="1159" y="404" type="qcurve"/>
      <point x="1276" y="340" type="line"/>
      <point x="1155" y="157"/>
      <point x="830" y="-20"/>
    </contour>
  </outline>
</glyph>
<glyph name="afii10059" format="2">
  <advance width="1997"/>
  <unicode hex="040A"/>
  <outline>
    <contour>
      <point x="1355" y="0" type="qcurve" smooth="yes"/>
      <point x="968" y="0" type="line"/>
      <point x="1114" y="642" type="line"/>
      <point x="384" y="642" type="line"/>
      <point x="237" y="0" type="line"/>
      <point x="103" y="0" type="line"/>
      <point x="184" y="351"/>
      <point x="345" y="1044"/>
      <point x="426" y="1396" type="qcurve"/>
      <point x="558" y="1396" type="line"/>
      <point x="411" y="753" type="line"/>
      <point x="1142" y="753" type="line"/>
      <point x="1290" y="1396" type="line"/>
      <point x="1425" y="1396" type="line"/>
      <point x="1277" y="755" type="line"/>
      <point x="1520" y="755" type="line" smooth="yes"/>
      <point x="1603" y="755"/>
      <point x="1737" y="718"/>
      <point x="1832" y="646"/>
      <point x="1884" y="540"/>
      <point x="1884" y="471" type="qcurve" smooth="yes"/>
      <point x="1884" y="363"/>
      <point x="1800" y="189"/>
      <point x="1656" y="66"/>
      <point x="1463" y="0"/>
    </contour>
    <contour>
      <point x="1372" y="118" type="line" smooth="yes"/>
      <point x="1448" y="118"/>
      <point x="1586" y="165"/>
      <point x="1690" y="254"/>
      <point x="1752" y="381"/>
      <point x="1752" y="462" type="qcurve" smooth="yes"/>
      <point x="1752" y="551"/>
      <point x="1619" y="638"/>
      <point x="1503" y="638" type="qcurve" smooth="yes"/>
      <point x="1251" y="638" type="line"/>
      <point x="1130" y="118" type="line"/>
    </contour>
  </outline>
</glyph>
<glyph name="uni040D" format="2">
  <advance width="1440"/>
  <unicode hex="040D"/>
  <outline>
    <contour>
      <point x="1079" y="1530" type="line"/>
      <point x="953" y="1530" type="line"/>
      <point x="794" y="1806" type="line"/>
      <point x="938" y="1806" type="line"/>
    </contour>
    <contour>
      <point x="1105" y="0" type="line"/>
      <point x="972" y="0" type="line"/>
      <point x="1221" y="1082" type="line"/>
      <point x="1226" y="1101"/>
      <point x="1238" y="1141"/>
      <point x="1247" y="1163" type="qcurve"/>
      <point x="1245" y="1170"/>
      <point x="1245" y="1177" type="qcurve" smooth="yes"/>
      <point x="1245" y="1185"/>
      <point x="1251" y="1208"/>
      <point x="1254" y="1224" type="qcurve"/>
      <point x="285" y="0" type="line"/>
      <point x="108" y="0" type="line"/>
      <point x="137" y="126"/>
      <point x="165" y="250" type="qcurve"/>
      <point x="204" y="415" type="line" smooth="yes"/>
      <point x="233" y="539"/>
      <point x="261" y="665" type="qcurve"/>
      <point x="430" y="1396" type="line"/>
      <point x="563" y="1396" type="line"/>
      <point x="491" y="1085"/>
      <point x="367" y="547"/>
      <point x="313" y="313" type="qcurve" smooth="yes"/>
      <point x="307" y="286"/>
      <point x="284" y="212"/>
      <point x="267" y="164" type="qcurve"/>
      <point x="321" y="221" type="line"/>
      <point x="1251" y="1396" type="line"/>
      <point x="1427" y="1396" type="line"/>
    </contour>
  </outline>
</glyph>
<glyph name="afii10062" format="2">
  <advance width="1117"/>
  <unicode hex="040E"/>
  <outline>
    <contour>
      <point x="816" y="1541" type="qcurve" smooth="yes"/>
      <point x="762" y="1541"/>
      <point x="670" y="1570"/>
      <point x="602" y="1623"/>
      <point x="564" y="1699"/>
      <point x="564" y="1746" type="qcurve" smooth="yes"/>
      <point x="564" y="1774"/>
      <point x="572" y="1806" type="qcurve"/>
      <point x="678" y="1806" type="line"/>
      <point x="676" y="1796"/>
      <point x="674" y="1777"/>
      <point x="674" y="1768" type="qcurve" smooth="yes"/>
      <point x="674" y="1705"/>
      <point x="754" y="1635"/>
      <point x="816" y="1635" type="qcurve" smooth="yes"/>
      <point x="853" y="1635"/>
      <point x="930" y="1661"/>
      <point x="995" y="1708"/>
      <point x="1044" y="1770"/>
      <point x="1054" y="1806" type="qcurve"/>
      <point x="1160" y="1806" type="line"/>
      <point x="1146" y="1745"/>
      <point x="1081" y="1647"/>
      <point x="989" y="1578"/>
      <point x="877" y="1541"/>
    </contour>
    <contour>
      <point x="310" y="0" type="line"/>
      <point x="161" y="0" type="line"/>
      <point x="462" y="450" type="line"/>
      <point x="368" y="973" type="line"/>
      <point x="348" y="1079"/>
      <point x="310" y="1289"/>
      <point x="292" y="1396" type="qcurve"/>
      <point x="437" y="1396" type="line"/>
      <point x="560" y="590" type="line"/>
      <point x="1090" y="1396" type="line"/>
      <point x="1248" y="1396" type="line"/>
    </contour>
  </outline>
</glyph>
<glyph name="afii10145" format="2">
  <advance width="1431"/>
  <unicode hex="040F"/>
  <outline>
    <contour>
      <point x="598" y="-304" type="line"/>
      <point x="465" y="-304" type="line"/>
      <point x="536" y="0" type="line"/>
      <point x="103" y="0" type="line"/>
      <point x="426" y="1396" type="line"/>
      <point x="558" y="1396" type="line"/>
      <point x="262" y="113" type="line"/>
      <point x="992" y="113" type="line"/>
      <point x="1290" y="1396" type="line"/>
      <point x="1423" y="1396" type="line"/>
      <point x="1101" y="0" type="line"/>
      <point x="669" y="0" type="line"/>
    </contour>
  </outline>
</glyph>
<glyph name="afii10018" format="2">
  <advance width="1234"/>
  <unicode hex="0411"/>
  <outline>
    <contour>
      <point x="552" y="0" type="qcurve" smooth="yes"/>
      <point x="108" y="0" type="line"/>
      <point x="188" y="351"/>
      <point x="348" y="1044"/>
      <point x="430" y="1396" type="qcurve"/>
      <point x="1150" y="1396" type="line"/>
      <point x="1122" y="1275" type="line"/>
      <point x="535" y="1275" type="line"/>
      <point x="420" y="772" type="line"/>
      <point x="751" y="772" type="line" smooth="yes"/>
      <point x="828" y="772"/>
      <point x="953" y="736"/>
      <point x="1042" y="664"/>
      <point x="1090" y="558"/>
      <point x="1090" y="488" type="qcurve" smooth="yes"/>
      <point x="1090" y="388"/>
      <point x="1016" y="211"/>
      <point x="877" y="78"/>
      <point x="678" y="0"/>
    </contour>
    <contour>
      <point x="576" y="124" type="line" smooth="yes"/>
      <point x="642" y="124"/>
      <point x="776" y="175"/>
      <point x="885" y="265"/>
      <point x="953" y="387"/>
      <point x="953" y="458" type="qcurve" smooth="yes"/>
      <point x="953" y="504"/>
      <point x="917" y="574"/>
      <point x="852" y="622"/>
      <point x="764" y="646"/>
      <point x="712" y="646" type="qcurve" smooth="yes"/>
      <point x="389" y="646" type="line"/>
      <point x="360" y="517"/>
      <point x="300" y="258"/>
      <point x="270" y="124" type="qcurve"/>
    </contour>
  </outline>
</glyph>
<glyph name="afii10024" format="2">
  <advance width="1917"/>
  <unicode hex="0416"/>
  <outline>
    <contour>
      <point x="1714" y="0" type="line"/>
      <point x="1557" y="0" type="line"/>
      <point x="1541" y="139"/>
      <point x="1505" y="416"/>
      <point x="1491" y="557" type="qcurve"/>
      <point x="1487" y="585"/>
      <point x="1467" y="639"/>
      <point x="1429" y="681"/>
      <point x="1370" y="706"/>
      <point x="1328" y="706" type="qcurve" smooth="yes"/>
      <point x="1074" y="706" type="line"/>
      <point x="913" y="0" type="line"/>
      <point x="779" y="0" type="line"/>
      <point x="941" y="706" type="line"/>
      <point x="699" y="706" type="line" smooth="yes"/>
      <point x="663" y="706"/>
      <point x="597" y="685"/>
      <point x="539" y="649"/>
      <point x="492" y="599"/>
      <point x="476" y="569" type="qcurve"/>
      <point x="134" y="0" type="line"/>
      <point x="-27" y="0" type="line"/>
      <point x="54" y="136"/>
      <point x="246" y="460"/>
      <point x="360" y="652" type="qcurve"/>
      <point x="373" y="676"/>
      <point x="430" y="729"/>
      <point x="506" y="773"/>
      <point x="593" y="801"/>
      <point x="637" y="801" type="qcurve"/>
      <point x="582" y="926"/>
      <point x="452" y="1221"/>
      <point x="376" y="1396" type="qcurve"/>
      <point x="538" y="1396" type="line"/>
      <point x="601" y="1250"/>
      <point x="728" y="963"/>
      <point x="793" y="815" type="qcurve"/>
      <point x="966" y="815" type="line"/>
      <point x="1101" y="1396" type="line"/>
      <point x="1235" y="1396" type="line"/>
      <point x="1099" y="815" type="line"/>
      <point x="1269" y="815" type="line"/>
      <point x="1411" y="973"/>
      <point x="1671" y="1262"/>
      <point x="1792" y="1396" type="qcurve"/>
      <point x="1963" y="1396" type="line"/>
      <point x="1690" y="1101" type="line" smooth="yes"/>
      <point x="1621" y="1026"/>
      <point x="1483" y="876"/>
      <point x="1412" y="801" type="qcurve"/>
      <point x="1458" y="801"/>
      <point x="1533" y="769"/>
      <point x="1587" y="721"/>
      <point x="1620" y="665"/>
      <point x="1624" y="641" type="qcurve" smooth="yes"/>
      <point x="1646" y="486"/>
      <point x="1687" y="186"/>
      <point x="1709" y="35" type="qcurve" smooth="yes"/>
    </contour>
  </outline>
</glyph>
<glyph name="afii10026" format="2">
  <advance width="1400"/>
  <unicode hex="0418"/>
  <outline>
    <contour>
      <point x="81" y="0" type="line"/>
      <point x="404" y="1396" type="line"/>
      <point x="539" y="1396" type="line"/>
      <point x="249" y="140" type="line"/>
      <point x="1160" y="1396" type="line"/>
      <point x="1366" y="1396" type="line"/>
      <point x="1045" y="0" type="line"/>
      <point x="908" y="0" type="line"/>
      <point x="1199" y="1258" type="line"/>
      <point x="292" y="0" type="line"/>
    </contour>
  </outline>
</glyph>
<glyph name="afii10033" format="2">
  <advance width="1431"/>
  <unicode hex="041F"/>
  <outline>
    <contour>
      <point x="1101" y="0" type="line"/>
      <point x="968" y="0" type="line"/>
      <point x="1264" y="1286" type="line"/>
      <point x="534" y="1286" type="line"/>
      <point x="237" y="0" type="line"/>
      <point x="103" y="0" type="line"/>
      <point x="426" y="1396" type="line"/>
      <point x="1423" y="1396" type="line"/>
    </contour>
  </outline>
</glyph>
<glyph name="afii10040" format="2">
  <advance width="1456"/>
  <unicode hex="0426"/>
  <outline>
    <contour>
      <point x="1190" y="-241" type="line"/>
      <point x="1059" y="-241" type="line"/>
      <point x="1114" y="0" type="line"/>
      <point x="108" y="0" type="line"/>
      <point x="430" y="1396" type="line"/>
      <point x="563" y="1396" type="line"/>
      <point x="266" y="113" type="line"/>
      <point x="997" y="113" type="line"/>
      <point x="1294" y="1396" type="line"/>
      <point x="1427" y="1396" type="line"/>
      <point x="1130" y="113" type="line"/>
      <point x="1270" y="113" type="line"/>
    </contour>
  </outline>
</glyph>
<glyph name="afii10041" format="2">
  <advance width="1311"/>
  <unicode hex="0427"/>
  <outline>
    <contour>
      <point x="977" y="0" type="line"/>
      <point x="842" y="0" type="line"/>
      <point x="970" y="542" type="line"/>
      <point x="821" y="407"/>
      <point x="605" y="407" type="qcurve" smooth="yes"/>
      <point x="417" y="407"/>
      <point x="228" y="607"/>
      <point x="228" y="795" type="qcurve" smooth="yes"/>
      <point x="228" y="843"/>
      <point x="243" y="952"/>
      <point x="265" y="1067"/>
      <point x="293" y="1185"/>
      <point x="307" y="1242" type="qcurve" smooth="yes"/>
      <point x="344" y="1396" type="line"/>
      <point x="479" y="1396" type="line"/>
      <point x="436" y="1216" type="line" smooth="yes"/>
      <point x="420" y="1149"/>
      <point x="392" y="1024"/>
      <point x="372" y="915"/>
      <point x="360" y="824"/>
      <point x="360" y="791" type="qcurve" smooth="yes"/>
      <point x="360" y="535"/>
      <point x="609" y="535" type="qcurve" smooth="yes"/>
      <point x="664" y="535"/>
      <point x="773" y="558"/>
      <point x="873" y="599"/>
      <point x="962" y="656"/>
      <point x="998" y="690" type="qcurve"/>
      <point x="1163" y="1396" type="line"/>
      <point x="1299" y="1396" type="line"/>
      <point x="1222" y="1064"/>
      <point x="1072" y="407"/>
      <point x="994" y="74" type="qcurve" smooth="yes"/>
    </contour>
  </outline>
</glyph>
<glyph name="afii10044" format="2">
  <advance width="1346"/>
  <unicode hex="042A"/>
  <outline>
    <contour>
      <point x="705" y="0" type="qcurve" smooth="yes"/>
      <point x="319" y="0" type="line"/>
      <point x="617" y="1293" type="line"/>
      <point x="252" y="1293" type="line"/>
      <point x="277" y="1396" type="line"/>
      <point x="775" y="1396" type="line"/>
      <point x="627" y="755" type="line"/>
      <point x="871" y="755" type="line" smooth="yes"/>
      <point x="954" y="755"/>
      <point x="1088" y="719"/>
      <point x="1183" y="647"/>
      <point x="1234" y="541"/>
      <point x="1234" y="471" type="qcurve" smooth="yes"/>
      <point x="1234" y="366"/>
      <point x="1153" y="192"/>
      <point x="1010" y="68"/>
      <point x="817" y="0"/>
    </contour>
    <contour>
      <point x="722" y="118" type="line" smooth="yes"/>
      <point x="792" y="118"/>
      <point x="915" y="154"/>
      <point x="1012" y="224"/>
      <point x="1081" y="327"/>
      <point x="1096" y="393" type="qcurve" smooth="yes"/>
      <point x="1100" y="412"/>
      <point x="1105" y="446"/>
      <point x="1105" y="461" type="qcurve" smooth="yes"/>
      <point x="1105" y="551"/>
      <point x="971" y="638"/>
      <point x="853" y="638" type="qcurve" smooth="yes"/>
      <point x="600" y="638" type="line"/>
      <point x="479" y="118" type="line"/>
    </contour>
  </outline>
</glyph>
<glyph name="afii10045" format="2">
  <advance width="1587"/>
  <unicode hex="042B"/>
  <outline>
    <contour>
      <point x="489" y="0" type="qcurve" smooth="yes"/>
      <point x="103" y="0" type="line"/>
      <point x="184" y="351"/>
      <point x="344" y="1044"/>
      <point x="426" y="1396" type="qcurve"/>
      <point x="560" y="1396" type="line"/>
      <point x="414" y="755" type="line"/>
      <point x="654" y="755" type="line" smooth="yes"/>
      <point x="737" y="755"/>
      <point x="872" y="718"/>
      <point x="967" y="646"/>
      <point x="1019" y="540"/>
      <point x="1019" y="470" type="qcurve" smooth="yes"/>
      <point x="1019" y="368"/>
      <point x="940" y="195"/>
      <point x="799" y="70"/>
      <point x="604" y="0"/>
    </contour>
    <contour>
      <point x="1257" y="0" type="line"/>
      <point x="1123" y="0" type="line"/>
      <point x="1445" y="1396" type="line"/>
      <point x="1579" y="1396" type="line"/>
      <point x="1503" y="1067"/>
      <point x="1353" y="417"/>
      <point x="1278" y="88" type="qcurve"/>
    </contour>
    <contour>
      <point x="506" y="118" type="line" smooth="yes"/>
      <point x="576" y="118"/>
      <point x="700" y="154"/>
      <point x="797" y="225"/>
      <point x="866" y="327"/>
      <point x="881" y="393" type="qcurve" smooth="yes"/>
      <point x="885" y="413"/>
      <point x="889" y="446"/>
      <point x="889" y="461" type="qcurve" smooth="yes"/>
      <point x="889" y="551"/>
      <point x="755" y="638"/>
      <point x="637" y="638" type="qcurve" smooth="yes"/>
      <point x="386" y="638" type="line"/>
      <point x="266" y="118" type="line"/>
    </contour>
  </outline>
</glyph>
<glyph name="afii10046" format="2">
  <advance width="1133"/>
  <unicode hex="042C"/>
  <outline>
    <contour>
      <point x="489" y="0" type="qcurve" smooth="yes"/>
      <point x="103" y="0" type="line"/>
      <point x="184" y="351"/>
      <point x="344" y="1044"/>
      <point x="426" y="1396" type="qcurve"/>
      <point x="560" y="1396" type="line"/>
      <point x="413" y="755" type="line"/>
      <point x="654" y="755" type="line" smooth="yes"/>
      <point x="737" y="755"/>
      <point x="872" y="718"/>
      <point x="967" y="646"/>
      <point x="1019" y="540"/>
      <point x="1019" y="470" type="qcurve" smooth="yes"/>
      <point x="1019" y="368"/>
      <point x="940" y="196"/>
      <point x="799" y="70"/>
      <point x="604" y="0"/>
    </contour>
    <contour>
      <point x="506" y="118" type="line" smooth="yes"/>
      <point x="576" y="118"/>
      <point x="700" y="154"/>
      <point x="797" y="225"/>
      <point x="865" y="327"/>
      <point x="880" y="393" type="qcurve" smooth="yes"/>
      <point x="889" y="432"/>
      <point x="889" y="461" type="qcurve" smooth="yes"/>
      <point x="889" y="550"/>
      <point x="756" y="638"/>
      <point x="637" y="638" type="qcurve" smooth="yes"/>
      <point x="386" y="638" type="line"/>
      <point x="266" y="118" type="line"/>
    </contour>
  </outline>
</glyph>
<glyph name="afii10049" format="2">
  <advance width="1198"/>
  <unicode hex="042F"/>
  <outline>
    <contour>
      <point x="862" y="-2" type="line"/>
      <point x="727" y="-2" type="line"/>
      <point x="871" y="631" type="line"/>
      <point x="623" y="631" type="line"/>
      <point x="498" y="470"/>
      <point x="254" y="156"/>
      <point x="129" y="-2" type="qcurve"/>
      <point x="-27" y="-2" type="line"/>
      <point x="493" y="648" type="line"/>
      <point x="385" y="691"/>
      <point x="281" y="848"/>
      <point x="281" y="954" type="qcurve" smooth="yes"/>
      <point x="281" y="1062"/>
      <point x="359" y="1227"/>
      <point x="498" y="1338"/>
      <point x="688" y="1394"/>
      <point x="800" y="1394" type="qcurve" smooth="yes"/>
      <point x="1182" y="1394" type="line"/>
    </contour>
    <contour>
      <point x="901" y="761" type="line"/>
      <point x="1018" y="1275" type="line"/>
      <point x="783" y="1275" type="line" smooth="yes"/>
      <point x="709" y="1275"/>
      <point x="572" y="1237"/>
      <point x="467" y="1158"/>
      <point x="404" y="1039"/>
      <point x="404" y="958" type="qcurve" smooth="yes"/>
      <point x="404" y="913"/>
      <point x="436" y="841"/>
      <point x="495" y="791"/>
      <point x="577" y="763"/>
      <point x="628" y="761" type="qcurve"/>
    </contour>
  </outline>
</glyph>
<glyph name="afii10066" format="2">
  <advance width="1161"/>
  <unicode hex="0431"/>
  <outline>
    <contour>
      <point x="513" y="-20" type="qcurve" smooth="yes"/>
      <point x="433" y="-20"/>
      <point x="307" y="32"/>
      <point x="218" y="126"/>
      <point x="171" y="257"/>
      <point x="171" y="336" type="qcurve" smooth="yes"/>
      <point x="171" y="357"/>
      <point x="175" y="399"/>
      <point x="183" y="448"/>
      <point x="195" y="506"/>
      <point x="203" y="541" type="qcurve" smooth="yes"/>
      <point x="254" y="767" type="line" smooth="yes"/>
      <point x="279" y="881"/>
      <point x="349" y="1047"/>
      <point x="463" y="1173"/>
      <point x="630" y="1270"/>
      <point x="752" y="1316" type="qcurve" smooth="yes"/>
      <point x="824" y="1343"/>
      <point x="972" y="1395"/>
      <point x="1047" y="1418" type="qcurve"/>
      <point x="1027" y="1293" type="line"/>
      <point x="918" y="1252"/>
      <point x="760" y="1190"/>
      <point x="647" y="1141"/>
      <point x="570" y="1100"/>
      <point x="516" y="1059"/>
      <point x="477" y="1015"/>
      <point x="457" y="987" type="qcurve" smooth="yes"/>
      <point x="429" y="947"/>
      <point x="380" y="836"/>
      <point x="375" y="778" type="qcurve"/>
      <point x="450" y="855"/>
      <point x="641" y="946"/>
      <point x="742" y="946" type="qcurve" smooth="yes"/>
      <point x="821" y="946"/>
      <point x="944" y="894"/>
      <point x="1028" y="800"/>
      <point x="1071" y="671"/>
      <point x="1071" y="594" type="qcurve" smooth="yes"/>
      <point x="1071" y="524"/>
      <point x="1035" y="379"/>
      <point x="968" y="243"/>
      <point x="870" y="122"/>
      <point x="746" y="32"/>
      <point x="598" y="-20"/>
    </contour>
    <contour>
      <point x="514" y="82" type="qcurve" smooth="yes"/>
      <point x="604" y="82"/>
      <point x="756" y="163"/>
      <point x="868" y="304"/>
      <point x="933" y="495"/>
      <point x="936" y="605" type="qcurve"/>
      <point x="936" y="712"/>
      <point x="827" y="832"/>
      <point x="711" y="832" type="qcurve" smooth="yes"/>
      <point x="631" y="832"/>
      <point x="499" y="774"/>
      <point x="397" y="672"/>
      <point x="327" y="532"/>
      <point x="308" y="451" type="qcurve" smooth="yes"/>
      <point x="299" y="412"/>
      <point x="291" y="346"/>
      <point x="291" y="318" type="qcurve" smooth="yes"/>
      <point x="291" y="209"/>
      <point x="399" y="82"/>
    </contour>
  </outline>
</glyph>
<glyph name="afii10067" format="2">
  <advance width="1126"/>
  <unicode hex="0432"/>
  <outline>
    <contour>
      <point x="467" y="-20" type="qcurve" smooth="yes"/>
      <point x="374" y="-20"/>
      <point x="240" y="14"/>
      <point x="154" y="86"/>
      <point x="114" y="199"/>
      <point x="114" y="277" type="qcurve" smooth="yes"/>
      <point x="114" y="373"/>
      <point x="141" y="484" type="qcurve"/>
      <point x="169" y="609"/>
      <point x="226" y="853"/>
      <point x="254" y="977" type="qcurve" smooth="yes"/>
      <point x="278" y="1083"/>
      <point x="363" y="1247"/>
      <point x="488" y="1359"/>
      <point x="652" y="1417"/>
      <point x="754" y="1417" type="qcurve" smooth="yes"/>
      <point x="895" y="1417"/>
      <point x="1066" y="1316"/>
      <point x="1082" y="1212" type="qcurve"/>
      <point x="1087" y="1198"/>
      <point x="1090" y="1168"/>
      <point x="1090" y="1151" type="qcurve"/>
      <point x="1087" y="1107"/>
      <point x="1055" y="1004"/>
      <point x="986" y="908"/>
      <point x="874" y="829"/>
      <point x="793" y="808" type="qcurve"/>
      <point x="846" y="805"/>
      <point x="922" y="769"/>
      <point x="949" y="725" type="qcurve" smooth="yes"/>
      <point x="972" y="689"/>
      <point x="996" y="597"/>
      <point x="996" y="544" type="qcurve" smooth="yes"/>
      <point x="996" y="466"/>
      <point x="951" y="313"/>
      <point x="870" y="177"/>
      <point x="759" y="67"/>
      <point x="694" y="34" type="qcurve" smooth="yes"/>
      <point x="640" y="6"/>
      <point x="527" y="-20"/>
    </contour>
    <contour>
      <point x="457" y="88" type="qcurve" smooth="yes"/>
      <point x="537" y="88"/>
      <point x="664" y="136"/>
      <point x="760" y="224"/>
      <point x="825" y="347"/>
      <point x="842" y="422" type="qcurve" smooth="yes"/>
      <point x="851" y="462"/>
      <point x="861" y="524"/>
      <point x="861" y="547" type="qcurve" smooth="yes"/>
      <point x="861" y="597"/>
      <point x="831" y="673"/>
      <point x="776" y="724"/>
      <point x="700" y="750"/>
      <point x="654" y="750" type="qcurve" smooth="yes"/>
      <point x="585" y="750"/>
      <point x="476" y="721"/>
      <point x="431" y="689" type="qcurve"/>
      <point x="447" y="805" type="line"/>
      <point x="495" y="830"/>
      <point x="627" y="853"/>
      <point x="708" y="855" type="qcurve" smooth="yes"/>
      <point x="748" y="856"/>
      <point x="822" y="893"/>
      <point x="884" y="958"/>
      <point x="931" y="1045"/>
      <point x="943" y="1098" type="qcurve" smooth="yes"/>
      <point x="947" y="1115"/>
      <point x="951" y="1146"/>
      <point x="951" y="1160" type="qcurve" smooth="yes"/>
      <point x="951" y="1235"/>
      <point x="849" y="1304"/>
      <point x="749" y="1304" type="qcurve" smooth="yes"/>
      <point x="669" y="1304"/>
      <point x="548" y="1266"/>
      <point x="461" y="1190"/>
      <point x="403" y="1072"/>
      <point x="386" y="993" type="qcurve"/>
      <point x="268" y="486" type="line"/>
      <point x="251" y="420"/>
      <point x="236" y="312"/>
      <point x="236" y="270" type="qcurve" smooth="yes"/>
      <point x="236" y="220"/>
      <point x="259" y="150"/>
      <point x="311" y="107"/>
      <point x="395" y="88"/>
    </contour>
  </outline>
</glyph>
<glyph name="afii10068" format="2">
  <advance width="853"/>
  <unicode hex="0433"/>
  <outline>
    <contour>
      <point x="301" y="-20" type="qcurve" smooth="yes"/>
      <point x="181" y="-20"/>
      <point x="30" y="70"/>
      <point x="19" y="155" type="qcurve" smooth="yes"/>
      <point x="16" y="174"/>
      <point x="16" y="197" type="qcurve"/>
      <point x="19" y="242"/>
      <point x="45" y="317"/>
      <point x="82" y="379"/>
      <point x="128" y="426"/>
      <point x="150" y="444" type="qcurve"/>
      <point x="186" y="471"/>
      <point x="268" y="508"/>
      <point x="360" y="540"/>
      <point x="464" y="574"/>
      <point x="522" y="600" type="qcurve"/>
      <point x="595" y="630"/>
      <point x="681" y="722"/>
      <point x="681" y="792" type="qcurve" smooth="yes"/>
      <point x="681" y="840"/>
      <point x="611" y="882"/>
      <point x="542" y="882" type="qcurve" smooth="yes"/>
      <point x="389" y="882"/>
      <point x="290" y="751" type="qcurve"/>
      <point x="201" y="817" type="line"/>
      <point x="266" y="902"/>
      <point x="449" y="1001"/>
      <point x="559" y="1001" type="qcurve" smooth="yes"/>
      <point x="610" y="1001"/>
      <point x="701" y="973"/>
      <point x="769" y="920"/>
      <point x="808" y="845"/>
      <point x="808" y="798" type="qcurve" smooth="yes"/>
      <point x="808" y="775"/>
      <point x="797" y="720"/>
      <point x="776" y="666"/>
      <point x="747" y="615"/>
      <point x="729" y="595" type="qcurve" smooth="yes"/>
      <point x="703" y="565"/>
      <point x="646" y="523"/>
      <point x="574" y="488"/>
      <point x="479" y="455"/>
      <point x="415" y="435" type="qcurve" smooth="yes"/>
      <point x="355" y="416"/>
      <point x="254" y="374"/>
      <point x="181" y="318"/>
      <point x="141" y="243"/>
      <point x="141" y="192" type="qcurve" smooth="yes"/>
      <point x="141" y="138"/>
      <point x="223" y="93"/>
      <point x="310" y="93" type="qcurve" smooth="yes"/>
      <point x="353" y="93"/>
      <point x="442" y="124"/>
      <point x="523" y="176"/>
      <point x="589" y="244"/>
      <point x="610" y="281" type="qcurve"/>
      <point x="702" y="211" type="line"/>
      <point x="675" y="162"/>
      <point x="590" y="77"/>
      <point x="484" y="15"/>
      <point x="363" y="-20"/>
    </contour>
  </outline>
</glyph>
<glyph name="afii10075" format="2">
  <advance width="1143"/>
  <unicode hex="0439"/>
  <outline>
    <contour>
      <point x="714" y="1132" type="qcurve" smooth="yes"/>
      <point x="660" y="1132"/>
      <point x="569" y="1160"/>
      <point x="501" y="1213"/>
      <point x="463" y="1289"/>
      <point x="463" y="1336" type="qcurve" smooth="yes"/>
      <point x="463" y="1351"/>
      <point x="466" y="1382"/>
      <point x="471" y="1396" type="qcurve"/>
      <point x="576" y="1396" type="line"/>
      <point x="572" y="1380"/>
      <point x="572" y="1358" type="qcurve" smooth="yes"/>
      <point x="572" y="1294"/>
      <point x="652" y="1225"/>
      <point x="714" y="1225" type="qcurve" smooth="yes"/>
      <point x="754" y="1225"/>
      <point x="831" y="1253"/>
      <point x="896" y="1300"/>
      <point x="944" y="1362"/>
      <point x="953" y="1396" type="qcurve"/>
      <point x="1057" y="1396" type="line"/>
      <point x="1043" y="1336"/>
      <point x="979" y="1238"/>
      <point x="887" y="1169"/>
      <point x="775" y="1132"/>
    </contour>
    <contour>
      <point x="411" y="-23" type="qcurve" smooth="yes"/>
      <point x="277" y="-23"/>
      <point x="145" y="122"/>
      <point x="145" y="253" type="qcurve" smooth="yes"/>
      <point x="145" y="329"/>
      <point x="164" y="404" type="qcurve"/>
      <point x="298" y="986" type="line"/>
      <point x="423" y="986" type="line"/>
      <point x="286" y="387" type="line" smooth="yes"/>
      <point x="277" y="347"/>
      <point x="269" y="280"/>
      <point x="269" y="252" type="qcurve" smooth="yes"/>
      <point x="269" y="81"/>
      <point x="420" y="81" type="qcurve" smooth="yes"/>
      <point x="485" y="81"/>
      <point x="615" y="138"/>
      <point x="725" y="234"/>
      <point x="804" y="357"/>
      <point x="819" y="423" type="qcurve" smooth="yes"/>
      <point x="836" y="494"/>
      <point x="852" y="564" type="qcurve" smooth="yes"/>
      <point x="916" y="845" type="line"/>
      <point x="933" y="916"/>
      <point x="949" y="986" type="qcurve"/>
      <point x="1072" y="986" type="line"/>
      <point x="962" y="507" type="line"/>
      <point x="948" y="443"/>
      <point x="933" y="380" type="qcurve" smooth="yes"/>
      <point x="846" y="0" type="line"/>
      <point x="722" y="0" type="line"/>
      <point x="764" y="178" type="line"/>
      <point x="740" y="139"/>
      <point x="662" y="66"/>
      <point x="568" y="10"/>
      <point x="463" y="-23"/>
    </contour>
  </outline>
</glyph>
<glyph name="afii10077" format="2">
  <advance width="925"/>
  <unicode hex="043B"/>
  <outline>
    <contour>
      <point x="767" y="0" type="line"/>
      <point x="632" y="0" type="line"/>
      <point x="542" y="825" type="line"/>
      <point x="69" y="0" type="line"/>
      <point x="-69" y="0" type="line"/>
      <point x="519" y="986" type="line"/>
      <point x="636" y="986" type="line"/>
    </contour>
  </outline>
</glyph>
<glyph name="afii10081" format="2">
  <advance width="1115"/>
  <unicode hex="043F"/>
  <outline>
    <contour>
      <point x="847" y="0" type="line"/>
      <point x="722" y="0" type="line"/>
      <point x="859" y="594" type="line" smooth="yes"/>
      <point x="874" y="660"/>
      <point x="874" y="712" type="qcurve" smooth="yes"/>
      <point x="874" y="882"/>
      <point x="716" y="882" type="qcurve" smooth="yes"/>
      <point x="648" y="882"/>
      <point x="519" y="826"/>
      <point x="412" y="734"/>
      <point x="337" y="618"/>
      <point x="324" y="557" type="qcurve"/>
      <point x="291" y="415"/>
      <point x="228" y="140"/>
      <point x="197" y="0" type="qcurve"/>
      <point x="71" y="0" type="line"/>
      <point x="127" y="246"/>
      <point x="240" y="737"/>
      <point x="297" y="986" type="qcurve"/>
      <point x="422" y="986" type="line"/>
      <point x="381" y="822" type="line"/>
      <point x="414" y="863"/>
      <point x="497" y="930"/>
      <point x="588" y="977"/>
      <point x="684" y="1003"/>
      <point x="732" y="1003" type="qcurve" smooth="yes"/>
      <point x="866" y="1003"/>
      <point x="1001" y="858"/>
      <point x="1001" y="733" type="qcurve" smooth="yes"/>
      <point x="1001" y="698"/>
      <point x="993" y="632"/>
      <point x="985" y="598" type="qcurve" smooth="yes"/>
    </contour>
  </outline>
</glyph>
<glyph name="afii10084" format="2">
  <advance width="1689"/>
  <unicode hex="0442"/>
  <outline>
    <contour>
      <point x="1421" y="0" type="line"/>
      <point x="1294" y="0" type="line"/>
      <point x="1431" y="594" type="line" smooth="yes"/>
      <point x="1448" y="670"/>
      <point x="1448" y="723" type="qcurve" smooth="yes"/>
      <point x="1448" y="811"/>
      <point x="1369" y="901"/>
      <point x="1289" y="901" type="qcurve" smooth="yes"/>
      <point x="1227" y="901"/>
      <point x="1113" y="844"/>
      <point x="1019" y="748"/>
      <point x="952" y="625"/>
      <point x="938" y="560" type="qcurve" smooth="yes"/>
      <point x="906" y="418"/>
      <point x="840" y="140"/>
      <point x="809" y="0" type="qcurve"/>
      <point x="681" y="0" type="line"/>
      <point x="818" y="598" type="line" smooth="yes"/>
      <point x="827" y="636"/>
      <point x="835" y="701"/>
      <point x="835" y="728" type="qcurve" smooth="yes"/>
      <point x="835" y="901"/>
      <point x="679" y="901" type="qcurve" smooth="yes"/>
      <point x="618" y="901"/>
      <point x="504" y="845"/>
      <point x="411" y="751"/>
      <point x="343" y="627"/>
      <point x="328" y="559" type="qcurve"/>
      <point x="295" y="418"/>
      <point x="230" y="140"/>
      <point x="198" y="0" type="qcurve"/>
      <point x="71" y="0" type="line"/>
      <point x="127" y="246"/>
      <point x="240" y="737"/>
      <point x="297" y="986" type="qcurve"/>
      <point x="425" y="986" type="line"/>
      <point x="380" y="800" type="line"/>
      <point x="437" y="899"/>
      <point x="601" y="1005"/>
      <point x="693" y="1005" type="qcurve" smooth="yes"/>
      <point x="802" y="1005"/>
      <point x="945" y="897"/>
      <point x="959" y="791" type="qcurve"/>
      <point x="1096" y="1003"/>
      <point x="1303" y="1003" type="qcurve" smooth="yes"/>
      <point x="1438" y="1003"/>
      <point x="1575" y="862"/>
      <point x="1575" y="732" type="qcurve" smooth="yes"/>
      <point x="1575" y="700"/>
      <point x="1567" y="633"/>
      <point x="1559" y="598" type="qcurve" smooth="yes"/>
    </contour>
  </outline>
</glyph>
<glyph name="afii10086" format="2">
  <advance width="1363"/>
  <unicode hex="0444"/>
  <outline>
    <contour>
      <point x="532" y="-426" type="line"/>
      <point x="405" y="-426" type="line"/>
      <point x="507" y="-16" type="line"/>
      <point x="494" y="-18"/>
      <point x="462" y="-20"/>
      <point x="443" y="-20" type="qcurve" smooth="yes"/>
      <point x="358" y="-20"/>
      <point x="223" y="36"/>
      <point x="128" y="138"/>
      <point x="78" y="278"/>
      <point x="78" y="362" type="qcurve" smooth="yes"/>
      <point x="78" y="424"/>
      <point x="111" y="566"/>
      <point x="177" y="707"/>
      <point x="274" y="838"/>
      <point x="402" y="938"/>
      <point x="560" y="998"/>
      <point x="654" y="998" type="qcurve" smooth="yes"/>
      <point x="672" y="998"/>
      <point x="709" y="995"/>
      <point x="727" y="991" type="qcurve"/>
      <point x="752" y="1094"/>
      <point x="801" y="1294"/>
      <point x="827" y="1396" type="qcurve"/>
      <point x="954" y="1396" type="line"/>
      <point x="854" y="995" type="line"/>
      <point x="866" y="997"/>
      <point x="897" y="999"/>
      <point x="917" y="999" type="qcurve" smooth="yes"/>
      <point x="1002" y="999"/>
      <point x="1138" y="941"/>
      <point x="1232" y="838"/>
      <point x="1283" y="697"/>
      <point x="1283" y="615" type="qcurve" smooth="yes"/>
      <point x="1283" y="537"/>
      <point x="1241" y="383"/>
      <point x="1166" y="242"/>
      <point x="1060" y="120"/>
      <point x="931" y="31"/>
      <point x="783" y="-20"/>
      <point x="704" y="-20" type="qcurve" smooth="yes"/>
      <point x="690" y="-20"/>
      <point x="655" y="-17"/>
      <point x="634" y="-12" type="qcurve"/>
    </contour>
    <contour>
      <point x="483" y="95" type="qcurve"/>
      <point x="504" y="95"/>
      <point x="521" y="98" type="qcurve"/>
      <point x="712" y="882" type="line"/>
      <point x="693" y="886"/>
      <point x="650" y="886" type="qcurve" smooth="yes"/>
      <point x="570" y="886"/>
      <point x="433" y="824"/>
      <point x="326" y="714"/>
      <point x="251" y="565"/>
      <point x="232" y="477" type="qcurve"/>
      <point x="214" y="405"/>
      <point x="214" y="336" type="qcurve" smooth="yes"/>
      <point x="214" y="218"/>
      <point x="271" y="155" type="qcurve" smooth="yes"/>
      <point x="322" y="98"/>
      <point x="424" y="93" type="qcurve"/>
      <point x="432" y="93"/>
      <point x="447" y="94" type="qcurve"/>
      <point x="464" y="94"/>
    </contour>
    <contour>
      <point x="700" y="92" type="line" smooth="yes"/>
      <point x="783" y="92"/>
      <point x="921" y="151"/>
      <point x="1029" y="259"/>
      <point x="1106" y="410"/>
      <point x="1128" y="502" type="qcurve" smooth="yes"/>
      <point x="1137" y="539"/>
      <point x="1147" y="608"/>
      <point x="1147" y="640" type="qcurve" smooth="yes"/>
      <point x="1147" y="758"/>
      <point x="1030" y="886"/>
      <point x="912" y="886" type="qcurve" smooth="yes"/>
      <point x="898" y="886"/>
      <point x="863" y="883"/>
      <point x="840" y="879" type="qcurve"/>
      <point x="648" y="95" type="line"/>
      <point x="657" y="92"/>
      <point x="683" y="92" type="qcurve" smooth="yes"/>
    </contour>
  </outline>
</glyph>
<glyph name="afii10092" format="2">
  <advance width="1141"/>
  <unicode hex="044A"/>
  <outline>
    <contour>
      <point x="508" y="-20" type="qcurve" smooth="yes"/>
      <point x="439" y="-20"/>
      <point x="320" y="16"/>
      <point x="233" y="86"/>
      <point x="183" y="191"/>
      <point x="183" y="260" type="qcurve" smooth="yes"/>
      <point x="183" y="306"/>
      <point x="195" y="359" type="qcurve" smooth="yes"/>
      <point x="314" y="879" type="line"/>
      <point x="126" y="879" type="line"/>
      <point x="131" y="903"/>
      <point x="143" y="960"/>
      <point x="150" y="986" type="qcurve"/>
      <point x="467" y="986" type="line"/>
      <point x="385" y="646" type="line"/>
      <point x="411" y="677"/>
      <point x="486" y="732"/>
      <point x="574" y="772"/>
      <point x="671" y="795"/>
      <point x="718" y="795" type="qcurve" smooth="yes"/>
      <point x="788" y="795"/>
      <point x="904" y="757"/>
      <point x="987" y="684"/>
      <point x="1033" y="575"/>
      <point x="1033" y="503" type="qcurve" smooth="yes"/>
      <point x="1033" y="378"/>
      <point x="946" y="183"/>
      <point x="800" y="50"/>
      <point x="610" y="-20"/>
    </contour>
    <contour>
      <point x="535" y="92" type="qcurve" smooth="yes"/>
      <point x="599" y="92"/>
      <point x="709" y="138"/>
      <point x="798" y="220"/>
      <point x="861" y="333"/>
      <point x="878" y="401" type="qcurve" smooth="yes"/>
      <point x="883" y="421"/>
      <point x="888" y="461"/>
      <point x="888" y="480" type="qcurve" smooth="yes"/>
      <point x="888" y="524"/>
      <point x="860" y="598"/>
      <point x="808" y="652"/>
      <point x="730" y="682"/>
      <point x="681" y="682" type="qcurve" smooth="yes"/>
      <point x="620" y="682"/>
      <point x="506" y="641"/>
      <point x="413" y="569"/>
      <point x="348" y="473"/>
      <point x="336" y="418" type="qcurve" smooth="yes"/>
      <point x="328" y="382"/>
      <point x="312" y="307"/>
      <point x="312" y="279" type="qcurve" smooth="yes"/>
      <point x="312" y="194"/>
      <point x="425" y="92"/>
    </contour>
  </outline>
</glyph>
<glyph name="afii10099" format="2">
  <advance width="1099"/>
  <unicode hex="0452"/>
  <outline>
    <contour>
      <point x="395" y="-456" type="qcurve" smooth="yes"/>
      <point x="344" y="-456"/>
      <point x="260" y="-436"/>
      <point x="186" y="-393"/>
      <point x="118" y="-324"/>
      <point x="82" y="-275" type="qcurve"/>
      <point x="180" y="-210" type="line"/>
      <point x="203" y="-245"/>
      <point x="248" y="-297"/>
      <point x="296" y="-331"/>
      <point x="350" y="-348"/>
      <point x="383" y="-348" type="qcurve" smooth="yes"/>
      <point x="449" y="-348"/>
      <point x="546" y="-311"/>
      <point x="618" y="-238"/>
      <point x="670" y="-127"/>
      <point x="715" y="22"/>
      <point x="757" y="209"/>
      <point x="783" y="322" type="qcurve" smooth="yes"/>
      <point x="845" y="592" type="line"/>
      <point x="863" y="665"/>
      <point x="863" y="718" type="qcurve" smooth="yes"/>
      <point x="863" y="802"/>
      <point x="782" y="884"/>
      <point x="704" y="884" type="qcurve" smooth="yes"/>
      <point x="636" y="884"/>
      <point x="505" y="824"/>
      <point x="397" y="726"/>
      <point x="320" y="599"/>
      <point x="306" y="533" type="qcurve"/>
      <point x="269" y="375"/>
      <point x="208" y="110"/>
      <point x="183" y="0" type="qcurve"/>
      <point x="59" y="0" type="line"/>
      <point x="124" y="284"/>
      <point x="255" y="850"/>
      <point x="321" y="1139" type="qcurve"/>
      <point x="132" y="1139" type="line"/>
      <point x="156" y="1241" type="line"/>
      <point x="344" y="1241" type="line"/>
      <point x="381" y="1396" type="line"/>
      <point x="505" y="1396" type="line"/>
      <point x="493" y="1346"/>
      <point x="475" y="1269"/>
      <point x="468" y="1241" type="qcurve"/>
      <point x="782" y="1241" type="line"/>
      <point x="757" y="1139" type="line"/>
      <point x="444" y="1139" type="line"/>
      <point x="424" y="1057"/>
      <point x="387" y="902"/>
      <point x="368" y="816" type="qcurve"/>
      <point x="401" y="858"/>
      <point x="487" y="926"/>
      <point x="582" y="975"/>
      <point x="682" y="1001"/>
      <point x="729" y="1001" type="qcurve" smooth="yes"/>
      <point x="861" y="1001"/>
      <point x="993" y="859"/>
      <point x="993" y="734" type="qcurve" smooth="yes"/>
      <point x="993" y="705"/>
      <point x="985" y="639"/>
      <point x="977" y="605" type="qcurve" smooth="yes"/>
      <point x="908" y="308"/>
      <point x="839" y="14" type="qcurve" smooth="yes"/>
      <point x="813" y="-100"/>
      <point x="732" y="-275"/>
      <point x="622" y="-394"/>
      <point x="481" y="-456"/>
    </contour>
  </outline>
</glyph>
<glyph name="afii10101" format="2">
  <advance width="959"/>
  <unicode hex="0454"/>
  <outline>
    <contour>
      <point x="408" y="-20" type="qcurve" smooth="yes"/>
      <point x="326" y="-20"/>
      <point x="203" y="32"/>
      <point x="120" y="126"/>
      <point x="79" y="259"/>
      <point x="79" y="340" type="qcurve" smooth="yes"/>
      <point x="79" y="414"/>
      <point x="111" y="570"/>
      <point x="174" y="718"/>
      <point x="267" y="848"/>
      <point x="387" y="946"/>
      <point x="534" y="1003"/>
      <point x="620" y="1003" type="qcurve" smooth="yes"/>
      <point x="687" y="1003"/>
      <point x="796" y="967"/>
      <point x="879" y="899"/>
      <point x="933" y="804"/>
      <point x="945" y="746" type="qcurve"/>
      <point x="820" y="706" type="line"/>
      <point x="817" y="751"/>
      <point x="786" y="823"/>
      <point x="734" y="872"/>
      <point x="661" y="899"/>
      <point x="618" y="899" type="qcurve" smooth="yes"/>
      <point x="550" y="899"/>
      <point x="430" y="842"/>
      <point x="331" y="740"/>
      <point x="256" y="602"/>
      <point x="232" y="521" type="qcurve"/>
      <point x="644" y="528" type="line"/>
      <point x="621" y="435" type="line"/>
      <point x="210" y="428" type="line"/>
      <point x="203" y="387"/>
      <point x="203" y="338" type="qcurve" smooth="yes"/>
      <point x="203" y="217"/>
      <point x="302" y="83"/>
      <point x="407" y="83" type="qcurve" smooth="yes"/>
      <point x="456" y="83"/>
      <point x="549" y="114"/>
      <point x="631" y="169"/>
      <point x="697" y="245"/>
      <point x="719" y="289" type="qcurve"/>
      <point x="818" y="228" type="line"/>
      <point x="745" y="103"/>
      <point x="534" y="-20"/>
    </contour>
  </outline>
</glyph>
<glyph name="afii10109" format="2">
  <advance width="948"/>
  <unicode hex="045C"/>
  <outline>
    <contour>
      <point x="679" y="1113" type="line"/>
      <point x="574" y="1113" type="line"/>
      <point x="640" y="1182"/>
      <point x="776" y="1325"/>
      <point x="846" y="1396" type="qcurve"/>
      <point x="1000" y="1396" type="line"/>
      <point x="927" y="1333"/>
      <point x="781" y="1201"/>
      <point x="707" y="1137" type="qcurve" smooth="yes"/>
    </contour>
    <contour>
      <point x="778" y="0" type="line"/>
      <point x="633" y="0" type="line"/>
      <point x="596" y="366" type="line"/>
      <point x="587" y="442"/>
      <point x="527" y="505"/>
      <point x="465" y="505" type="qcurve" smooth="yes"/>
      <point x="313" y="505" type="line"/>
      <point x="281" y="366"/>
      <point x="225" y="115"/>
      <point x="199" y="0" type="qcurve"/>
      <point x="71" y="0" type="line"/>
      <point x="127" y="246"/>
      <point x="240" y="737"/>
      <point x="298" y="986" type="qcurve"/>
      <point x="424" y="986" type="line"/>
      <point x="340" y="616" type="line"/>
      <point x="479" y="616" type="line"/>
      <point x="781" y="986" type="line"/>
      <point x="943" y="986" type="line"/>
      <point x="598" y="584" type="line"/>
      <point x="623" y="584"/>
      <point x="662" y="557"/>
      <point x="690" y="512"/>
      <point x="709" y="451"/>
      <point x="714" y="418" type="qcurve" smooth="yes"/>
      <point x="726" y="333"/>
      <point x="755" y="143"/>
      <point x="772" y="35" type="qcurve" smooth="yes"/>
    </contour>
  </outline>
</glyph>
<glyph name="afii10110" format="2">
  <advance width="965"/>
  <unicode hex="045E"/>
  <outline>
    <contour>
      <point x="634" y="1132" type="qcurve" smooth="yes"/>
      <point x="581" y="1132"/>
      <point x="489" y="1160"/>
      <point x="421" y="1212"/>
      <point x="383" y="1288"/>
      <point x="383" y="1336" type="qcurve" smooth="yes"/>
      <point x="383" y="1352"/>
      <point x="387" y="1382"/>
      <point x="390" y="1396" type="qcurve"/>
      <point x="496" y="1396" type="line"/>
      <point x="492" y="1380"/>
      <point x="492" y="1358" type="qcurve" smooth="yes"/>
      <point x="492" y="1294"/>
      <point x="572" y="1225"/>
      <point x="634" y="1225" type="qcurve" smooth="yes"/>
      <point x="674" y="1225"/>
      <point x="751" y="1253"/>
      <point x="816" y="1300"/>
      <point x="863" y="1362"/>
      <point x="872" y="1396" type="qcurve"/>
      <point x="977" y="1396" type="line"/>
      <point x="963" y="1335"/>
      <point x="898" y="1238"/>
      <point x="807" y="1169"/>
      <point x="695" y="1132"/>
    </contour>
    <contour>
      <point x="182" y="-426" type="line"/>
      <point x="52" y="-426" type="line"/>
      <point x="313" y="1" type="line"/>
      <point x="165" y="986" type="line"/>
      <point x="303" y="986" type="line"/>
      <point x="403" y="150" type="line"/>
      <point x="671" y="611" type="line" smooth="yes"/>
      <point x="725" y="705"/>
      <point x="833" y="892"/>
      <point x="888" y="986" type="qcurve"/>
      <point x="1029" y="986" type="line"/>
    </contour>
  </outline>
</glyph>
<glyph name="afii10146" format="2">
  <advance width="1333"/>
  <unicode hex="0462"/>
  <outline>
    <contour>
      <point x="690" y="0" type="qcurve" smooth="yes"/>
      <point x="302" y="0" type="line"/>
      <point x="556" y="1099" type="line"/>
      <point x="215" y="1099" type="line"/>
      <point x="239" y="1211" type="line"/>
      <point x="581" y="1211" type="line"/>
      <point x="600" y="1290" type="line" smooth="yes"/>
      <point x="606" y="1316"/>
      <point x="619" y="1370"/>
      <point x="624" y="1396" type="qcurve"/>
      <point x="760" y="1396" type="line"/>
      <point x="757" y="1383"/>
      <point x="754" y="1370" type="qcurve" smooth="yes"/>
      <point x="741" y="1317" type="line" smooth="yes"/>
      <point x="738" y="1304"/>
      <point x="735" y="1291" type="qcurve" smooth="yes"/>
      <point x="717" y="1211" type="line"/>
      <point x="1073" y="1211" type="line"/>
      <point x="1048" y="1099" type="line"/>
      <point x="691" y="1099" type="line"/>
      <point x="613" y="755" type="line"/>
      <point x="855" y="755" type="line" smooth="yes"/>
      <point x="939" y="755"/>
      <point x="1074" y="718"/>
      <point x="1168" y="646"/>
      <point x="1219" y="540"/>
      <point x="1219" y="470" type="qcurve" smooth="yes"/>
      <point x="1219" y="372"/>
      <point x="1142" y="201"/>
      <point x="1002" y="73"/>
      <point x="808" y="0"/>
    </contour>
    <contour>
      <point x="708" y="118" type="line" smooth="yes"/>
      <point x="783" y="118"/>
      <point x="921" y="164"/>
      <point x="1026" y="253"/>
      <point x="1088" y="380"/>
      <point x="1088" y="461" type="qcurve" smooth="yes"/>
      <point x="1088" y="550"/>
      <point x="957" y="638"/>
      <point x="839" y="638" type="qcurve" smooth="yes"/>
      <point x="586" y="638" type="line"/>
      <point x="466" y="118" type="line"/>
    </contour>
  </outline>
</glyph>
<glyph name="yuslittlecyrillic" format="2">
  <advance width="1004"/>
  <unicode hex="0467"/>
  <outline>
    <contour>
      <point x="814" y="0" type="line"/>
      <point x="670" y="0" type="line"/>
      <point x="634" y="400" type="line"/>
      <point x="542" y="400" type="line"/>
      <point x="451" y="0" type="line"/>
      <point x="327" y="0" type="line"/>
      <point x="417" y="400" type="line"/>
      <point x="334" y="400" type="line"/>
      <point x="89" y="0" type="line"/>
      <point x="-41" y="0" type="line"/>
      <point x="562" y="986" type="line"/>
      <point x="666" y="986" type="line"/>
    </contour>
    <contour>
      <point x="625" y="499" type="line"/>
      <point x="585" y="829" type="line"/>
      <point x="391" y="499" type="line"/>
    </contour>
  </outline>
</glyph>
<glyph name="yuslittleiotifiedcyrillic" format="2">
  <advance width="1322"/>
  <unicode hex="0469"/>
  <outline>
    <contour>
      <point x="1133" y="0" type="line"/>
      <point x="985" y="0" type="line"/>
      <point x="952" y="400" type="line"/>
      <point x="860" y="400" type="line"/>
      <point x="768" y="0" type="line"/>
      <point x="642" y="0" type="line"/>
      <point x="734" y="400" type="line"/>
      <point x="653" y="400" type="line"/>
      <point x="408" y="0" type="line"/>
      <point x="275" y="0" type="line"/>
      <point x="513" y="388" type="line"/>
      <point x="286" y="388" type="line"/>
      <point x="197" y="0" type="line"/>
      <point x="71" y="0" type="line"/>
      <point x="297" y="986" type="line"/>
      <point x="422" y="986" type="line"/>
      <point x="308" y="490" type="line"/>
      <point x="573" y="490" type="line"/>
      <point x="878" y="986" type="line"/>
      <point x="984" y="986" type="line"/>
    </contour>
    <contour>
      <point x="942" y="499" type="line"/>
      <point x="903" y="829" type="line"/>
      <point x="709" y="499" type="line"/>
    </contour>
  </outline>
</glyph>
<glyph name="Yusbigcyrillic" format="2">
  <advance width="1547"/>
  <unicode hex="046A"/>
  <outline>
    <contour>
      <point x="1344" y="0" type="line"/>
      <point x="1189" y="0" type="line"/>
      <point x="1095" y="529" type="line" smooth="yes"/>
      <point x="1087" y="574"/>
      <point x="1039" y="634"/>
      <point x="983" y="634" type="qcurve" smooth="yes"/>
      <point x="867" y="634" type="line"/>
      <point x="722" y="0" type="line"/>
      <point x="588" y="0" type="line"/>
      <point x="734" y="634" type="line"/>
      <point x="629" y="634" type="line" smooth="yes"/>
      <point x="571" y="634"/>
      <point x="484" y="561"/>
      <point x="449" y="497" type="qcurve"/>
      <point x="127" y="0" type="line"/>
      <point x="-39" y="0" type="line"/>
      <point x="24" y="99"/>
      <point x="210" y="387"/>
      <point x="333" y="580" type="qcurve" smooth="yes"/>
      <point x="361" y="625"/>
      <point x="430" y="687"/>
      <point x="518" y="727"/>
      <point x="629" y="745"/>
      <point x="700" y="745" type="qcurve"/>
      <point x="437" y="1284" type="line"/>
      <point x="460" y="1396" type="line"/>
      <point x="1493" y="1396" type="line"/>
      <point x="1468" y="1285" type="line"/>
      <point x="943" y="745" type="line"/>
      <point x="1081" y="745"/>
      <point x="1220" y="659"/>
      <point x="1237" y="568" type="qcurve" smooth="yes"/>
      <point x="1261" y="434"/>
      <point x="1313" y="173"/>
      <point x="1337" y="41" type="qcurve" smooth="yes"/>
    </contour>
    <contour>
      <point x="832" y="790" type="line"/>
      <point x="1056" y="1020" type="line"/>
      <point x="1119" y="1086"/>
      <point x="1246" y="1218"/>
      <point x="1312" y="1286" type="qcurve"/>
      <point x="584" y="1286" type="line"/>
    </contour>
  </outline>
</glyph>
<glyph name="yusbigcyrillic" format="2">
  <advance width="1239"/>
  <unicode hex="046B"/>
  <outline>
    <contour>
      <point x="1048" y="0" type="line"/>
      <point x="903" y="0" type="line"/>
      <point x="870" y="339" type="line"/>
      <point x="863" y="382" type="line" smooth="yes"/>
      <point x="857" y="416"/>
      <point x="835" y="459"/>
      <point x="796" y="483"/>
      <point x="735" y="492"/>
      <point x="689" y="492" type="qcurve"/>
      <point x="660" y="365"/>
      <point x="599" y="123"/>
      <point x="571" y="0" type="qcurve"/>
      <point x="441" y="0" type="line"/>
      <point x="455" y="57"/>
      <point x="482" y="173"/>
      <point x="496" y="231" type="qcurve" smooth="yes"/>
      <point x="560" y="493" type="line"/>
      <point x="512" y="493"/>
      <point x="441" y="480"/>
      <point x="385" y="449"/>
      <point x="339" y="396"/>
      <point x="316" y="356" type="qcurve" smooth="yes"/>
      <point x="107" y="0" type="line"/>
      <point x="-41" y="0" type="line"/>
      <point x="203" y="408" type="line"/>
      <point x="254" y="496"/>
      <point x="389" y="584"/>
      <point x="490" y="584" type="qcurve"/>
      <point x="445" y="661"/>
      <point x="361" y="809"/>
      <point x="319" y="884" type="qcurve"/>
      <point x="331" y="946" type="line" smooth="yes"/>
      <point x="333" y="956"/>
      <point x="336" y="976"/>
      <point x="339" y="986" type="qcurve"/>
      <point x="1126" y="986" type="line"/>
      <point x="1104" y="885" type="line"/>
      <point x="784" y="584" type="line"/>
      <point x="832" y="584"/>
      <point x="904" y="559"/>
      <point x="953" y="514"/>
      <point x="981" y="454"/>
      <point x="985" y="419" type="qcurve"/>
    </contour>
    <contour>
      <point x="637" y="584" type="line"/>
      <point x="945" y="885" type="line"/>
      <point x="469" y="885" type="line"/>
    </contour>
  </outline>
</glyph>
<glyph name="yusbigiotifiedcyrillic" format="2">
  <advance width="1542"/>
  <unicode hex="046D"/>
  <outline>
    <contour>
      <point x="1352" y="0" type="line"/>
      <point x="1209" y="0" type="line"/>
      <point x="1173" y="366" type="line"/>
      <point x="1167" y="413"/>
      <point x="1145" y="469"/>
      <point x="1104" y="498"/>
      <point x="1040" y="506"/>
      <point x="993" y="506" type="qcurve"/>
      <point x="872" y="0" type="line"/>
      <point x="744" y="0" type="line"/>
      <point x="865" y="506" type="line"/>
      <point x="815" y="506"/>
      <point x="744" y="493"/>
      <point x="688" y="458"/>
      <point x="642" y="399"/>
      <point x="617" y="353" type="qcurve"/>
      <point x="563" y="264"/>
      <point x="463" y="88"/>
      <point x="411" y="0" type="qcurve"/>
      <point x="262" y="0" type="line"/>
      <point x="392" y="217" type="line" smooth="yes"/>
      <point x="425" y="271"/>
      <point x="491" y="380"/>
      <point x="525" y="436" type="qcurve"/>
      <point x="544" y="477"/>
      <point x="584" y="513" type="qcurve"/>
      <point x="498" y="511"/>
      <point x="363" y="509"/>
      <point x="312" y="508" type="qcurve"/>
      <point x="197" y="0" type="line"/>
      <point x="71" y="0" type="line"/>
      <point x="127" y="247"/>
      <point x="240" y="737"/>
      <point x="297" y="986" type="qcurve"/>
      <point x="423" y="986" type="line"/>
      <point x="412" y="944"/>
      <point x="394" y="858"/>
      <point x="383" y="815" type="qcurve"/>
      <point x="337" y="612" type="line"/>
      <point x="780" y="612" type="line"/>
      <point x="622" y="884" type="line"/>
      <point x="643" y="986" type="line"/>
      <point x="1429" y="986" type="line"/>
      <point x="1408" y="885" type="line"/>
      <point x="1105" y="603" type="line"/>
      <point x="1169" y="603"/>
      <point x="1246" y="555"/>
      <point x="1264" y="509" type="qcurve"/>
      <point x="1273" y="489"/>
      <point x="1283" y="446"/>
      <point x="1287" y="423" type="qcurve" smooth="yes"/>
    </contour>
    <contour>
      <point x="941" y="584" type="line"/>
      <point x="1248" y="885" type="line"/>
      <point x="771" y="885" type="line"/>
    </contour>
  </outline>
</glyph>
<glyph name="afii10195" format="2">
  <advance width="1110"/>
  <unicode hex="0473"/>
  <outline>
    <contour>
      <point x="447" y="-20" type="qcurve" smooth="yes"/>
      <point x="361" y="-20"/>
      <point x="226" y="37"/>
      <point x="132" y="139"/>
      <point x="82" y="279"/>
      <point x="82" y="363" type="qcurve" smooth="yes"/>
      <point x="82" y="437"/>
      <point x="121" y="588"/>
      <point x="194" y="730"/>
      <point x="297" y="854"/>
      <point x="425" y="946"/>
      <point x="576" y="999"/>
      <point x="659" y="999" type="qcurve" smooth="yes"/>
      <point x="745" y="999"/>
      <point x="881" y="941"/>
      <point x="976" y="839"/>
      <point x="1026" y="699"/>
      <point x="1026" y="616" type="qcurve" smooth="yes"/>
      <point x="1026" y="548"/>
      <point x="990" y="401"/>
      <point x="920" y="260"/>
      <point x="819" y="133"/>
      <point x="691" y="37"/>
      <point x="536" y="-20"/>
    </contour>
    <contour>
      <point x="254" y="551" type="qcurve"/>
      <point x="882" y="564" type="line"/>
      <point x="884" y="583"/>
      <point x="887" y="622"/>
      <point x="888" y="642" type="qcurve"/>
      <point x="888" y="758"/>
      <point x="774" y="886"/>
      <point x="654" y="886" type="qcurve" smooth="yes"/>
      <point x="585" y="886"/>
      <point x="461" y="838"/>
      <point x="358" y="750"/>
      <point x="279" y="627"/>
    </contour>
    <contour>
      <point x="452" y="92" type="qcurve" smooth="yes"/>
      <point x="529" y="92"/>
      <point x="659" y="147"/>
      <point x="762" y="246"/>
      <point x="838" y="385"/>
      <point x="860" y="470" type="qcurve"/>
      <point x="230" y="458" type="line"/>
      <point x="223" y="429"/>
      <point x="216" y="369"/>
      <point x="216" y="337" type="qcurve" smooth="yes"/>
      <point x="216" y="220"/>
      <point x="332" y="92"/>
    </contour>
  </outline>
</glyph>
<glyph name="afii10196" format="2">
  <advance width="963"/>
  <unicode hex="0475"/>
  <outline>
    <contour>
      <point x="373" y="0" type="line"/>
      <point x="254" y="0" type="line"/>
      <point x="249" y="61"/>
      <point x="243" y="121" type="qcurve"/>
      <point x="222" y="360" type="line" smooth="yes"/>
      <point x="217" y="420"/>
      <point x="211" y="480" type="qcurve" smooth="yes"/>
      <point x="165" y="986" type="line"/>
      <point x="301" y="986" type="line"/>
      <point x="323" y="592" type="line"/>
      <point x="328" y="486"/>
      <point x="341" y="273"/>
      <point x="347" y="164" type="qcurve"/>
      <point x="427" y="300" type="line"/>
      <point x="512" y="448"/>
      <point x="668" y="699"/>
      <point x="812" y="882"/>
      <point x="948" y="986"/>
      <point x="1015" y="987" type="qcurve"/>
      <point x="1009" y="953"/>
      <point x="1000" y="883"/>
      <point x="995" y="849" type="qcurve"/>
      <point x="966" y="843"/>
      <point x="911" y="812"/>
      <point x="851" y="752"/>
      <point x="782" y="660"/>
      <point x="740" y="592" type="qcurve" smooth="yes"/>
      <point x="651" y="448"/>
      <point x="475" y="165"/>
      <point x="388" y="23" type="qcurve"/>
    </contour>
  </outline>
</glyph>
